{
.appVersion = "1141";
copyright = "Copyright (c) 2018 by Cadson Demak Co.,Ltd.. All rights reserved.";
customParameters = (
{
name = vendorID;
value = CDK;
},
{
name = description;
value = "Copyright (c) 2018, Cadson Demak (info@cadsondemak.com)";
},
{
name = license;

glyphs = (
{
glyphname = A;
lastChange = "2018-06-18 17:40:17 +0000";
layers = (
{
anchors = (
{
name = bottom;
position = "{275, 0}";
},
{
name = ogonek;
position = "{516, 0}";
},
{
name = top;
position = "{275, 700}";
}
);
background = {
paths = (
{
closed = 1;
nodes = (
"303 710 LINE",
"245 710 LINE",
"-20 0 LINE",
"43 0 LINE",
"123 225 LINE",
"424 225 LINE",
"505 0 LINE",
"568 0 LINE"
);
},
{
closed = 1;
nodes = (
"140 273 LINE",
"274 647 LINE",
"406 273 LINE"
);
}
);
};
layerId = "0B1DFD06-3317-40CA-B510-4969A0718C16";
paths = (
{
closed = 1;
nodes = (
"64 0 LINE",
"286 690 LINE",
"265 690 LINE",
"487 0 LINE",
"530 0 LINE",
"296 700 LINE",
"255 700 LINE",
"21 0 LINE"
);
},
{
closed = 1;
nodes = (
"448 189 LINE",
"438 222 LINE",
"113 222 LINE",
"103 189 LINE"
);
}
);
width = 551;
},
{
anchors = (
{
name = bottom;
position = "{328, 0}";
},
{
name = ogonek;
position = "{567, 0}";
},
{
name = top;
position = "{328, 700}";
}
);
layerId = "ECFE7DEB-F40D-44C7-B7CF-D3B40F3B51F8";
paths = (
{
closed = 1;
nodes = (
"182 0 LINE",
"362 597 LINE",
"294 597 LINE",
"474 0 LINE",
"642 0 LINE",
"398 700 LINE",
"258 700 LINE",
"14 0 LINE"
);
},
{
closed = 1;
nodes = (
"549 104 LINE",
"505 232 LINE",
"148 232 LINE",
"107 104 LINE"
);
}
);
width = 656;
},
{
anchors = (
{
name = bottom;
position = "{298, 0}";
},
{
name = ogonek;
position = "{521, 0}";
},
{
name = top;
position = "{298, 700}";
}
);
layerId = "E6340435-1C2D-4187-91B6-2B8E20EF3542";
paths = (
{
closed = 1;
nodes = (
"115 0 LINE",
"319 652 LINE",
"277 652 LINE",
"481 0 LINE",
"579 0 LINE",
"341 700 LINE",
"255 700 LINE",
"17 0 LINE"
);
},
{
closed = 1;
nodes = (
"480 151 LINE",
"454 226 LINE",
"140 226 LINE",
"115 151 LINE"
);
}
);
width = 596;
},
{
anchors = (
{
name = bottom;
position = "{284, 0}";
},
{
name = ogonek;
position = "{523, 0}";
},
{
name = top;
position = "{407, 700}";
}
);
layerId = "CAD36325-8B27-45AE-AB38-7E116081C841";
paths = (
{
closed = 1;
nodes = (
"144 0 LINE",
"429 597 LINE",
"361 597 LINE",
"436 0 LINE",
"598 0 LINE",
"477 700 LINE",
"337 700 LINE",
"-30 0 LINE"
);
},
{
closed = 1;
nodes = (
"523 104 LINE",
"502 232 LINE",
"145 232 LINE",
"81 104 LINE"
);
}
);
width = 656;
},
{
anchors = (
{
name = bottom;
position = "{254, 0}";
},
{
name = ogonek;
position = "{477, 0}";
},
{
name = top;
position = "{377, 700}";
}
);
layerId = "BC946E28-F4D1-4B1D-9CE5-1B4AE2F9B39A";
paths = (
{
closed = 1;
nodes = (
"78 0 LINE",
"392 652 LINE",
"350 652 LINE",
"444 0 LINE",
"535 0 LINE",
"420 700 LINE",
"334 700 LINE",
"-27 0 LINE"
);
},
{
closed = 1;
nodes = (
"463 151 LINE",
"450 226 LINE",
"136 226 LINE",
"98 151 LINE"
);
}
);
width = 596;
},
{
anchors = (
{
name = bottom;
position = "{231, 0}";
},
{
name = ogonek;
position = "{472, 0}";
},
{
name = top;
position = "{354, 700}";
}
);
background = {
paths = (
{
closed = 1;
nodes = (
"303 710 LINE",
"245 710 LINE",
"-20 0 LINE",
"43 0 LINE",
"123 225 LINE",
"424 225 LINE",
"505 0 LINE",
"568 0 LINE"
);
},
{
closed = 1;
nodes = (
"140 273 LINE",
"274 647 LINE",
"406 273 LINE"
);
}
);
};
layerId = "1781F524-7973-4932-8D2B-6055E077B411";
paths = (
{
closed = 1;
nodes = (
"22 0 LINE",
"367 697 LINE",
"346 697 LINE",
"445 0 LINE",
"486 0 LINE",
"375 700 LINE",
"334 700 LINE",
"-23 0 LINE"
);
},
{
closed = 1;
nodes = (
"437 189 LINE",
"433 222 LINE",
"108 222 LINE",
"92 189 LINE"
);
}
);
width = 551;
}
);
leftKerningGroup = A;
note = A;
rightKerningGroup = A;
unicode = 0041;
},
{
glyphname = B;
lastChange = "2018-06-18 12:21:33 +0000";
layers = (
{
anchors = (
{
name = bottom;
position = "{287, 0}";
},
{
name = top;
position = "{287, 700}";
}
);
background = {
paths = (
{
closed = 1;
nodes = (
"510 291 OFFCURVE",
"436 356 OFFCURVE",
"366 373 CURVE",
"436 398 OFFCURVE",
"482 462 OFFCURVE",
"482 532 CURVE SMOOTH",
"482 650 OFFCURVE",
"396 709 OFFCURVE",
"227 709 CURVE SMOOTH",
"179 709 OFFCURVE",
"129 703 OFFCURVE",
"80 689 CURVE",
"80 6 LINE",
"126 -4 OFFCURVE",
"172 -9 OFFCURVE",
"214 -9 CURVE SMOOTH",
"411 -9 OFFCURVE",
"510 59 OFFCURVE",
"510 196 CURVE SMOOTH"
);
},
{
closed = 1;
nodes = (
"424 492 OFFCURVE",
"410 460 OFFCURVE",
"382 435 CURVE SMOOTH",
"351 407 OFFCURVE",
"308 394 OFFCURVE",
"257 394 CURVE SMOOTH",
"138 394 LINE",
"138 650 LINE",
"167 657 OFFCURVE",
"197 660 OFFCURVE",
"227 660 CURVE SMOOTH",
"358 660 OFFCURVE",
"424 617 OFFCURVE",
"424 531 CURVE SMOOTH"
);
},
{
closed = 1;
nodes = (
"454 140 OFFCURVE",
"429 100 OFFCURVE",
"380 72 CURVE SMOOTH",
"341 50 OFFCURVE",
"289 38 OFFCURVE",
"226 38 CURVE SMOOTH",
"194 38 OFFCURVE",
"164 41 OFFCURVE",
"138 47 CURVE",
"138 347 LINE",
"239 347 LINE SMOOTH",
"363 347 OFFCURVE",
"454 298 OFFCURVE",
"454 194 CURVE SMOOTH"
);
}
);
};
layerId = "0B1DFD06-3317-40CA-B510-4969A0718C16";
paths = (
{
closed = 1;
nodes = (
"271 0 LINE SMOOTH",
"439 0 OFFCURVE",
"509 57 OFFCURVE",
"509 194 CURVE SMOOTH",
"509 298 OFFCURVE",
"465 350 OFFCURVE",
"359 372 CURVE",
"359 374 LINE",
"434 390 OFFCURVE",
"480 452 OFFCURVE",
"480 538 CURVE SMOOTH",
"480 648 OFFCURVE",
"411 700 OFFCURVE",
"273 700 CURVE SMOOTH",
"96 700 LINE",
"96 0 LINE"
);
},
{
closed = 1;
nodes = (
"134 354 LINE",
"238 354 LINE SMOOTH",
"410 354 OFFCURVE",
"474 309 OFFCURVE",
"474 189 CURVE SMOOTH",
"474 81 OFFCURVE",
"418 35 OFFCURVE",
"289 35 CURVE SMOOTH",
"134 35 LINE"
);
},
{
closed = 1;
nodes = (
"134 665 LINE",
"269 665 LINE SMOOTH",
"385 665 OFFCURVE",
"442 625 OFFCURVE",
"442 541 CURVE SMOOTH",
"442 438 OFFCURVE",
"385 388 OFFCURVE",
"270 388 CURVE SMOOTH",
"134 388 LINE"
);
}
);
width = 574;
},
{
anchors = (
{
name = bottom;
position = "{311, 0}";
},
{
name = top;
position = "{311, 700}";
}
);
background = {
paths = (
{
closed = 1;
nodes = (
"512 291 OFFCURVE",
"438 356 OFFCURVE",
"368 373 CURVE",
"438 398 OFFCURVE",
"484 462 OFFCURVE",
"484 532 CURVE SMOOTH",
"484 650 OFFCURVE",
"398 709 OFFCURVE",
"229 709 CURVE SMOOTH",
"181 709 OFFCURVE",
"131 703 OFFCURVE",
"82 689 CURVE",
"82 6 LINE",
"128 -4 OFFCURVE",
"174 -9 OFFCURVE",
"216 -9 CURVE SMOOTH",
"413 -9 OFFCURVE",
"512 59 OFFCURVE",
"512 196 CURVE SMOOTH"
);
},
{
closed = 1;
nodes = (
"426 492 OFFCURVE",
"412 460 OFFCURVE",
"384 435 CURVE SMOOTH",
"353 407 OFFCURVE",
"310 394 OFFCURVE",
"259 394 CURVE SMOOTH",
"140 394 LINE",
"140 650 LINE",
"169 657 OFFCURVE",
"199 660 OFFCURVE",
"229 660 CURVE SMOOTH",
"360 660 OFFCURVE",
"426 617 OFFCURVE",
"426 531 CURVE SMOOTH"
);
},
{
closed = 1;
nodes = (
"456 140 OFFCURVE",
"431 100 OFFCURVE",
"382 72 CURVE SMOOTH",
"343 50 OFFCURVE",
"291 38 OFFCURVE",
"228 38 CURVE SMOOTH",
"196 38 OFFCURVE",
"166 41 OFFCURVE",
"140 47 CURVE",
"140 347 LINE",
"241 347 LINE SMOOTH",
"365 347 OFFCURVE",
"456 298 OFFCURVE",
"456 194 CURVE SMOOTH"
);
}
);
};
layerId = "ECFE7DEB-F40D-44C7-B7CF-D3B40F3B51F8";
paths = (
{
closed = 1;
nodes = (
"350 0 LINE SMOOTH",
"496 0 OFFCURVE",
"578 75 OFFCURVE",
"578 208 CURVE SMOOTH",
"578 291 OFFCURVE",
"544 341 OFFCURVE",
"461 376 CURVE",
"461 378 LINE",
"524 415 OFFCURVE",
"552 460 OFFCURVE",
"552 523 CURVE SMOOTH",
"552 637 OFFCURVE",
"464 700 OFFCURVE",
"305 700 CURVE SMOOTH",
"64 700 LINE",
"64 0 LINE"
);
},
{
closed = 1;
nodes = (
"225 310 LINE",
"304 310 LINE SMOOTH",
"385 310 OFFCURVE",
"419 283 OFFCURVE",
"419 219 CURVE SMOOTH",
"419 160 OFFCURVE",
"387 123 OFFCURVE",
"335 123 CURVE SMOOTH",
"225 123 LINE"
);
},
{
closed = 1;
nodes = (
"225 577 LINE",
"295 577 LINE SMOOTH",
"359 577 OFFCURVE",
"390 553 OFFCURVE",
"390 505 CURVE SMOOTH",
"390 457 OFFCURVE",
"360 426 OFFCURVE",
"314 426 CURVE SMOOTH",
"225 426 LINE"
);
}
);
width = 612;
},
{
anchors = (
{
name = bottom;
position = "{296, 0}";
},
{
name = top;
position = "{296, 700}";
}
);
layerId = "E6340435-1C2D-4187-91B6-2B8E20EF3542";
paths = (
{
closed = 1;
nodes = (
"305 0 LINE SMOOTH",
"462 0 OFFCURVE",
"539 66 OFFCURVE",
"539 200 CURVE SMOOTH",
"539 295 OFFCURVE",
"498 348 OFFCURVE",
"404 373 CURVE",
"404 376 LINE",
"477 404 OFFCURVE",
"511 454 OFFCURVE",
"511 532 CURVE SMOOTH",
"511 645 OFFCURVE",
"431 700 OFFCURVE",
"266 700 CURVE SMOOTH",
"81 700 LINE",
"81 0 LINE"
);
},
{
closed = 1;
nodes = (
"173 335 LINE",
"267 335 LINE SMOOTH",
"392 335 OFFCURVE",
"448 294 OFFCURVE",
"448 202 CURVE SMOOTH",
"448 117 OFFCURVE",
"401 74 OFFCURVE",
"308 74 CURVE SMOOTH",
"173 74 LINE"
);
},
{
closed = 1;
nodes = (
"173 626 LINE",
"269 626 LINE SMOOTH",
"373 626 OFFCURVE",
"419 595 OFFCURVE",
"419 525 CURVE SMOOTH",
"419 446 OFFCURVE",
"375 405 OFFCURVE",
"289 405 CURVE SMOOTH",
"173 405 LINE"
);
}
);
width = 589;
},
{
anchors = (
{
name = bottom;
position = "{267, 0}";
},
{
name = top;
position = "{390, 700}";
}
);
background = {
paths = (
{
closed = 1;
nodes = (
"512 291 OFFCURVE",
"438 356 OFFCURVE",
"368 373 CURVE",
"438 398 OFFCURVE",
"484 462 OFFCURVE",
"484 532 CURVE SMOOTH",
"484 650 OFFCURVE",
"398 709 OFFCURVE",
"229 709 CURVE SMOOTH",
"181 709 OFFCURVE",
"131 703 OFFCURVE",
"82 689 CURVE",
"82 6 LINE",
"128 -4 OFFCURVE",
"174 -9 OFFCURVE",
"216 -9 CURVE SMOOTH",
"413 -9 OFFCURVE",
"512 59 OFFCURVE",
"512 196 CURVE SMOOTH"
);
},
{
closed = 1;
nodes = (
"426 492 OFFCURVE",
"412 460 OFFCURVE",
"384 435 CURVE SMOOTH",
"353 407 OFFCURVE",
"310 394 OFFCURVE",
"259 394 CURVE SMOOTH",
"140 394 LINE",
"140 650 LINE",
"169 657 OFFCURVE",
"199 660 OFFCURVE",
"229 660 CURVE SMOOTH",
"360 660 OFFCURVE",
"426 617 OFFCURVE",
"426 531 CURVE SMOOTH"
);
},
{
closed = 1;
nodes = (
"456 140 OFFCURVE",
"431 100 OFFCURVE",
"382 72 CURVE SMOOTH",
"343 50 OFFCURVE",
"291 38 OFFCURVE",
"228 38 CURVE SMOOTH",
"196 38 OFFCURVE",
"166 41 OFFCURVE",
"140 47 CURVE",
"140 347 LINE",
"241 347 LINE SMOOTH",
"365 347 OFFCURVE",
"456 298 OFFCURVE",
"456 194 CURVE SMOOTH"
);
}
);
};
layerId = "CAD36325-8B27-45AE-AB38-7E116081C841";
paths = (
{
closed = 1;
nodes = (
"326 0 LINE SMOOTH",
"482 0 OFFCURVE",
"575 91 OFFCURVE",
"575 243 CURVE SMOOTH",
"575 304 OFFCURVE",
"544 348 OFFCURVE",
"483 376 CURVE",
"484 378 LINE",
"566 422 OFFCURVE",
"603 476 OFFCURVE",
"603 550 CURVE SMOOTH",
"603 645 OFFCURVE",
"523 700 OFFCURVE",
"384 700 CURVE SMOOTH",
"143 700 LINE",
"20 0 LINE"
);
},
{
closed = 1;
nodes = (
"236 310 LINE",
"315 310 LINE SMOOTH",
"384 310 OFFCURVE",
"416 282 OFFCURVE",
"416 236 CURVE SMOOTH",
"416 168 OFFCURVE",
"371 123 OFFCURVE",
"313 123 CURVE SMOOTH",
"203 123 LINE"
);
},
{
closed = 1;
nodes = (
"283 577 LINE",
"353 577 LINE SMOOTH",
"409 577 OFFCURVE",
"437 551 OFFCURVE",
"437 514 CURVE SMOOTH",
"437 461 OFFCURVE",
"396 426 OFFCURVE",
"345 426 CURVE SMOOTH",
"256 426 LINE"
);
}
);
width = 612;
},
{
anchors = (
{
name = bottom;
position = "{252, 0}";
},
{
name = top;
position = "{375, 700}";
}
);
layerId = "BC946E28-F4D1-4B1D-9CE5-1B4AE2F9B39A";
paths = (
{
closed = 1;
nodes = (
"271 0 LINE SMOOTH",
"442 0 OFFCURVE",
"535 85 OFFCURVE",
"535 239 CURVE SMOOTH",
"535 307 OFFCURVE",
"498 352 OFFCURVE",
"426 373 CURVE",
"426 376 LINE",
"516 408 OFFCURVE",
"564 473 OFFCURVE",
"564 561 CURVE SMOOTH",
"564 650 OFFCURVE",
"482 700 OFFCURVE",
"335 700 CURVE SMOOTH",
"160 700 LINE",
"37 0 LINE"
);
},
{
closed = 1;
nodes = (
"188 335 LINE",
"282 335 LINE SMOOTH",
"392 335 OFFCURVE",
"443 303 OFFCURVE",
"443 234 CURVE SMOOTH",
"443 135 OFFCURVE",
"380 74 OFFCURVE",
"277 74 CURVE SMOOTH",
"142 74 LINE"
);
},
{
closed = 1;
nodes = (
"239 626 LINE",
"335 626 LINE SMOOTH",
"427 626 OFFCURVE",
"470 601 OFFCURVE",
"470 548 CURVE SMOOTH",
"470 462 OFFCURVE",
"409 405 OFFCURVE",
"316 405 CURVE SMOOTH",
"200 405 LINE"
);
}
);
width = 589;
},
{
anchors = (
{
name = bottom;
position = "{243, 0}";
},
{
name = top;
position = "{366, 700}";
}
);
background = {
paths = (
{
closed = 1;
nodes = (
"510 291 OFFCURVE",
"436 356 OFFCURVE",
"366 373 CURVE",
"436 398 OFFCURVE",
"482 462 OFFCURVE",
"482 532 CURVE SMOOTH",
"482 650 OFFCURVE",
"396 709 OFFCURVE",
"227 709 CURVE SMOOTH",
"179 709 OFFCURVE",
"129 703 OFFCURVE",
"80 689 CURVE",
"80 6 LINE",
"126 -4 OFFCURVE",
"172 -9 OFFCURVE",
"214 -9 CURVE SMOOTH",
"411 -9 OFFCURVE",
"510 59 OFFCURVE",
"510 196 CURVE SMOOTH"
);
},
{
closed = 1;
nodes = (
"424 492 OFFCURVE",
"410 460 OFFCURVE",
"382 435 CURVE SMOOTH",
"351 407 OFFCURVE",
"308 394 OFFCURVE",
"257 394 CURVE SMOOTH",
"138 394 LINE",
"138 650 LINE",
"167 657 OFFCURVE",
"197 660 OFFCURVE",
"227 660 CURVE SMOOTH",
"358 660 OFFCURVE",
"424 617 OFFCURVE",
"424 531 CURVE SMOOTH"
);
},
{
closed = 1;
nodes = (
"454 140 OFFCURVE",
"429 100 OFFCURVE",
"380 72 CURVE SMOOTH",
"341 50 OFFCURVE",
"289 38 OFFCURVE",
"226 38 CURVE SMOOTH",
"194 38 OFFCURVE",
"164 41 OFFCURVE",
"138 47 CURVE",
"138 347 LINE",
"239 347 LINE SMOOTH",
"363 347 OFFCURVE",
"454 298 OFFCURVE",
"454 194 CURVE SMOOTH"
);
}
);
};
layerId = "1781F524-7973-4932-8D2B-6055E077B411";
paths = (
{
closed = 1;
nodes = (
"237 0 LINE SMOOTH",
"420 0 OFFCURVE",
"504 74 OFFCURVE",
"504 234 CURVE SMOOTH",
"504 309 OFFCURVE",
"464 354 OFFCURVE",
"381 372 CURVE",
"381 374 LINE",
"470 392 OFFCURVE",
"534 477 OFFCURVE",
"534 576 CURVE SMOOTH",
"534 659 OFFCURVE",
"474 700 OFFCURVE",
"352 700 CURVE SMOOTH",
"175 700 LINE",
"52 0 LINE"
);
},
{
closed = 1;
nodes = (
"152 354 LINE",
"256 354 LINE SMOOTH",
"402 354 OFFCURVE",
"468 314 OFFCURVE",
"468 225 CURVE SMOOTH",
"468 97 OFFCURVE",
"397 35 OFFCURVE",
"251 35 CURVE SMOOTH",
"96 35 LINE"
);
},
{
closed = 1;
nodes = (
"207 665 LINE",
"352 665 LINE SMOOTH",
"452 665 OFFCURVE",
"496 635 OFFCURVE",
"496 568 CURVE SMOOTH",
"496 458 OFFCURVE",
"418 388 OFFCURVE",
"294 388 CURVE SMOOTH",
"158 388 LINE"
);
}
);
width = 574;
}
);
note = B;
unicode = 0042;
},
{
glyphname = C;
lastChange = "2018-06-18 18:53:38 +0000";
layers = (
{
anchors = (
{
name = bottom;
position = "{337, 0}";
},
{
name = top;
position = "{328, 700}";
}
);
background = {
paths = (
{
closed = 1;
nodes = (
"483 51 OFFCURVE",
"425 40 OFFCURVE",
"365 40 CURVE SMOOTH",
"290 40 OFFCURVE",
"225 68 OFFCURVE",
"172 123 CURVE SMOOTH",
"117 182 OFFCURVE",
"89 257 OFFCURVE",
"89 350 CURVE SMOOTH",
"89 442 OFFCURVE",
"117 517 OFFCURVE",
"172 576 CURVE SMOOTH",
"225 632 OFFCURVE",
"290 660 OFFCURVE",
"365 660 CURVE SMOOTH",
"425 660 OFFCURVE",
"483 648 OFFCURVE",
"535 626 CURVE",
"553 673 LINE",
"502 698 OFFCURVE",
"437 710 OFFCURVE",
"362 710 CURVE SMOOTH",
"266 710 OFFCURVE",
"187 676 OFFCURVE",
"124 609 CURVE SMOOTH",
"61 542 OFFCURVE",
"30 456 OFFCURVE",
"30 351 CURVE SMOOTH",
"30 247 OFFCURVE",
"61 160 OFFCURVE",
"124 91 CURVE SMOOTH",
"187 24 OFFCURVE",
"266 -10 OFFCURVE",
"362 -10 CURVE SMOOTH",
"437 -10 OFFCURVE",
"502 1 OFFCURVE",
"553 26 CURVE",
"535 74 LINE"
);
}
);
};
layerId = "0B1DFD06-3317-40CA-B510-4969A0718C16";
paths = (
{
closed = 1;
nodes = (
"409 -10 OFFCURVE",
"489 27 OFFCURVE",
"525 83 CURVE",
"506 113 LINE",
"473 58 OFFCURVE",
"406 25 OFFCURVE",
"327 25 CURVE SMOOTH",
"174 25 OFFCURVE",
"83 146 OFFCURVE",
"83 350 CURVE SMOOTH",
"83 557 OFFCURVE",
"174 675 OFFCURVE",
"334 675 CURVE SMOOTH",
"411 675 OFFCURVE",
"465 647 OFFCURVE",
"506 587 CURVE",
"525 617 LINE",
"485 675 OFFCURVE",
"412 710 OFFCURVE",
"331 710 CURVE SMOOTH",
"154 710 OFFCURVE",
"44 572 OFFCURVE",
"44 350 CURVE SMOOTH",
"44 124 OFFCURVE",
"148 -10 OFFCURVE",
"324 -10 CURVE SMOOTH"
);
}
);
width = 557;
},
{
anchors = (
{
name = bottom;
position = "{361, 0}";
},
{
name = top;
position = "{361, 700}";
}
);
background = {
paths = (
{
closed = 1;
nodes = (
"497 51 OFFCURVE",
"439 40 OFFCURVE",
"379 40 CURVE SMOOTH",
"304 40 OFFCURVE",
"239 68 OFFCURVE",
"186 123 CURVE SMOOTH",
"131 182 OFFCURVE",
"103 257 OFFCURVE",
"103 350 CURVE SMOOTH",
"103 442 OFFCURVE",
"131 517 OFFCURVE",
"186 576 CURVE SMOOTH",
"239 632 OFFCURVE",
"304 660 OFFCURVE",
"379 660 CURVE SMOOTH",
"439 660 OFFCURVE",
"497 648 OFFCURVE",
"549 626 CURVE",
"567 673 LINE",
"516 698 OFFCURVE",
"451 710 OFFCURVE",
"376 710 CURVE SMOOTH",
"280 710 OFFCURVE",
"201 676 OFFCURVE",
"138 609 CURVE SMOOTH",
"75 542 OFFCURVE",
"44 456 OFFCURVE",
"44 351 CURVE SMOOTH",
"44 247 OFFCURVE",
"75 160 OFFCURVE",
"138 91 CURVE SMOOTH",
"201 24 OFFCURVE",
"280 -10 OFFCURVE",
"376 -10 CURVE SMOOTH",
"451 -10 OFFCURVE",
"516 1 OFFCURVE",
"567 26 CURVE",
"549 74 LINE"
);
}
);
};
layerId = "ECFE7DEB-F40D-44C7-B7CF-D3B40F3B51F8";
paths = (
{
closed = 1;
nodes = (
"478 -10 OFFCURVE",
"567 36 OFFCURVE",
"607 118 CURVE",
"515 197 LINE",
"482 145 OFFCURVE",
"430 118 OFFCURVE",
"360 118 CURVE SMOOTH",
"249 118 OFFCURVE",
"191 198 OFFCURVE",
"191 350 CURVE SMOOTH",
"191 503 OFFCURVE",
"250 582 OFFCURVE",
"363 582 CURVE SMOOTH",
"430 582 OFFCURVE",
"481 555 OFFCURVE",
"515 503 CURVE",
"607 582 LINE",
"567 664 OFFCURVE",
"478 710 OFFCURVE",
"361 710 CURVE SMOOTH",
"159 710 OFFCURVE",
"30 570 OFFCURVE",
"30 350 CURVE SMOOTH",
"30 130 OFFCURVE",
"159 -10 OFFCURVE",
"361 -10 CURVE SMOOTH"
);
}
);
width = 631;
},
{
anchors = (
{
name = bottom;
position = "{344, 0}";
},
{
name = top;
position = "{336, 700}";
}
);
layerId = "E6340435-1C2D-4187-91B6-2B8E20EF3542";
paths = (
{
closed = 1;
nodes = (
"439 -10 OFFCURVE",
"520 30 OFFCURVE",
"558 99 CURVE",
"506 150 LINE",
"470 93 OFFCURVE",
"416 66 OFFCURVE",
"336 66 CURVE SMOOTH",
"205 66 OFFCURVE",
"127 171 OFFCURVE",
"127 350 CURVE SMOOTH",
"127 530 OFFCURVE",
"206 634 OFFCURVE",
"341 634 CURVE SMOOTH",
"414 634 OFFCURVE",
"469 606 OFFCURVE",
"506 550 CURVE",
"558 601 LINE",
"520 669 OFFCURVE",
"438 710 OFFCURVE",
"340 710 CURVE SMOOTH",
"152 710 OFFCURVE",
"34 571 OFFCURVE",
"34 350 CURVE SMOOTH",
"34 129 OFFCURVE",
"151 -10 OFFCURVE",
"336 -10 CURVE SMOOTH"
);
}
);
width = 585;
},
{
anchors = (
{
name = bottom;
position = "{320, 0}";
},
{
name = top;
position = "{444, 700}";
}
);
layerId = "CAD36325-8B27-45AE-AB38-7E116081C841";
paths = (
{
closed = 1;
nodes = (
"449 -10 OFFCURVE",
"531 32 OFFCURVE",
"588 117 CURVE",
"506 197 LINE",
"463 144 OFFCURVE",
"408 118 OFFCURVE",
"340 118 CURVE SMOOTH",
"251 118 OFFCURVE",
"201 174 OFFCURVE",
"201 274 CURVE SMOOTH",
"201 456 OFFCURVE",
"291 582 OFFCURVE",
"422 582 CURVE SMOOTH",
"485 582 OFFCURVE",
"534 554 OFFCURVE",
"560 503 CURVE",
"666 582 LINE",
"637 660 OFFCURVE",
"542 710 OFFCURVE",
"421 710 CURVE SMOOTH",
"196 710 OFFCURVE",
"40 530 OFFCURVE",
"40 272 CURVE SMOOTH",
"40 98 OFFCURVE",
"155 -10 OFFCURVE",
"340 -10 CURVE SMOOTH"
);
}
);
width = 631;
},
{
anchors = (
{
name = bottom;
position = "{300, 0}";
},
{
name = top;
position = "{416, 700}";
}
);
layerId = "BC946E28-F4D1-4B1D-9CE5-1B4AE2F9B39A";
paths = (
{
closed = 1;
nodes = (
"397 -10 OFFCURVE",
"480 28 OFFCURVE",
"532 99 CURVE",
"489 150 LINE",
"442 93 OFFCURVE",
"383 66 OFFCURVE",
"304 66 CURVE SMOOTH",
"197 66 OFFCURVE",
"136 137 OFFCURVE",
"136 262 CURVE SMOOTH",
"136 475 OFFCURVE",
"253 634 OFFCURVE",
"409 634 CURVE SMOOTH",
"482 634 OFFCURVE",
"532 606 OFFCURVE",
"559 550 CURVE",
"620 601 LINE",
"594 668 OFFCURVE",
"515 710 OFFCURVE",
"415 710 CURVE SMOOTH",
"201 710 OFFCURVE",
"43 519 OFFCURVE",
"43 261 CURVE SMOOTH",
"43 95 OFFCURVE",
"141 -10 OFFCURVE",
"296 -10 CURVE SMOOTH"
);
}
);
width = 585;
},
{
anchors = (
{
name = bottom;
position = "{293, 0}";
},
{
name = top;
position = "{408, 700}";
}
);
layerId = "1781F524-7973-4932-8D2B-6055E077B411";
paths = (
{
closed = 1;
nodes = (
"373 -10 OFFCURVE",
"450 27 OFFCURVE",
"496 83 CURVE",
"482 113 LINE",
"440 58 OFFCURVE",
"366 25 OFFCURVE",
"288 25 CURVE SMOOTH",
"161 25 OFFCURVE",
"92 108 OFFCURVE",
"92 252 CURVE SMOOTH",
"92 496 OFFCURVE",
"226 675 OFFCURVE",
"409 675 CURVE SMOOTH",
"486 675 OFFCURVE",
"535 647 OFFCURVE",
"566 587 CURVE",
"590 617 LINE",
"560 675 OFFCURVE",
"483 710 OFFCURVE",
"402 710 CURVE SMOOTH",
"198 710 OFFCURVE",
"52 508 OFFCURVE",
"52 244 CURVE SMOOTH",
"52 83 OFFCURVE",
"142 -10 OFFCURVE",
"289 -10 CURVE SMOOTH"
);
}
);
width = 557;
}
);
leftKerningGroup = C;
note = C;
unicode = 0043;
},
{
glyphname = D;
lastChange = "2018-06-18 12:23:47 +0000";
layers = (
{
anchors = (
{
name = bottom;
position = "{284, 0}";
},
{
name = center;
position = "{309, 350}";
},
{
name = top;
position = "{305, 700}";
}
);
background = {
paths = (
{
closed = 1;
nodes = (
"592 470 OFFCURVE",
"564 554 OFFCURVE",
"507 617 CURVE SMOOTH",
"451 678 OFFCURVE",
"379 707 OFFCURVE",
"289 707 CURVE SMOOTH",
"241 707 OFFCURVE",
"170 701 OFFCURVE",
"80 689 CURVE",
"80 7 LINE",
"170 -1 OFFCURVE",
"230 -6 OFFCURVE",
"260 -6 CURVE SMOOTH",
"482 -6 OFFCURVE",
"592 118 OFFCURVE",
"592 365 CURVE SMOOTH"
);
},
{
closed = 1;
nodes = (
"535 163 OFFCURVE",
"436 44 OFFCURVE",
"277 44 CURVE SMOOTH",
"233 44 OFFCURVE",
"186 47 OFFCURVE",
"138 53 CURVE",
"138 645 LINE",
"205 653 OFFCURVE",
"254 657 OFFCURVE",
"285 657 CURVE SMOOTH",
"357 657 OFFCURVE",
"416 632 OFFCURVE",
"461 584 CURVE SMOOTH",
"510 531 OFFCURVE",
"535 457 OFFCURVE",
"535 365 CURVE SMOOTH"
);
}
);
};
layerId = "0B1DFD06-3317-40CA-B510-4969A0718C16";
paths = (
{
closed = 1;
nodes = (
"268 0 LINE SMOOTH",
"468 0 OFFCURVE",
"553 109 OFFCURVE",
"553 365 CURVE SMOOTH",
"553 604 OFFCURVE",
"480 700 OFFCURVE",
"297 700 CURVE SMOOTH",
"96 700 LINE",
"96 0 LINE"
);
},
{
closed = 1;
nodes = (
"134 665 LINE",
"298 665 LINE SMOOTH",
"456 665 OFFCURVE",
"516 583 OFFCURVE",
"516 365 CURVE SMOOTH",
"516 138 OFFCURVE",
"444 35 OFFCURVE",
"284 35 CURVE SMOOTH",
"134 35 LINE"
);
}
);
width = 607;
},
{
anchors = (
{
name = bottom;
position = "{313, 0}";
},
{
name = center;
position = "{324, 350}";
},
{
name = top;
position = "{324, 700}";
}
);
background = {
paths = (
{
closed = 1;
nodes = (
"591 470 OFFCURVE",
"563 554 OFFCURVE",
"506 617 CURVE SMOOTH",
"450 678 OFFCURVE",
"378 707 OFFCURVE",
"288 707 CURVE SMOOTH",
"240 707 OFFCURVE",
"169 701 OFFCURVE",
"79 689 CURVE",
"79 7 LINE",
"169 -1 OFFCURVE",
"229 -6 OFFCURVE",
"259 -6 CURVE SMOOTH",
"481 -6 OFFCURVE",
"591 118 OFFCURVE",
"591 365 CURVE SMOOTH"
);
},
{
closed = 1;
nodes = (
"534 163 OFFCURVE",
"435 44 OFFCURVE",
"276 44 CURVE SMOOTH",
"232 44 OFFCURVE",
"185 47 OFFCURVE",
"137 53 CURVE",
"137 645 LINE",
"204 653 OFFCURVE",
"253 657 OFFCURVE",
"284 657 CURVE SMOOTH",
"356 657 OFFCURVE",
"415 632 OFFCURVE",
"460 584 CURVE SMOOTH",
"509 531 OFFCURVE",
"534 457 OFFCURVE",
"534 365 CURVE SMOOTH"
);
}
);
};
layerId = "ECFE7DEB-F40D-44C7-B7CF-D3B40F3B51F8";
paths = (
{
closed = 1;
nodes = (
"296 0 LINE SMOOTH",
"523 0 OFFCURVE",
"614 104 OFFCURVE",
"614 363 CURVE SMOOTH",
"614 588 OFFCURVE",
"517 700 OFFCURVE",
"323 700 CURVE SMOOTH",
"64 700 LINE",
"64 0 LINE"
);
},
{
closed = 1;
nodes = (
"225 572 LINE",
"320 572 LINE SMOOTH",
"417 572 OFFCURVE",
"454 514 OFFCURVE",
"454 363 CURVE SMOOTH",
"454 191 OFFCURVE",
"416 128 OFFCURVE",
"311 128 CURVE SMOOTH",
"225 128 LINE"
);
}
);
width = 648;
},
{
anchors = (
{
name = bottom;
position = "{300, 0}";
},
{
name = center;
position = "{315, 350}";
},
{
name = top;
position = "{312, 700}";
}
);
layerId = "E6340435-1C2D-4187-91B6-2B8E20EF3542";
paths = (
{
closed = 1;
nodes = (
"275 0 LINE SMOOTH",
"491 0 OFFCURVE",
"579 106 OFFCURVE",
"579 364 CURVE SMOOTH",
"579 586 OFFCURVE",
"485 700 OFFCURVE",
"303 700 CURVE SMOOTH",
"81 700 LINE",
"81 0 LINE"
);
},
{
closed = 1;
nodes = (
"173 624 LINE",
"299 624 LINE SMOOTH",
"427 624 OFFCURVE",
"487 541 OFFCURVE",
"487 364 CURVE SMOOTH",
"487 164 OFFCURVE",
"427 76 OFFCURVE",
"291 76 CURVE SMOOTH",
"173 76 LINE"
);
}
);
width = 623;
},
{
anchors = (
{
name = bottom;
position = "{269, 0}";
},
{
name = center;
position = "{342, 350}";
},
{
name = top;
position = "{403, 700}";
}
);
background = {
paths = (
{
closed = 1;
nodes = (
"591 470 OFFCURVE",
"563 554 OFFCURVE",
"506 617 CURVE SMOOTH",
"450 678 OFFCURVE",
"378 707 OFFCURVE",
"288 707 CURVE SMOOTH",
"240 707 OFFCURVE",
"169 701 OFFCURVE",
"79 689 CURVE",
"79 7 LINE",
"169 -1 OFFCURVE",
"229 -6 OFFCURVE",
"259 -6 CURVE SMOOTH",
"481 -6 OFFCURVE",
"591 118 OFFCURVE",
"591 365 CURVE SMOOTH"
);
},
{
closed = 1;
nodes = (
"534 163 OFFCURVE",
"435 44 OFFCURVE",
"276 44 CURVE SMOOTH",
"232 44 OFFCURVE",
"185 47 OFFCURVE",
"137 53 CURVE",
"137 645 LINE",
"204 653 OFFCURVE",
"253 657 OFFCURVE",
"284 657 CURVE SMOOTH",
"356 657 OFFCURVE",
"415 632 OFFCURVE",
"460 584 CURVE SMOOTH",
"509 531 OFFCURVE",
"534 457 OFFCURVE",
"534 365 CURVE SMOOTH"
);
}
);
};
layerId = "CAD36325-8B27-45AE-AB38-7E116081C841";
paths = (
{
closed = 1;
nodes = (
"272 0 LINE SMOOTH",
"515 0 OFFCURVE",
"643 160 OFFCURVE",
"643 457 CURVE SMOOTH",
"643 614 OFFCURVE",
"552 700 OFFCURVE",
"387 700 CURVE SMOOTH",
"143 700 LINE",
"20 0 LINE"
);
},
{
closed = 1;
nodes = (
"282 572 LINE",
"377 572 LINE SMOOTH",
"451 572 OFFCURVE",
"482 530 OFFCURVE",
"482 441 CURVE SMOOTH",
"482 252 OFFCURVE",
"407 128 OFFCURVE",
"290 128 CURVE SMOOTH",
"204 128 LINE"
);
}
);
width = 648;
},
{
anchors = (
{
name = bottom;
position = "{256, 0}";
},
{
name = center;
position = "{333, 350}";
},
{
name = top;
position = "{391, 700}";
}
);
layerId = "BC946E28-F4D1-4B1D-9CE5-1B4AE2F9B39A";
paths = (
{
closed = 1;
nodes = (
"237 0 LINE SMOOTH",
"473 0 OFFCURVE",
"609 169 OFFCURVE",
"609 464 CURVE SMOOTH",
"609 620 OFFCURVE",
"534 700 OFFCURVE",
"388 700 CURVE SMOOTH",
"160 700 LINE",
"37 0 LINE"
);
},
{
closed = 1;
nodes = (
"239 624 LINE",
"365 624 LINE SMOOTH",
"467 624 OFFCURVE",
"517 571 OFFCURVE",
"517 460 CURVE SMOOTH",
"517 232 OFFCURVE",
"413 76 OFFCURVE",
"260 76 CURVE SMOOTH",
"142 76 LINE"
);
}
);
width = 623;
},
{
anchors = (
{
name = bottom;
position = "{240, 0}";
},
{
name = center;
position = "{327, 350}";
},
{
name = top;
position = "{384, 700}";
}
);
background = {
paths = (
{
closed = 1;
nodes = (
"592 470 OFFCURVE",
"564 554 OFFCURVE",
"507 617 CURVE SMOOTH",
"451 678 OFFCURVE",
"379 707 OFFCURVE",
"289 707 CURVE SMOOTH",
"241 707 OFFCURVE",
"170 701 OFFCURVE",
"80 689 CURVE",
"80 7 LINE",
"170 -1 OFFCURVE",
"230 -6 OFFCURVE",
"260 -6 CURVE SMOOTH",
"482 -6 OFFCURVE",
"592 118 OFFCURVE",
"592 365 CURVE SMOOTH"
);
},
{
closed = 1;
nodes = (
"535 163 OFFCURVE",
"436 44 OFFCURVE",
"277 44 CURVE SMOOTH",
"233 44 OFFCURVE",
"186 47 OFFCURVE",
"138 53 CURVE",
"138 645 LINE",
"205 653 OFFCURVE",
"254 657 OFFCURVE",
"285 657 CURVE SMOOTH",
"357 657 OFFCURVE",
"416 632 OFFCURVE",
"461 584 CURVE SMOOTH",
"510 531 OFFCURVE",
"535 457 OFFCURVE",
"535 365 CURVE SMOOTH"
);
}
);
};
layerId = "1781F524-7973-4932-8D2B-6055E077B411";
paths = (
{
closed = 1;
nodes = (
"234 0 LINE SMOOTH",
"459 0 OFFCURVE",
"587 189 OFFCURVE",
"587 496 CURVE SMOOTH",
"587 652 OFFCURVE",
"497 700 OFFCURVE",
"366 700 CURVE SMOOTH",
"175 700 LINE",
"52 0 LINE"
);
},
{
closed = 1;
nodes = (
"207 665 LINE",
"371 665 LINE SMOOTH",
"482 665 OFFCURVE",
"549 626 OFFCURVE",
"549 490 CURVE SMOOTH",
"549 217 OFFCURVE",
"428 35 OFFCURVE",
"246 35 CURVE SMOOTH",
"96 35 LINE"
);
}
);
width = 607;
}
);
note = D;
rightKerningGroup = D;
unicode = 0044;
},
{
glyphname = E;
lastChange = "2018-06-18 16:55:20 +0000";
layers = (
{
anchors = (
{
name = bottom;
position = "{289, 0}";
},
{
name = ogonek;
position = "{460, 0}";
},
{
name = top;
position = "{289, 700}";
}
);
background = {
paths = (
{
closed = 1;
nodes = (
"461 49 LINE",
"138 49 LINE",
"138 345 LINE",
"426 345 LINE",
"426 394 LINE",
"138 394 LINE",
"138 651 LINE",
"461 651 LINE",
"461 700 LINE",
"80 700 LINE",
"80 0 LINE",
"461 0 LINE"
);
}
);
};
layerId = "0B1DFD06-3317-40CA-B510-4969A0718C16";
paths = (
{
closed = 1;
nodes = (
"469 0 LINE",
"469 35 LINE",
"134 35 LINE",
"134 352 LINE",
"434 352 LINE",
"434 387 LINE",
"134 387 LINE",
"134 665 LINE",
"469 665 LINE",
"469 700 LINE",
"96 700 LINE",
"96 0 LINE"
);
}
);
width = 535;
},
{
anchors = (
{
name = bottom;
position = "{306, 0}";
},
{
name = ogonek;
position = "{489, 0}";
},
{
name = top;
position = "{306, 700}";
}
);
background = {
paths = (
{
closed = 1;
nodes = (
"465 49 LINE",
"142 49 LINE",
"142 345 LINE",
"430 345 LINE",
"430 394 LINE",
"142 394 LINE",
"142 651 LINE",
"465 651 LINE",
"465 700 LINE",
"84 700 LINE",
"84 0 LINE",
"465 0 LINE"
);
}
);
};
layerId = "ECFE7DEB-F40D-44C7-B7CF-D3B40F3B51F8";
paths = (
{
closed = 1;
nodes = (
"543 0 LINE",
"543 128 LINE",
"225 128 LINE",
"225 303 LINE",
"509 303 LINE",
"509 431 LINE",
"225 431 LINE",
"225 572 LINE",
"543 572 LINE",
"543 700 LINE",
"64 700 LINE",
"64 0 LINE"
);
}
);
width = 577;
},
{
anchors = (
{
name = bottom;
position = "{295, 0}";
},
{
name = ogonek;
position = "{471, 0}";
},
{
name = top;
position = "{295, 700}";
}
);
layerId = "E6340435-1C2D-4187-91B6-2B8E20EF3542";
paths = (
{
closed = 1;
nodes = (
"501 0 LINE",
"501 76 LINE",
"173 76 LINE",
"173 330 LINE",
"466 330 LINE",
"466 406 LINE",
"173 406 LINE",
"173 624 LINE",
"501 624 LINE",
"501 700 LINE",
"81 700 LINE",
"81 0 LINE"
);
}
);
width = 552;
},
{
anchors = (
{
name = bottom;
position = "{262, 0}";
},
{
name = ogonek;
position = "{445, 0}";
},
{
name = top;
position = "{385, 700}";
}
);
background = {
paths = (
{
closed = 1;
nodes = (
"465 49 LINE",
"142 49 LINE",
"142 345 LINE",
"430 345 LINE",
"430 394 LINE",
"142 394 LINE",
"142 651 LINE",
"465 651 LINE",
"465 700 LINE",
"84 700 LINE",
"84 0 LINE",
"465 0 LINE"
);
}
);
};
layerId = "CAD36325-8B27-45AE-AB38-7E116081C841";
paths = (
{
closed = 1;
nodes = (
"499 0 LINE",
"522 128 LINE",
"204 128 LINE",
"234 303 LINE",
"518 303 LINE",
"541 431 LINE",
"257 431 LINE",
"282 572 LINE",
"600 572 LINE",
"622 700 LINE",
"143 700 LINE",
"20 0 LINE"
);
}
);
width = 577;
},
{
anchors = (
{
name = bottom;
position = "{251, 0}";
},
{
name = ogonek;
position = "{427, 0}";
},
{
name = top;
position = "{374, 700}";
}
);
layerId = "BC946E28-F4D1-4B1D-9CE5-1B4AE2F9B39A";
paths = (
{
closed = 1;
nodes = (
"457 0 LINE",
"470 76 LINE",
"142 76 LINE",
"187 330 LINE",
"480 330 LINE",
"494 406 LINE",
"201 406 LINE",
"239 624 LINE",
"567 624 LINE",
"580 700 LINE",
"160 700 LINE",
"37 0 LINE"
);
}
);
width = 552;
},
{
anchors = (
{
name = bottom;
position = "{245, 0}";
},
{
name = ogonek;
position = "{416, 0}";
},
{
name = top;
position = "{368, 700}";
}
);
background = {
paths = (
{
closed = 1;
nodes = (
"461 49 LINE",
"138 49 LINE",
"138 345 LINE",
"426 345 LINE",
"426 394 LINE",
"138 394 LINE",
"138 651 LINE",
"461 651 LINE",
"461 700 LINE",
"80 700 LINE",
"80 0 LINE",
"461 0 LINE"
);
}
);
};
layerId = "1781F524-7973-4932-8D2B-6055E077B411";
paths = (
{
closed = 1;
nodes = (
"425 0 LINE",
"431 35 LINE",
"96 35 LINE",
"152 352 LINE",
"452 352 LINE",
"458 387 LINE",
"158 387 LINE",
"207 665 LINE",
"542 665 LINE",
"548 700 LINE",
"175 700 LINE",
"52 0 LINE"
);
}
);
width = 535;
}
);
note = E;
unicode = 0045;
},
{
glyphname = F;
lastChange = "2018-06-16 19:24:13 +0000";
layers = (
{
anchors = (
{
name = bottom;
position = "{114, 0}";
},
{
name = top;
position = "{286, 700}";
}
);
background = {
paths = (
{
closed = 1;
nodes = (
"454 385 LINE",
"138 385 LINE",
"138 651 LINE",
"476 651 LINE",
"476 700 LINE",
"80 700 LINE",
"80 0 LINE",
"138 0 LINE",
"138 337 LINE",
"454 337 LINE"
);
}
);
};
layerId = "0B1DFD06-3317-40CA-B510-4969A0718C16";
paths = (
{
closed = 1;
nodes = (
"134 0 LINE",
"134 322 LINE",
"452 322 LINE",
"452 357 LINE",
"134 357 LINE",
"134 665 LINE",
"474 665 LINE",
"474 700 LINE",
"96 700 LINE",
"96 0 LINE"
);
}
);
width = 528;
},
{
anchors = (
{
name = bottom;
position = "{148, 0}";
},
{
name = top;
position = "{316, 700}";
}
);
background = {
paths = (
{
closed = 1;
nodes = (
"458 385 LINE",
"142 385 LINE",
"142 651 LINE",
"480 651 LINE",
"480 700 LINE",
"84 700 LINE",
"84 0 LINE",
"142 0 LINE",
"142 337 LINE",
"458 337 LINE"
);
}
);
};
layerId = "ECFE7DEB-F40D-44C7-B7CF-D3B40F3B51F8";
paths = (
{
closed = 1;
nodes = (
"225 0 LINE",
"225 277 LINE",
"527 277 LINE",
"527 405 LINE",
"225 405 LINE",
"225 572 LINE",
"548 572 LINE",
"548 700 LINE",
"64 700 LINE",
"64 0 LINE"
);
}
);
width = 582;
},
{
anchors = (
{
name = bottom;
position = "{128, 0}";
},
{
name = top;
position = "{299, 700}";
}
);
layerId = "E6340435-1C2D-4187-91B6-2B8E20EF3542";
paths = (
{
closed = 1;
nodes = (
"173 0 LINE",
"173 302 LINE",
"484 302 LINE",
"484 378 LINE",
"173 378 LINE",
"173 624 LINE",
"506 624 LINE",
"506 700 LINE",
"81 700 LINE",
"81 0 LINE"
);
}
);
width = 550;
},
{
anchors = (
{
name = bottom;
position = "{104, 0}";
},
{
name = top;
position = "{395, 700}";
}
);
background = {
paths = (
{
closed = 1;
nodes = (
"458 385 LINE",
"142 385 LINE",
"142 651 LINE",
"480 651 LINE",
"480 700 LINE",
"84 700 LINE",
"84 0 LINE",
"142 0 LINE",
"142 337 LINE",
"458 337 LINE"
);
}
);
};
layerId = "CAD36325-8B27-45AE-AB38-7E116081C841";
paths = (
{
closed = 1;
nodes = (
"181 0 LINE",
"230 277 LINE",
"532 277 LINE",
"554 405 LINE",
"252 405 LINE",
"282 572 LINE",
"605 572 LINE",
"627 700 LINE",
"143 700 LINE",
"20 0 LINE"
);
}
);
width = 582;
},
{
anchors = (
{
name = bottom;
position = "{84, 0}";
},
{
name = top;
position = "{378, 700}";
}
);
layerId = "BC946E28-F4D1-4B1D-9CE5-1B4AE2F9B39A";
paths = (
{
closed = 1;
nodes = (
"129 0 LINE",
"182 302 LINE",
"493 302 LINE",
"507 378 LINE",
"196 378 LINE",
"239 624 LINE",
"572 624 LINE",
"585 700 LINE",
"160 700 LINE",
"37 0 LINE"
);
}
);
width = 550;
},
{
anchors = (
{
name = bottom;
position = "{70, 0}";
},
{
name = top;
position = "{365, 700}";
}
);
background = {
paths = (
{
closed = 1;
nodes = (
"454 385 LINE",
"138 385 LINE",
"138 651 LINE",
"476 651 LINE",
"476 700 LINE",
"80 700 LINE",
"80 0 LINE",
"138 0 LINE",
"138 337 LINE",
"454 337 LINE"
);
}
);
};
layerId = "1781F524-7973-4932-8D2B-6055E077B411";
paths = (
{
closed = 1;
nodes = (
"90 0 LINE",
"147 322 LINE",
"465 322 LINE",
"471 357 LINE",
"153 357 LINE",
"207 665 LINE",
"547 665 LINE",
"553 700 LINE",
"175 700 LINE",
"52 0 LINE"
);
}
);
width = 528;
}
);
note = F;
unicode = 0046;
},
{
glyphname = G;
lastChange = "2018-06-18 18:58:56 +0000";
layers = (
{
anchors = (
{
name = bottom;
position = "{337, 0}";
},
{
name = top;
position = "{337, 700}";
}
);
background = {
paths = (
{
closed = 1;
nodes = (
"325 350 LINE",
"325 303 LINE",
"503 303 LINE",
"503 76 LINE",
"452 51 OFFCURVE",
"396 40 OFFCURVE",
"334 40 CURVE SMOOTH",
"177 40 OFFCURVE",
"89 157 OFFCURVE",
"89 350 CURVE SMOOTH",
"89 440 OFFCURVE",
"114 515 OFFCURVE",
"162 572 CURVE SMOOTH",
"212 629 OFFCURVE",
"274 659 OFFCURVE",
"347 659 CURVE SMOOTH",
"405 659 OFFCURVE",
"462 647 OFFCURVE",
"521 625 CURVE",
"538 672 LINE",
"484 695 OFFCURVE",
"422 707 OFFCURVE",
"350 707 CURVE SMOOTH",
"250 707 OFFCURVE",
"171 673 OFFCURVE",
"114 604 CURVE SMOOTH",
"58 539 OFFCURVE",
"30 456 OFFCURVE",
"30 351 CURVE SMOOTH",
"30 243 OFFCURVE",
"56 156 OFFCURVE",
"111 90 CURVE SMOOTH",
"165 25 OFFCURVE",
"236 -7 OFFCURVE",
"325 -7 CURVE SMOOTH",
"344 -7 OFFCURVE",
"384 -3 OFFCURVE",
"441 7 CURVE SMOOTH",
"499 18 OFFCURVE",
"528 24 OFFCURVE",
"528 24 CURVE",
"541 24 OFFCURVE",
"552 21 OFFCURVE",
"559 15 CURVE",
"559 350 LINE"
);
}
);
};
layerId = "0B1DFD06-3317-40CA-B510-4969A0718C16";
paths = (
{
closed = 1;
nodes = (
"424 -10 OFFCURVE",
"502 25 OFFCURVE",
"544 85 CURVE",
"520 111 LINE",
"484 58 OFFCURVE",
"414 25 OFFCURVE",
"337 25 CURVE SMOOTH",
"178 25 OFFCURVE",
"83 146 OFFCURVE",
"83 350 CURVE SMOOTH",
"83 556 OFFCURVE",
"175 675 OFFCURVE",
"334 675 CURVE SMOOTH",
"416 675 OFFCURVE",
"483 644 OFFCURVE",
"520 589 CURVE",
"538 617 LINE",
"501 675 OFFCURVE",
"424 710 OFFCURVE",
"334 710 CURVE SMOOTH",
"155 710 OFFCURVE",
"44 572 OFFCURVE",
"44 350 CURVE SMOOTH",
"44 129 OFFCURVE",
"157 -10 OFFCURVE",
"335 -10 CURVE SMOOTH"
);
},
{
closed = 1;
nodes = (
"551 0 LINE",
"551 343 LINE",
"331 343 LINE",
"331 310 LINE",
"515 310 LINE",
"515 71 LINE",
"538 0 LINE"
);
}
);
width = 626;
},
{
anchors = (
{
name = bottom;
position = "{345, 0}";
},
{
name = top;
position = "{351, 700}";
}
);
background = {
paths = (
{
closed = 1;
nodes = (
"333 350 LINE",
"333 303 LINE",
"511 303 LINE",
"511 76 LINE",
"460 51 OFFCURVE",
"404 40 OFFCURVE",
"342 40 CURVE SMOOTH",
"185 40 OFFCURVE",
"97 157 OFFCURVE",
"97 350 CURVE SMOOTH",
"97 440 OFFCURVE",
"122 515 OFFCURVE",
"170 572 CURVE SMOOTH",
"220 629 OFFCURVE",
"282 659 OFFCURVE",
"355 659 CURVE SMOOTH",
"413 659 OFFCURVE",
"470 647 OFFCURVE",
"529 625 CURVE",
"546 672 LINE",
"492 695 OFFCURVE",
"430 707 OFFCURVE",
"358 707 CURVE SMOOTH",
"258 707 OFFCURVE",
"179 673 OFFCURVE",
"122 604 CURVE SMOOTH",
"66 539 OFFCURVE",
"38 456 OFFCURVE",
"38 351 CURVE SMOOTH",
"38 243 OFFCURVE",
"64 156 OFFCURVE",
"119 90 CURVE SMOOTH",
"173 25 OFFCURVE",
"244 -7 OFFCURVE",
"333 -7 CURVE SMOOTH",
"352 -7 OFFCURVE",
"392 -3 OFFCURVE",
"449 7 CURVE SMOOTH",
"507 18 OFFCURVE",
"536 24 OFFCURVE",
"536 24 CURVE",
"549 24 OFFCURVE",
"560 21 OFFCURVE",
"567 15 CURVE",
"567 350 LINE"
);
}
);
};
layerId = "ECFE7DEB-F40D-44C7-B7CF-D3B40F3B51F8";
paths = (
{
closed = 1;
nodes = (
"429 -10 OFFCURVE",
"518 46 OFFCURVE",
"556 138 CURVE",
"508 182 LINE",
"480 138 OFFCURVE",
"414 107 OFFCURVE",
"346 107 CURVE SMOOTH",
"243 107 OFFCURVE",
"191 189 OFFCURVE",
"191 350 CURVE SMOOTH",
"191 502 OFFCURVE",
"250 582 OFFCURVE",
"362 582 CURVE SMOOTH",
"428 582 OFFCURVE",
"482 554 OFFCURVE",
"514 503 CURVE",
"606 582 LINE",
"567 663 OFFCURVE",
"477 710 OFFCURVE",
"360 710 CURVE SMOOTH",
"159 710 OFFCURVE",
"30 570 OFFCURVE",
"30 350 CURVE SMOOTH",
"30 121 OFFCURVE",
"137 -10 OFFCURVE",
"323 -10 CURVE SMOOTH"
);
},
{
closed = 1;
nodes = (
"613 0 LINE",
"613 386 LINE",
"308 386 LINE",
"308 273 LINE",
"454 273 LINE",
"454 101 LINE",
"489 0 LINE"
);
}
);
width = 659;
},
{
anchors = (
{
name = bottom;
position = "{337, 0}";
},
{
name = top;
position = "{337, 700}";
}
);
layerId = "E6340435-1C2D-4187-91B6-2B8E20EF3542";
paths = (
{
closed = 1;
nodes = (
"427 -10 OFFCURVE",
"510 33 OFFCURVE",
"548 105 CURVE",
"511 145 LINE",
"477 92 OFFCURVE",
"413 62 OFFCURVE",
"334 62 CURVE SMOOTH",
"204 62 OFFCURVE",
"127 169 OFFCURVE",
"127 350 CURVE SMOOTH",
"127 528 OFFCURVE",
"206 634 OFFCURVE",
"339 634 CURVE SMOOTH",
"418 634 OFFCURVE",
"478 605 OFFCURVE",
"513 550 CURVE",
"564 601 LINE",
"527 669 OFFCURVE",
"442 710 OFFCURVE",
"338 710 CURVE SMOOTH",
"153 710 OFFCURVE",
"34 569 OFFCURVE",
"34 350 CURVE SMOOTH",
"34 127 OFFCURVE",
"145 -10 OFFCURVE",
"326 -10 CURVE SMOOTH"
);
},
{
closed = 1;
nodes = (
"575 0 LINE",
"575 362 LINE",
"317 362 LINE",
"317 294 LINE",
"484 294 LINE",
"484 84 LINE",
"513 0 LINE"
);
}
);
width = 636;
},
{
anchors = (
{
name = bottom;
position = "{301, 0}";
},
{
name = top;
position = "{431, 700}";
}
);
background = {
paths = (
{
closed = 1;
nodes = (
"333 350 LINE",
"333 303 LINE",
"511 303 LINE",
"511 76 LINE",
"460 51 OFFCURVE",
"404 40 OFFCURVE",
"342 40 CURVE SMOOTH",
"185 40 OFFCURVE",
"97 157 OFFCURVE",
"97 350 CURVE SMOOTH",
"97 440 OFFCURVE",
"122 515 OFFCURVE",
"170 572 CURVE SMOOTH",
"220 629 OFFCURVE",
"282 659 OFFCURVE",
"355 659 CURVE SMOOTH",
"413 659 OFFCURVE",
"470 647 OFFCURVE",
"529 625 CURVE",
"546 672 LINE",
"492 695 OFFCURVE",
"430 707 OFFCURVE",
"358 707 CURVE SMOOTH",
"258 707 OFFCURVE",
"179 673 OFFCURVE",
"122 604 CURVE SMOOTH",
"66 539 OFFCURVE",
"38 456 OFFCURVE",
"38 351 CURVE SMOOTH",
"38 243 OFFCURVE",
"64 156 OFFCURVE",
"119 90 CURVE SMOOTH",
"173 25 OFFCURVE",
"244 -7 OFFCURVE",
"333 -7 CURVE SMOOTH",
"352 -7 OFFCURVE",
"392 -3 OFFCURVE",
"449 7 CURVE SMOOTH",
"507 18 OFFCURVE",
"536 24 OFFCURVE",
"536 24 CURVE",
"549 24 OFFCURVE",
"560 21 OFFCURVE",
"567 15 CURVE",
"567 350 LINE"
);
}
);
};
layerId = "CAD36325-8B27-45AE-AB38-7E116081C841";
paths = (
{
closed = 1;
nodes = (
"398 -10 OFFCURVE",
"478 40 OFFCURVE",
"537 138 CURVE",
"496 182 LINE",
"461 138 OFFCURVE",
"388 107 OFFCURVE",
"321 107 CURVE SMOOTH",
"241 107 OFFCURVE",
"200 157 OFFCURVE",
"200 257 CURVE SMOOTH",
"200 450 OFFCURVE",
"290 582 OFFCURVE",
"421 582 CURVE SMOOTH",
"487 582 OFFCURVE",
"536 554 OFFCURVE",
"559 503 CURVE",
"665 582 LINE",
"640 656 OFFCURVE",
"544 710 OFFCURVE",
"420 710 CURVE SMOOTH",
"192 710 OFFCURVE",
"38 525 OFFCURVE",
"38 251 CURVE SMOOTH",
"38 92 OFFCURVE",
"139 -10 OFFCURVE",
"298 -10 CURVE SMOOTH"
);
},
{
closed = 1;
nodes = (
"569 0 LINE",
"637 386 LINE",
"332 386 LINE",
"312 273 LINE",
"458 273 LINE",
"428 101 LINE",
"445 0 LINE"
);
}
);
width = 659;
},
{
anchors = (
{
name = bottom;
position = "{293, 0}";
},
{
name = top;
position = "{416, 700}";
}
);
layerId = "BC946E28-F4D1-4B1D-9CE5-1B4AE2F9B39A";
paths = (
{
closed = 1;
nodes = (
"385 -10 OFFCURVE",
"470 31 OFFCURVE",
"522 105 CURVE",
"492 145 LINE",
"449 92 OFFCURVE",
"379 62 OFFCURVE",
"301 62 CURVE SMOOTH",
"195 62 OFFCURVE",
"136 133 OFFCURVE",
"136 259 CURVE SMOOTH",
"136 473 OFFCURVE",
"252 634 OFFCURVE",
"406 634 CURVE SMOOTH",
"485 634 OFFCURVE",
"540 605 OFFCURVE",
"566 550 CURVE",
"626 601 LINE",
"602 667 OFFCURVE",
"518 710 OFFCURVE",
"413 710 CURVE SMOOTH",
"200 710 OFFCURVE",
"42 517 OFFCURVE",
"42 256 CURVE SMOOTH",
"42 92 OFFCURVE",
"135 -10 OFFCURVE",
"286 -10 CURVE SMOOTH"
);
},
{
closed = 1;
nodes = (
"531 0 LINE",
"594 362 LINE",
"336 362 LINE",
"324 294 LINE",
"491 294 LINE",
"454 84 LINE",
"469 0 LINE"
);
}
);
width = 636;
},
{
anchors = (
{
name = bottom;
position = "{293, 0}";
},
{
name = top;
position = "{417, 700}";
}
);
background = {
paths = (
{
closed = 1;
nodes = (
"325 350 LINE",
"325 303 LINE",
"503 303 LINE",
"503 76 LINE",
"452 51 OFFCURVE",
"396 40 OFFCURVE",
"334 40 CURVE SMOOTH",
"177 40 OFFCURVE",
"89 157 OFFCURVE",
"89 350 CURVE SMOOTH",
"89 440 OFFCURVE",
"114 515 OFFCURVE",
"162 572 CURVE SMOOTH",
"212 629 OFFCURVE",
"274 659 OFFCURVE",
"347 659 CURVE SMOOTH",
"405 659 OFFCURVE",
"462 647 OFFCURVE",
"521 625 CURVE",
"538 672 LINE",
"484 695 OFFCURVE",
"422 707 OFFCURVE",
"350 707 CURVE SMOOTH",
"250 707 OFFCURVE",
"171 673 OFFCURVE",
"114 604 CURVE SMOOTH",
"58 539 OFFCURVE",
"30 456 OFFCURVE",
"30 351 CURVE SMOOTH",
"30 243 OFFCURVE",
"56 156 OFFCURVE",
"111 90 CURVE SMOOTH",
"165 25 OFFCURVE",
"236 -7 OFFCURVE",
"325 -7 CURVE SMOOTH",
"344 -7 OFFCURVE",
"384 -3 OFFCURVE",
"441 7 CURVE SMOOTH",
"499 18 OFFCURVE",
"528 24 OFFCURVE",
"528 24 CURVE",
"541 24 OFFCURVE",
"552 21 OFFCURVE",
"559 15 CURVE",
"559 350 LINE"
);
}
);
};
layerId = "1781F524-7973-4932-8D2B-6055E077B411";
paths = (
{
closed = 1;
nodes = (
"388 -10 OFFCURVE",
"463 25 OFFCURVE",
"515 85 CURVE",
"496 111 LINE",
"451 58 OFFCURVE",
"374 25 OFFCURVE",
"298 25 CURVE SMOOTH",
"166 25 OFFCURVE",
"92 109 OFFCURVE",
"92 255 CURVE SMOOTH",
"92 496 OFFCURVE",
"228 675 OFFCURVE",
"409 675 CURVE SMOOTH",
"491 675 OFFCURVE",
"553 644 OFFCURVE",
"580 589 CURVE",
"603 617 LINE",
"576 675 OFFCURVE",
"496 710 OFFCURVE",
"406 710 CURVE SMOOTH",
"201 710 OFFCURVE",
"53 511 OFFCURVE",
"53 252 CURVE SMOOTH",
"53 89 OFFCURVE",
"150 -10 OFFCURVE",
"300 -10 CURVE SMOOTH"
);
},
{
closed = 1;
nodes = (
"507 0 LINE",
"568 343 LINE",
"348 343 LINE",
"342 310 LINE",
"526 310 LINE",
"484 71 LINE",
"494 0 LINE"
);
}
);
width = 626;
}
);
leftKerningGroup = G;
note = G;
unicode = 0047;
},
{
glyphname = H;
lastChange = "2018-06-18 16:55:44 +0000";
layers = (
{
anchors = (
{
name = bottom;
position = "{333, 0}";
},
{
name = center;
position = "{333, 350}";
},
{
name = top;
position = "{333, 700}";
}
);
background = {
paths = (
{
closed = 1;
nodes = (
"570 700 LINE",
"513 700 LINE",
"513 397 LINE",
"138 397 LINE",
"138 700 LINE",
"80 700 LINE",
"80 0 LINE",
"138 0 LINE",
"138 348 LINE",
"513 348 LINE",
"513 0 LINE",
"570 0 LINE"
);
}
);
};
layerId = "0B1DFD06-3317-40CA-B510-4969A0718C16";
paths = (
{
closed = 1;
nodes = (
"133 0 LINE",
"133 334 LINE",
"533 334 LINE",
"533 0 LINE",
"571 0 LINE",
"571 700 LINE",
"533 700 LINE",
"533 369 LINE",
"133 369 LINE",
"133 700 LINE",
"95 700 LINE",
"95 0 LINE"
);
}
);
width = 666;
},
{
anchors = (
{
name = bottom;
position = "{349, 0}";
},
{
name = center;
position = "{349, 350}";
},
{
name = top;
position = "{349, 700}";
}
);
background = {
paths = (
{
closed = 1;
nodes = (
"569 700 LINE",
"512 700 LINE",
"512 397 LINE",
"137 397 LINE",
"137 700 LINE",
"79 700 LINE",
"79 0 LINE",
"137 0 LINE",
"137 348 LINE",
"512 348 LINE",
"512 0 LINE",
"569 0 LINE"
);
}
);
};
layerId = "ECFE7DEB-F40D-44C7-B7CF-D3B40F3B51F8";
paths = (
{
closed = 1;
nodes = (
"225 0 LINE",
"225 293 LINE",
"472 293 LINE",
"472 0 LINE",
"633 0 LINE",
"633 700 LINE",
"472 700 LINE",
"472 421 LINE",
"225 421 LINE",
"225 700 LINE",
"64 700 LINE",
"64 0 LINE"
);
}
);
width = 697;
},
{
anchors = (
{
name = bottom;
position = "{339, 0}";
},
{
name = center;
position = "{339, 350}";
},
{
name = top;
position = "{339, 700}";
}
);
layerId = "E6340435-1C2D-4187-91B6-2B8E20EF3542";
paths = (
{
closed = 1;
nodes = (
"172 0 LINE",
"172 316 LINE",
"506 316 LINE",
"506 0 LINE",
"598 0 LINE",
"598 700 LINE",
"506 700 LINE",
"506 392 LINE",
"172 392 LINE",
"172 700 LINE",
"80 700 LINE",
"80 0 LINE"
);
}
);
width = 678;
},
{
anchors = (
{
name = bottom;
position = "{305, 0}";
},
{
name = center;
position = "{367, 350}";
},
{
name = top;
position = "{428, 700}";
}
);
background = {
paths = (
{
closed = 1;
nodes = (
"569 700 LINE",
"512 700 LINE",
"512 397 LINE",
"137 397 LINE",
"137 700 LINE",
"79 700 LINE",
"79 0 LINE",
"137 0 LINE",
"137 348 LINE",
"512 348 LINE",
"512 0 LINE",
"569 0 LINE"
);
}
);
};
layerId = "CAD36325-8B27-45AE-AB38-7E116081C841";
paths = (
{
closed = 1;
nodes = (
"181 0 LINE",
"233 293 LINE",
"480 293 LINE",
"428 0 LINE",
"589 0 LINE",
"712 700 LINE",
"551 700 LINE",
"502 421 LINE",
"255 421 LINE",
"304 700 LINE",
"143 700 LINE",
"20 0 LINE"
);
}
);
width = 697;
},
{
anchors = (
{
name = bottom;
position = "{295, 0}";
},
{
name = center;
position = "{357, 350}";
},
{
name = top;
position = "{418, 700}";
}
);
layerId = "BC946E28-F4D1-4B1D-9CE5-1B4AE2F9B39A";
paths = (
{
closed = 1;
nodes = (
"128 0 LINE",
"184 316 LINE",
"518 316 LINE",
"462 0 LINE",
"554 0 LINE",
"677 700 LINE",
"585 700 LINE",
"531 392 LINE",
"197 392 LINE",
"251 700 LINE",
"159 700 LINE",
"36 0 LINE"
);
}
);
width = 678;
},
{
anchors = (
{
name = bottom;
position = "{289, 0}";
},
{
name = center;
position = "{351, 350}";
},
{
name = top;
position = "{412, 700}";
}
);
background = {
paths = (
{
closed = 1;
nodes = (
"570 700 LINE",
"513 700 LINE",
"513 397 LINE",
"138 397 LINE",
"138 700 LINE",
"80 700 LINE",
"80 0 LINE",
"138 0 LINE",
"138 348 LINE",
"513 348 LINE",
"513 0 LINE",
"570 0 LINE"
);
}
);
};
layerId = "1781F524-7973-4932-8D2B-6055E077B411";
paths = (
{
closed = 1;
nodes = (
"89 0 LINE",
"148 334 LINE",
"548 334 LINE",
"489 0 LINE",
"527 0 LINE",
"650 700 LINE",
"612 700 LINE",
"554 369 LINE",
"154 369 LINE",
"212 700 LINE",
"174 700 LINE",
"51 0 LINE"
);
}
);
width = 666;
}
);
note = H;
unicode = 0048;
},
{
glyphname = I;
lastChange = "2018-06-18 17:56:35 +0000";
layers = (
{
anchors = (
{
name = bottom;
position = "{134, 0}";
},
{
name = ogonek;
position = "{141, 0}";
},
{
name = top;
position = "{134, 700}";
}
);
background = {
paths = (
{
closed = 1;
nodes = (
"158 700 LINE",
"100 700 LINE",
"100 0 LINE",
"158 0 LINE"
);
}
);
};
layerId = "0B1DFD06-3317-40CA-B510-4969A0718C16";
paths = (
{
closed = 1;
nodes = (
"153 0 LINE",
"153 700 LINE",
"115 700 LINE",
"115 0 LINE"
);
}
);
width = 268;
},
{
anchors = (
{
name = bottom;
position = "{167, 0}";
},
{
name = ogonek;
position = "{175, 0}";
},
{
name = top;
position = "{167, 700}";
}
);
background = {
paths = (
{
closed = 1;
nodes = (
"172 700 LINE",
"114 700 LINE",
"114 0 LINE",
"172 0 LINE"
);
}
);
};
layerId = "ECFE7DEB-F40D-44C7-B7CF-D3B40F3B51F8";
paths = (
{
closed = 1;
nodes = (
"247 0 LINE",
"247 700 LINE",
"86 700 LINE",
"86 0 LINE"
);
}
);
width = 333;
},
{
anchors = (
{
name = bottom;
position = "{147, 0}";
},
{
name = ogonek;
position = "{145, 0}";
},
{
name = top;
position = "{147, 700}";
}
);
layerId = "E6340435-1C2D-4187-91B6-2B8E20EF3542";
paths = (
{
closed = 1;
nodes = (
"192 0 LINE",
"192 700 LINE",
"100 700 LINE",
"100 0 LINE"
);
}
);
width = 292;
},
{
anchors = (
{
name = bottom;
position = "{123, 0}";
},
{
name = ogonek;
position = "{131, 0}";
},
{
name = top;
position = "{246, 700}";
}
);
background = {
paths = (
{
closed = 1;
nodes = (
"172 700 LINE",
"114 700 LINE",
"114 0 LINE",
"172 0 LINE"
);
}
);
};
layerId = "CAD36325-8B27-45AE-AB38-7E116081C841";
paths = (
{
closed = 1;
nodes = (
"203 0 LINE",
"326 700 LINE",
"165 700 LINE",
"42 0 LINE"
);
}
);
width = 333;
},
{
anchors = (
{
name = bottom;
position = "{103, 0}";
},
{
name = ogonek;
position = "{101, 0}";
},
{
name = top;
position = "{226, 700}";
}
);
layerId = "BC946E28-F4D1-4B1D-9CE5-1B4AE2F9B39A";
paths = (
{
closed = 1;
nodes = (
"148 0 LINE",
"271 700 LINE",
"179 700 LINE",
"56 0 LINE"
);
}
);
width = 292;
},
{
anchors = (
{
name = bottom;
position = "{90, 0}";
},
{
name = ogonek;
position = "{97, 0}";
},
{
name = top;
position = "{213, 700}";
}
);
background = {
paths = (
{
closed = 1;
nodes = (
"158 700 LINE",
"100 700 LINE",
"100 0 LINE",
"158 0 LINE"
);
}
);
};
layerId = "1781F524-7973-4932-8D2B-6055E077B411";
paths = (
{
closed = 1;
nodes = (
"109 0 LINE",
"232 700 LINE",
"194 700 LINE",
"71 0 LINE"
);
}
);
width = 268;
}
);
note = I;
unicode = 0049;
},
{
glyphname = J;
lastChange = "2018-06-18 12:24:34 +0000";
layers = (
{
anchors = (
{
name = bottom;
position = "{119, 0}";
},
{
name = top;
position = "{191, 700}";
}
);
background = {
paths = (
{
closed = 1;
nodes = (
"309 700 LINE",
"251 700 LINE",
"251 244 LINE SMOOTH",
"251 87 OFFCURVE",
"204 37 OFFCURVE",
"103 37 CURVE SMOOTH",
"66 37 OFFCURVE",
"35 43 OFFCURVE",
"13 54 CURVE",
"-1 9 LINE",
"29 -6 OFFCURVE",
"65 -13 OFFCURVE",
"103 -13 CURVE SMOOTH",
"240 -13 OFFCURVE",
"309 68 OFFCURVE",
"309 229 CURVE SMOOTH"
);
}
);
};
layerId = "0B1DFD06-3317-40CA-B510-4969A0718C16";
paths = (
{
closed = 1;
nodes = (
"235 -10 OFFCURVE",
"294 69 OFFCURVE",
"294 222 CURVE SMOOTH",
"294 700 LINE",
"256 700 LINE",
"256 225 LINE SMOOTH",
"256 89 OFFCURVE",
"213 25 OFFCURVE",
"121 25 CURVE SMOOTH",
"86 25 OFFCURVE",
"53 35 OFFCURVE",
"23 54 CURVE",
"10 22 LINE",
"37 1 OFFCURVE",
"75 -10 OFFCURVE",
"119 -10 CURVE SMOOTH"
);
}
);
width = 390;
},
{
anchors = (
{
name = bottom;
position = "{211, 0}";
},
{
name = top;
position = "{280, 700}";
}
);
background = {
paths = (
{
closed = 1;
nodes = (
"377 700 LINE",
"319 700 LINE",
"319 244 LINE SMOOTH",
"319 87 OFFCURVE",
"272 37 OFFCURVE",
"171 37 CURVE SMOOTH",
"134 37 OFFCURVE",
"103 43 OFFCURVE",
"81 54 CURVE",
"67 9 LINE",
"97 -6 OFFCURVE",
"133 -13 OFFCURVE",
"171 -13 CURVE SMOOTH",
"308 -13 OFFCURVE",
"377 68 OFFCURVE",
"377 229 CURVE SMOOTH"
);
}
);
};
layerId = "ECFE7DEB-F40D-44C7-B7CF-D3B40F3B51F8";
paths = (
{
closed = 1;
nodes = (
"368 -10 OFFCURVE",
"446 67 OFFCURVE",
"446 225 CURVE SMOOTH",
"446 700 LINE",
"285 700 LINE",
"285 242 LINE SMOOTH",
"285 154 OFFCURVE",
"261 118 OFFCURVE",
"201 118 CURVE SMOOTH",
"155 118 OFFCURVE",
"109 138 OFFCURVE",
"69 176 CURVE",
"4 68 LINE",
"55 18 OFFCURVE",
"128 -10 OFFCURVE",
"210 -10 CURVE SMOOTH"
);
}
);
width = 509;
},
{
anchors = (
{
name = bottom;
position = "{159, 0}";
},
{
name = top;
position = "{229, 700}";
}
);
layerId = "E6340435-1C2D-4187-91B6-2B8E20EF3542";
paths = (
{
closed = 1;
nodes = (
"299 -10 OFFCURVE",
"360 62 OFFCURVE",
"360 223 CURVE SMOOTH",
"360 700 LINE",
"268 700 LINE",
"268 239 LINE SMOOTH",
"268 116 OFFCURVE",
"235 66 OFFCURVE",
"156 66 CURVE SMOOTH",
"115 66 OFFCURVE",
"69 83 OFFCURVE",
"42 108 CURVE",
"7 42 LINE",
"41 11 OFFCURVE",
"102 -10 OFFCURVE",
"159 -10 CURVE SMOOTH"
);
}
);
width = 440;
},
{
anchors = (
{
name = bottom;
position = "{167, 0}";
},
{
name = top;
position = "{359, 700}";
}
);
background = {
paths = (
{
closed = 1;
nodes = (
"377 700 LINE",
"319 700 LINE",
"319 244 LINE SMOOTH",
"319 87 OFFCURVE",
"272 37 OFFCURVE",
"171 37 CURVE SMOOTH",
"134 37 OFFCURVE",
"103 43 OFFCURVE",
"81 54 CURVE",
"67 9 LINE",
"97 -6 OFFCURVE",
"133 -13 OFFCURVE",
"171 -13 CURVE SMOOTH",
"308 -13 OFFCURVE",
"377 68 OFFCURVE",
"377 229 CURVE SMOOTH"
);
}
);
};
layerId = "CAD36325-8B27-45AE-AB38-7E116081C841";
paths = (
{
closed = 1;
nodes = (
"328 -10 OFFCURVE",
"414 64 OFFCURVE",
"442 225 CURVE SMOOTH",
"525 700 LINE",
"364 700 LINE",
"284 242 LINE SMOOTH",
"269 154 OFFCURVE",
"238 118 OFFCURVE",
"178 118 CURVE SMOOTH",
"132 118 OFFCURVE",
"88 139 OFFCURVE",
"56 176 CURVE",
"-26 75 LINE",
"16 22 OFFCURVE",
"91 -10 OFFCURVE",
"173 -10 CURVE SMOOTH"
);
}
);
width = 509;
},
{
anchors = (
{
name = bottom;
position = "{115, 0}";
},
{
name = top;
position = "{308, 700}";
}
);
layerId = "BC946E28-F4D1-4B1D-9CE5-1B4AE2F9B39A";
paths = (
{
closed = 1;
nodes = (
"257 -10 OFFCURVE",
"326 59 OFFCURVE",
"355 223 CURVE SMOOTH",
"439 700 LINE",
"347 700 LINE",
"266 239 LINE SMOOTH",
"244 117 OFFCURVE",
"202 66 OFFCURVE",
"123 66 CURVE SMOOTH",
"82 66 OFFCURVE",
"39 83 OFFCURVE",
"17 108 CURVE",
"-30 42 LINE",
"-1 11 OFFCURVE",
"60 -10 OFFCURVE",
"119 -10 CURVE SMOOTH"
);
}
);
width = 440;
},
{
anchors = (
{
name = bottom;
position = "{75, 0}";
},
{
name = top;
position = "{271, 700}";
}
);
background = {
paths = (
{
closed = 1;
nodes = (
"309 700 LINE",
"251 700 LINE",
"251 244 LINE SMOOTH",
"251 87 OFFCURVE",
"204 37 OFFCURVE",
"103 37 CURVE SMOOTH",
"66 37 OFFCURVE",
"35 43 OFFCURVE",
"13 54 CURVE",
"-1 9 LINE",
"29 -6 OFFCURVE",
"65 -13 OFFCURVE",
"103 -13 CURVE SMOOTH",
"240 -13 OFFCURVE",
"309 68 OFFCURVE",
"309 229 CURVE SMOOTH"
);
}
);
};
layerId = "1781F524-7973-4932-8D2B-6055E077B411";
paths = (
{
closed = 1;
nodes = (
"194 -10 OFFCURVE",
"262 69 OFFCURVE",
"289 222 CURVE SMOOTH",
"374 700 LINE",
"336 700 LINE",
"252 225 LINE SMOOTH",
"231 107 OFFCURVE",
"185 25 OFFCURVE",
"82 25 CURVE SMOOTH",
"47 25 OFFCURVE",
"15 35 OFFCURVE",
"-11 54 CURVE",
"-30 22 LINE",
"-7 1 OFFCURVE",
"34 -10 OFFCURVE",
"78 -10 CURVE SMOOTH"
);
}
);
width = 390;
}
);
note = J;
unicode = 004A;
},
{
glyphname = K;
lastChange = "2018-06-18 12:25:33 +0000";
layers = (
{
anchors = (
{
name = bottom;
position = "{279, 0}";
},
{
name = top;
position = "{279, 700}";
}
);
background = {
paths = (
{
closed = 1;
nodes = (
"252 401 LINE",
"543 692 LINE",
"486 709 LINE",
"138 363 LINE",
"138 700 LINE",
"80 700 LINE",
"80 0 LINE",
"138 0 LINE",
"138 290 LINE",
"213 365 LINE",
"523 -7 LINE",
"574 13 LINE"
);
}
);
};
layerId = "0B1DFD06-3317-40CA-B510-4969A0718C16";
paths = (
{
closed = 1;
nodes = (
"134 0 LINE",
"134 263 LINE",
"517 700 LINE",
"475 700 LINE",
"134 311 LINE",
"134 700 LINE",
"96 700 LINE",
"96 0 LINE"
);
},
{
closed = 1;
nodes = (
"545 0 LINE",
"264 423 LINE",
"240 398 LINE",
"506 0 LINE"
);
}
);
width = 555;
},
{
anchors = (
{
name = bottom;
position = "{341, 0}";
},
{
name = top;
position = "{341, 700}";
}
);
background = {
paths = (
{
closed = 1;
nodes = (
"248 401 LINE",
"539 692 LINE",
"482 709 LINE",
"134 363 LINE",
"134 700 LINE",
"76 700 LINE",
"76 0 LINE",
"134 0 LINE",
"134 290 LINE",
"209 365 LINE",
"519 -7 LINE",
"570 13 LINE"
);
}
);
};
layerId = "ECFE7DEB-F40D-44C7-B7CF-D3B40F3B51F8";
paths = (
{
closed = 1;
nodes = (
"225 0 LINE",
"225 197 LINE",
"628 700 LINE",
"439 700 LINE",
"225 404 LINE",
"225 700 LINE",
"64 700 LINE",
"64 0 LINE"
);
},
{
closed = 1;
nodes = (
"661 0 LINE",
"406 447 LINE",
"302 313 LINE",
"482 0 LINE"
);
}
);
width = 673;
},
{
anchors = (
{
name = bottom;
position = "{304, 0}";
},
{
name = top;
position = "{304, 700}";
}
);
layerId = "E6340435-1C2D-4187-91B6-2B8E20EF3542";
paths = (
{
closed = 1;
nodes = (
"172 0 LINE",
"172 229 LINE",
"564 700 LINE",
"457 700 LINE",
"172 353 LINE",
"172 700 LINE",
"80 700 LINE",
"80 0 LINE"
);
},
{
closed = 1;
nodes = (
"595 0 LINE",
"325 434 LINE",
"264 362 LINE",
"495 0 LINE"
);
}
);
width = 605;
},
{
anchors = (
{
name = bottom;
position = "{297, 0}";
},
{
name = top;
position = "{420, 700}";
}
);
background = {
paths = (
{
closed = 1;
nodes = (
"248 401 LINE",
"539 692 LINE",
"482 709 LINE",
"134 363 LINE",
"134 700 LINE",
"76 700 LINE",
"76 0 LINE",
"134 0 LINE",
"134 290 LINE",
"209 365 LINE",
"519 -7 LINE",
"570 13 LINE"
);
}
);
};
layerId = "CAD36325-8B27-45AE-AB38-7E116081C841";
paths = (
{
closed = 1;
nodes = (
"181 0 LINE",
"216 197 LINE",
"708 700 LINE",
"519 700 LINE",
"253 409 LINE",
"305 700 LINE",
"144 700 LINE",
"20 0 LINE"
);
},
{
closed = 1;
nodes = (
"610 0 LINE",
"434 441 LINE",
"313 313 LINE",
"438 0 LINE"
);
}
);
width = 673;
},
{
anchors = (
{
name = bottom;
position = "{260, 0}";
},
{
name = top;
position = "{383, 700}";
}
);
layerId = "BC946E28-F4D1-4B1D-9CE5-1B4AE2F9B39A";
paths = (
{
closed = 1;
nodes = (
"128 0 LINE",
"168 229 LINE",
"643 700 LINE",
"534 700 LINE",
"191 356 LINE",
"251 700 LINE",
"159 700 LINE",
"36 0 LINE"
);
},
{
closed = 1;
nodes = (
"543 0 LINE",
"350 428 LINE",
"284 362 LINE",
"451 0 LINE"
);
}
);
width = 605;
},
{
anchors = (
{
name = bottom;
position = "{235, 0}";
},
{
name = top;
position = "{358, 700}";
}
);
background = {
paths = (
{
closed = 1;
nodes = (
"252 401 LINE",
"543 692 LINE",
"486 709 LINE",
"138 363 LINE",
"138 700 LINE",
"80 700 LINE",
"80 0 LINE",
"138 0 LINE",
"138 290 LINE",
"213 365 LINE",
"523 -7 LINE",
"574 13 LINE"
);
}
);
};
layerId = "1781F524-7973-4932-8D2B-6055E077B411";
paths = (
{
closed = 1;
nodes = (
"90 0 LINE",
"136 263 LINE",
"596 700 LINE",
"549 700 LINE",
"145 314 LINE",
"213 700 LINE",
"175 700 LINE",
"52 0 LINE"
);
},
{
closed = 1;
nodes = (
"498 0 LINE",
"292 423 LINE",
"266 398 LINE",
"462 0 LINE"
);
}
);
width = 555;
}
);
note = K;
unicode = 004B;
},
{
glyphname = L;
lastChange = "2018-06-17 11:07:53 +0000";
layers = (
{
anchors = (
{
name = bottom;
position = "{290, 0}";
},
{
name = center;
position = "{306, 350}";
},
{
name = top;
position = "{114, 700}";
},
{
name = topright;
position = "{503, 700}";
}
);
background = {
paths = (
{
closed = 1;
nodes = (
"482 49 LINE",
"138 49 LINE",
"138 700 LINE",
"80 700 LINE",
"80 0 LINE",
"482 0 LINE"
);
}
);
};
layerId = "0B1DFD06-3317-40CA-B510-4969A0718C16";
paths = (
{
closed = 1;
nodes = (
"480 0 LINE",
"480 35 LINE",
"134 35 LINE",
"134 700 LINE",
"96 700 LINE",
"96 0 LINE"
);
}
);
width = 515;
},
{
anchors = (
{
name = bottom;
position = "{301, 0}";
},
{
name = center;
position = "{375, 350}";
},
{
name = top;
position = "{146, 700}";
},
{
name = topright;
position = "{548, 700}";
}
);
background = {
paths = (
{
closed = 1;
nodes = (
"484 49 LINE",
"140 49 LINE",
"140 700 LINE",
"82 700 LINE",
"82 0 LINE",
"484 0 LINE"
);
}
);
};
layerId = "ECFE7DEB-F40D-44C7-B7CF-D3B40F3B51F8";
paths = (
{
closed = 1;
nodes = (
"552 0 LINE",
"552 128 LINE",
"225 128 LINE",
"225 700 LINE",
"64 700 LINE",
"64 0 LINE"
);
}
);
width = 570;
},
{
anchors = (
{
name = bottom;
position = "{293, 0}";
},
{
name = center;
position = "{335, 350}";
},
{
name = top;
position = "{126, 700}";
},
{
name = topright;
position = "{521, 700}";
}
);
layerId = "E6340435-1C2D-4187-91B6-2B8E20EF3542";
paths = (
{
closed = 1;
nodes = (
"510 0 LINE",
"510 76 LINE",
"172 76 LINE",
"172 700 LINE",
"80 700 LINE",
"80 0 LINE"
);
}
);
width = 548;
},
{
anchors = (
{
name = bottom;
position = "{257, 0}";
},
{
name = center;
position = "{393, 350}";
},
{
name = top;
position = "{225, 700}";
},
{
name = topright;
position = "{627, 700}";
}
);
background = {
paths = (
{
closed = 1;
nodes = (
"484 49 LINE",
"140 49 LINE",
"140 700 LINE",
"82 700 LINE",
"82 0 LINE",
"484 0 LINE"
);
}
);
};
layerId = "CAD36325-8B27-45AE-AB38-7E116081C841";
paths = (
{
closed = 1;
nodes = (
"508 0 LINE",
"531 128 LINE",
"204 128 LINE",
"304 700 LINE",
"143 700 LINE",
"20 0 LINE"
);
}
);
width = 570;
},
{
anchors = (
{
name = bottom;
position = "{249, 0}";
},
{
name = center;
position = "{353, 350}";
},
{
name = top;
position = "{205, 700}";
},
{
name = topright;
position = "{600, 700}";
}
);
layerId = "BC946E28-F4D1-4B1D-9CE5-1B4AE2F9B39A";
paths = (
{
closed = 1;
nodes = (
"466 0 LINE",
"479 76 LINE",
"141 76 LINE",
"251 700 LINE",
"159 700 LINE",
"36 0 LINE"
);
}
);
width = 548;
},
{
anchors = (
{
name = bottom;
position = "{246, 0}";
},
{
name = center;
position = "{324, 350}";
},
{
name = top;
position = "{193, 700}";
},
{
name = topright;
position = "{582, 700}";
}
);
background = {
paths = (
{
closed = 1;
nodes = (
"482 49 LINE",
"138 49 LINE",
"138 700 LINE",
"80 700 LINE",
"80 0 LINE",
"482 0 LINE"
);
}
);
};
layerId = "1781F524-7973-4932-8D2B-6055E077B411";
paths = (
{
closed = 1;
nodes = (
"436 0 LINE",
"442 35 LINE",
"96 35 LINE",
"213 700 LINE",
"175 700 LINE",
"52 0 LINE"
);
}
);
width = 515;
}
);
note = L;
rightKerningGroup = L;
unicode = 004C;
},
{
glyphname = M;
lastChange = "2018-06-18 12:28:07 +0000";
layers = (
{
anchors = (
{
name = bottom;
position = "{392, 0}";
},
{
name = top;
position = "{392, 700}";
}
);
background = {
paths = (
{
closed = 1;
nodes = (
"723 700 LINE",
"656 700 LINE",
"428 72 LINE",
"200 700 LINE",
"132 700 LINE",
"84 0 LINE",
"138 0 LINE",
"182 617 LINE",
"409 0 LINE",
"447 0 LINE",
"673 617 LINE",
"717 0 LINE",
"772 0 LINE"
);
}
);
};
layerId = "0B1DFD06-3317-40CA-B510-4969A0718C16";
paths = (
{
closed = 1;
nodes = (
"132 0 LINE",
"132 673 LINE",
"129 673 LINE",
"380 0 LINE",
"402 0 LINE",
"653 673 LINE",
"652 673 LINE",
"652 0 LINE",
"688 0 LINE",
"688 700 LINE",
"626 700 LINE",
"391 58 LINE",
"156 700 LINE",
"96 700 LINE",
"96 0 LINE"
);
}
);
width = 784;
},
{
anchors = (
{
name = bottom;
position = "{411, 0}";
},
{
name = top;
position = "{411, 700}";
}
);
background = {
paths = (
{
closed = 1;
nodes = (
"716 700 LINE",
"649 700 LINE",
"421 72 LINE",
"193 700 LINE",
"125 700 LINE",
"77 0 LINE",
"131 0 LINE",
"175 617 LINE",
"402 0 LINE",
"440 0 LINE",
"666 617 LINE",
"710 0 LINE",
"765 0 LINE"
);
}
);
};
layerId = "ECFE7DEB-F40D-44C7-B7CF-D3B40F3B51F8";
paths = (
{
closed = 1;
nodes = (
"223 0 LINE",
"223 590 LINE",
"145 590 LINE",
"354 0 LINE",
"468 0 LINE",
"677 590 LINE",
"599 590 LINE",
"599 0 LINE",
"758 0 LINE",
"758 700 LINE",
"592 700 LINE",
"411 173 LINE",
"230 700 LINE",
"64 700 LINE",
"64 0 LINE"
);
}
);
width = 822;
},
{
anchors = (
{
name = bottom;
position = "{399, 0}";
},
{
name = top;
position = "{399, 700}";
}
);
layerId = "E6340435-1C2D-4187-91B6-2B8E20EF3542";
paths = (
{
closed = 1;
nodes = (
"171 0 LINE",
"171 636 LINE",
"132 636 LINE",
"367 0 LINE",
"431 0 LINE",
"666 636 LINE",
"627 636 LINE",
"627 0 LINE",
"717 0 LINE",
"717 700 LINE",
"611 700 LINE",
"399 116 LINE",
"187 700 LINE",
"81 700 LINE",
"81 0 LINE"
);
}
);
width = 798;
},
{
anchors = (
{
name = bottom;
position = "{367, 0}";
},
{
name = top;
position = "{490, 700}";
}
);
background = {
paths = (
{
closed = 1;
nodes = (
"716 700 LINE",
"649 700 LINE",
"421 72 LINE",
"193 700 LINE",
"125 700 LINE",
"77 0 LINE",
"131 0 LINE",
"175 617 LINE",
"402 0 LINE",
"440 0 LINE",
"666 617 LINE",
"710 0 LINE",
"765 0 LINE"
);
}
);
};
layerId = "CAD36325-8B27-45AE-AB38-7E116081C841";
paths = (
{
closed = 1;
nodes = (
"179 0 LINE",
"283 590 LINE",
"203 590 LINE",
"308 0 LINE",
"422 0 LINE",
"734 590 LINE",
"658 590 LINE",
"554 0 LINE",
"713 0 LINE",
"837 700 LINE",
"664 700 LINE",
"391 173 LINE",
"303 700 LINE",
"144 700 LINE",
"20 0 LINE"
);
}
);
width = 822;
},
{
anchors = (
{
name = bottom;
position = "{355, 0}";
},
{
name = top;
position = "{478, 700}";
}
);
layerId = "BC946E28-F4D1-4B1D-9CE5-1B4AE2F9B39A";
paths = (
{
closed = 1;
nodes = (
"127 0 LINE",
"239 636 LINE",
"200 636 LINE",
"323 0 LINE",
"387 0 LINE",
"734 636 LINE",
"695 636 LINE",
"583 0 LINE",
"673 0 LINE",
"796 700 LINE",
"688 700 LINE",
"373 116 LINE",
"264 700 LINE",
"160 700 LINE",
"37 0 LINE"
);
}
);
width = 798;
},
{
anchors = (
{
name = bottom;
position = "{348, 0}";
},
{
name = top;
position = "{471, 700}";
}
);
background = {
paths = (
{
closed = 1;
nodes = (
"723 700 LINE",
"656 700 LINE",
"428 72 LINE",
"200 700 LINE",
"132 700 LINE",
"84 0 LINE",
"138 0 LINE",
"182 617 LINE",
"409 0 LINE",
"447 0 LINE",
"673 617 LINE",
"717 0 LINE",
"772 0 LINE"
);
}
);
};
layerId = "1781F524-7973-4932-8D2B-6055E077B411";
paths = (
{
closed = 1;
nodes = (
"88 0 LINE",
"207 673 LINE",
"204 673 LINE",
"336 0 LINE",
"358 0 LINE",
"728 673 LINE",
"727 673 LINE",
"608 0 LINE",
"644 0 LINE",
"767 700 LINE",
"707 700 LINE",
"356 53 LINE",
"233 700 LINE",
"175 700 LINE",
"52 0 LINE"
);
}
);
width = 784;
}
);
note = M;
unicode = 004D;
},
{
glyphname = N;
lastChange = "2018-06-18 12:28:18 +0000";
layers = (
{
anchors = (
{
name = bottom;
position = "{333, 0}";
},
{
name = top;
position = "{333, 700}";
}
);
background = {
paths = (
{
closed = 1;
nodes = (
"570 700 LINE",
"514 700 LINE",
"514 90 LINE",
"147 700 LINE",
"80 700 LINE",
"80 0 LINE",
"139 0 LINE",
"139 619 LINE",
"510 0 LINE",
"570 0 LINE"
);
}
);
};
layerId = "0B1DFD06-3317-40CA-B510-4969A0718C16";
paths = (
{
closed = 1;
nodes = (
"132 0 LINE",
"132 675 LINE",
"122 675 LINE",
"526 0 LINE",
"570 0 LINE",
"570 700 LINE",
"534 700 LINE",
"534 34 LINE",
"543 34 LINE",
"146 700 LINE",
"96 700 LINE",
"96 0 LINE"
);
}
);
width = 666;
},
{
anchors = (
{
name = bottom;
position = "{352, 0}";
},
{
name = top;
position = "{352, 700}";
}
);
background = {
paths = (
{
closed = 1;
nodes = (
"570 700 LINE",
"514 700 LINE",
"514 90 LINE",
"147 700 LINE",
"80 700 LINE",
"80 0 LINE",
"139 0 LINE",
"139 619 LINE",
"510 0 LINE",
"570 0 LINE"
);
}
);
};
layerId = "ECFE7DEB-F40D-44C7-B7CF-D3B40F3B51F8";
paths = (
{
closed = 1;
nodes = (
"224 0 LINE",
"224 572 LINE",
"134 572 LINE",
"494 0 LINE",
"640 0 LINE",
"640 700 LINE",
"480 700 LINE",
"480 135 LINE",
"570 135 LINE",
"217 700 LINE",
"64 700 LINE",
"64 0 LINE"
);
}
);
width = 704;
},
{
anchors = (
{
name = bottom;
position = "{341, 0}";
},
{
name = top;
position = "{341, 700}";
}
);
layerId = "E6340435-1C2D-4187-91B6-2B8E20EF3542";
paths = (
{
closed = 1;
nodes = (
"172 0 LINE",
"172 629 LINE",
"126 629 LINE",
"511 0 LINE",
"602 0 LINE",
"602 700 LINE",
"510 700 LINE",
"510 79 LINE",
"555 79 LINE",
"177 700 LINE",
"80 700 LINE",
"80 0 LINE"
);
}
);
width = 682;
},
{
anchors = (
{
name = bottom;
position = "{308, 0}";
},
{
name = top;
position = "{431, 700}";
}
);
background = {
paths = (
{
closed = 1;
nodes = (
"570 700 LINE",
"514 700 LINE",
"514 90 LINE",
"147 700 LINE",
"80 700 LINE",
"80 0 LINE",
"139 0 LINE",
"139 619 LINE",
"510 0 LINE",
"570 0 LINE"
);
}
);
};
layerId = "CAD36325-8B27-45AE-AB38-7E116081C841";
paths = (
{
closed = 1;
nodes = (
"180 0 LINE",
"281 572 LINE",
"196 572 LINE",
"450 0 LINE",
"596 0 LINE",
"719 700 LINE",
"559 700 LINE",
"460 135 LINE",
"545 135 LINE",
"296 700 LINE",
"143 700 LINE",
"20 0 LINE"
);
}
);
width = 704;
},
{
anchors = (
{
name = bottom;
position = "{297, 0}";
},
{
name = top;
position = "{420, 700}";
}
);
layerId = "BC946E28-F4D1-4B1D-9CE5-1B4AE2F9B39A";
paths = (
{
closed = 1;
nodes = (
"128 0 LINE",
"239 629 LINE",
"195 629 LINE",
"467 0 LINE",
"558 0 LINE",
"681 700 LINE",
"589 700 LINE",
"480 79 LINE",
"523 79 LINE",
"256 700 LINE",
"159 700 LINE",
"36 0 LINE"
);
}
);
width = 682;
},
{
anchors = (
{
name = bottom;
position = "{289, 0}";
},
{
name = top;
position = "{412, 700}";
}
);
background = {
paths = (
{
closed = 1;
nodes = (
"570 700 LINE",
"514 700 LINE",
"514 90 LINE",
"147 700 LINE",
"80 700 LINE",
"80 0 LINE",
"139 0 LINE",
"139 619 LINE",
"510 0 LINE",
"570 0 LINE"
);
}
);
};
layerId = "1781F524-7973-4932-8D2B-6055E077B411";
paths = (
{
closed = 1;
nodes = (
"88 0 LINE",
"207 675 LINE",
"197 675 LINE",
"482 0 LINE",
"526 0 LINE",
"649 700 LINE",
"613 700 LINE",
"496 34 LINE",
"505 34 LINE",
"225 700 LINE",
"175 700 LINE",
"52 0 LINE"
);
}
);
width = 666;
}
);
note = N;
unicode = 004E;
},
{
glyphname = O;
lastChange = "2018-06-18 18:54:19 +0000";
layers = (
{
anchors = (
{
name = bottom;
position = "{322, 0}";
},
{
name = center;
position = "{322, 350}";
},
{
name = ogonek;
position = "{342, 0}";
},
{
name = top;
position = "{322, 700}";
},
{
name = topright;
position = "{556, 517}";
}
);
background = {
paths = (
{
closed = 1;
nodes = (
"650 548 OFFCURVE",
"528 711 OFFCURVE",
"325 711 CURVE SMOOTH",
"123 711 OFFCURVE",
"0 552 OFFCURVE",
"0 348 CURVE SMOOTH",
"0 147 OFFCURVE",
"123 -15 OFFCURVE",
"325 -15 CURVE SMOOTH",
"525 -15 OFFCURVE",
"650 147 OFFCURVE",
"650 348 CURVE SMOOTH"
);
},
{
closed = 1;
nodes = (
"593 183 OFFCURVE",
"491 35 OFFCURVE",
"325 35 CURVE SMOOTH",
"161 35 OFFCURVE",
"58 181 OFFCURVE",
"58 348 CURVE SMOOTH",
"58 514 OFFCURVE",
"163 662 OFFCURVE",
"325 662 CURVE SMOOTH",
"488 662 OFFCURVE",
"593 515 OFFCURVE",
"593 348 CURVE SMOOTH"
);
}
);
};
layerId = "0B1DFD06-3317-40CA-B510-4969A0718C16";
paths = (
{
closed = 1;
nodes = (
"490 -10 OFFCURVE",
"600 132 OFFCURVE",
"600 350 CURVE SMOOTH",
"600 568 OFFCURVE",
"490 710 OFFCURVE",
"322 710 CURVE SMOOTH",
"154 710 OFFCURVE",
"44 568 OFFCURVE",
"44 350 CURVE SMOOTH",
"44 132 OFFCURVE",
"153 -10 OFFCURVE",
"322 -10 CURVE SMOOTH"
);
},
{
closed = 1;
nodes = (
"175 24 OFFCURVE",
"82 150 OFFCURVE",
"82 350 CURVE SMOOTH",
"82 550 OFFCURVE",
"175 676 OFFCURVE",
"322 676 CURVE SMOOTH",
"469 676 OFFCURVE",
"562 550 OFFCURVE",
"562 350 CURVE SMOOTH",
"562 150 OFFCURVE",
"469 24 OFFCURVE",
"322 24 CURVE SMOOTH"
);
}
);
width = 644;
},
{
anchors = (
{
name = bottom;
position = "{350, 0}";
},
{
name = center;
position = "{350, 350}";
},
{
name = ogonek;
position = "{370, 0}";
},
{
name = top;
position = "{350, 700}";
},
{
name = topright;
position = "{610, 444}";
}
);
background = {
paths = (
{
closed = 1;
nodes = (
"661 548 OFFCURVE",
"539 711 OFFCURVE",
"336 711 CURVE SMOOTH",
"134 711 OFFCURVE",
"11 552 OFFCURVE",
"11 348 CURVE SMOOTH",
"11 147 OFFCURVE",
"134 -15 OFFCURVE",
"336 -15 CURVE SMOOTH",
"536 -15 OFFCURVE",
"661 147 OFFCURVE",
"661 348 CURVE SMOOTH"
);
},
{
closed = 1;
nodes = (
"604 183 OFFCURVE",
"502 35 OFFCURVE",
"336 35 CURVE SMOOTH",
"172 35 OFFCURVE",
"69 181 OFFCURVE",
"69 348 CURVE SMOOTH",
"69 514 OFFCURVE",
"174 662 OFFCURVE",
"336 662 CURVE SMOOTH",
"499 662 OFFCURVE",
"604 515 OFFCURVE",
"604 348 CURVE SMOOTH"
);
}
);
};
layerId = "ECFE7DEB-F40D-44C7-B7CF-D3B40F3B51F8";
paths = (
{
closed = 1;
nodes = (
"551 -10 OFFCURVE",
"670 124 OFFCURVE",
"670 350 CURVE SMOOTH",
"670 576 OFFCURVE",
"551 710 OFFCURVE",
"350 710 CURVE SMOOTH",
"149 710 OFFCURVE",
"30 576 OFFCURVE",
"30 350 CURVE SMOOTH",
"30 124 OFFCURVE",
"149 -10 OFFCURVE",
"350 -10 CURVE SMOOTH"
);
},
{
closed = 1;
nodes = (
"251 117 OFFCURVE",
"191 204 OFFCURVE",
"191 350 CURVE SMOOTH",
"191 496 OFFCURVE",
"251 583 OFFCURVE",
"350 583 CURVE SMOOTH",
"449 583 OFFCURVE",
"509 496 OFFCURVE",
"509 350 CURVE SMOOTH",
"509 204 OFFCURVE",
"449 117 OFFCURVE",
"350 117 CURVE SMOOTH"
);
}
);
width = 700;
},
{
anchors = (
{
name = bottom;
position = "{331, 0}";
},
{
name = center;
position = "{331, 350}";
},
{
name = ogonek;
position = "{353, 0}";
},
{
name = top;
position = "{331, 700}";
},
{
name = topright;
position = "{575, 485}";
}
);
layerId = "E6340435-1C2D-4187-91B6-2B8E20EF3542";
paths = (
{
closed = 1;
nodes = (
"514 -10 OFFCURVE",
"627 128 OFFCURVE",
"627 350 CURVE SMOOTH",
"627 572 OFFCURVE",
"514 710 OFFCURVE",
"331 710 CURVE SMOOTH",
"148 710 OFFCURVE",
"34 572 OFFCURVE",
"34 350 CURVE SMOOTH",
"34 128 OFFCURVE",
"148 -10 OFFCURVE",
"331 -10 CURVE SMOOTH"
);
},
{
closed = 1;
nodes = (
"205 64 OFFCURVE",
"126 174 OFFCURVE",
"126 350 CURVE SMOOTH",
"126 526 OFFCURVE",
"205 636 OFFCURVE",
"331 636 CURVE SMOOTH",
"457 636 OFFCURVE",
"535 526 OFFCURVE",
"535 350 CURVE SMOOTH",
"535 174 OFFCURVE",
"457 64 OFFCURVE",
"331 64 CURVE SMOOTH"
);
}
);
width = 661;
},
{
anchors = (
{
name = bottom;
position = "{350, 0}";
},
{
name = center;
position = "{412, 350}";
},
{
name = ogonek;
position = "{370, 0}";
},
{
name = top;
position = "{415, 700}";
},
{
name = topright;
position = "{641, 444}";
}
);
background = {
paths = (
{
closed = 1;
nodes = (
"661 548 OFFCURVE",
"539 711 OFFCURVE",
"336 711 CURVE SMOOTH",
"134 711 OFFCURVE",
"11 552 OFFCURVE",
"11 348 CURVE SMOOTH",
"11 147 OFFCURVE",
"134 -15 OFFCURVE",
"336 -15 CURVE SMOOTH",
"536 -15 OFFCURVE",
"661 147 OFFCURVE",
"661 348 CURVE SMOOTH"
);
},
{
closed = 1;
nodes = (
"604 183 OFFCURVE",
"502 35 OFFCURVE",
"336 35 CURVE SMOOTH",
"172 35 OFFCURVE",
"69 181 OFFCURVE",
"69 348 CURVE SMOOTH",
"69 514 OFFCURVE",
"174 662 OFFCURVE",
"336 662 CURVE SMOOTH",
"499 662 OFFCURVE",
"604 515 OFFCURVE",
"604 348 CURVE SMOOTH"
);
}
);
};
layerId = "CAD36325-8B27-45AE-AB38-7E116081C841";
paths = (
{
closed = 1;
nodes = (
"542 -10 OFFCURVE",
"697 172 OFFCURVE",
"697 434 CURVE SMOOTH",
"697 597 OFFCURVE",
"581 710 OFFCURVE",
"415 710 CURVE SMOOTH",
"193 710 OFFCURVE",
"39 528 OFFCURVE",
"39 266 CURVE SMOOTH",
"39 103 OFFCURVE",
"154 -10 OFFCURVE",
"320 -10 CURVE SMOOTH"
);
},
{
closed = 1;
nodes = (
"257 117 OFFCURVE",
"202 186 OFFCURVE",
"202 279 CURVE SMOOTH",
"202 461 OFFCURVE",
"283 583 OFFCURVE",
"405 583 CURVE SMOOTH",
"479 583 OFFCURVE",
"534 515 OFFCURVE",
"534 422 CURVE SMOOTH",
"534 239 OFFCURVE",
"453 117 OFFCURVE",
"331 117 CURVE SMOOTH"
);
}
);
width = 700;
},
{
anchors = (
{
name = bottom;
position = "{287, 0}";
},
{
name = center;
position = "{349, 350}";
},
{
name = ogonek;
position = "{309, 0}";
},
{
name = top;
position = "{411, 700}";
},
{
name = topright;
position = "{617, 485}";
}
);
layerId = "BC946E28-F4D1-4B1D-9CE5-1B4AE2F9B39A";
paths = (
{
closed = 1;
nodes = (
"500 -10 OFFCURVE",
"654 182 OFFCURVE",
"654 442 CURVE SMOOTH",
"654 607 OFFCURVE",
"559 710 OFFCURVE",
"407 710 CURVE SMOOTH",
"197 710 OFFCURVE",
"43 519 OFFCURVE",
"43 259 CURVE SMOOTH",
"43 93 OFFCURVE",
"139 -10 OFFCURVE",
"292 -10 CURVE SMOOTH"
);
},
{
closed = 1;
nodes = (
"196 64 OFFCURVE",
"136 138 OFFCURVE",
"136 264 CURVE SMOOTH",
"136 470 OFFCURVE",
"253 636 OFFCURVE",
"399 636 CURVE SMOOTH",
"501 636 OFFCURVE",
"561 563 OFFCURVE",
"561 437 CURVE SMOOTH",
"561 230 OFFCURVE",
"445 64 OFFCURVE",
"299 64 CURVE SMOOTH"
);
}
);
width = 661;
},
{
anchors = (
{
name = bottom;
position = "{278, 0}";
},
{
name = center;
position = "{340, 350}";
},
{
name = ogonek;
position = "{298, 0}";
},
{
name = top;
position = "{402, 700}";
},
{
name = topright;
position = "{604, 517}";
}
);
background = {
paths = (
{
closed = 1;
nodes = (
"650 548 OFFCURVE",
"528 711 OFFCURVE",
"325 711 CURVE SMOOTH",
"123 711 OFFCURVE",
"0 552 OFFCURVE",
"0 348 CURVE SMOOTH",
"0 147 OFFCURVE",
"123 -15 OFFCURVE",
"325 -15 CURVE SMOOTH",
"525 -15 OFFCURVE",
"650 147 OFFCURVE",
"650 348 CURVE SMOOTH"
);
},
{
closed = 1;
nodes = (
"593 183 OFFCURVE",
"491 35 OFFCURVE",
"325 35 CURVE SMOOTH",
"161 35 OFFCURVE",
"58 181 OFFCURVE",
"58 348 CURVE SMOOTH",
"58 514 OFFCURVE",
"163 662 OFFCURVE",
"325 662 CURVE SMOOTH",
"488 662 OFFCURVE",
"593 515 OFFCURVE",
"593 348 CURVE SMOOTH"
);
}
);
};
layerId = "1781F524-7973-4932-8D2B-6055E077B411";
paths = (
{
closed = 1;
nodes = (
"476 -10 OFFCURVE",
"627 195 OFFCURVE",
"627 448 CURVE SMOOTH",
"627 609 OFFCURVE",
"539 710 OFFCURVE",
"398 710 CURVE SMOOTH",
"204 710 OFFCURVE",
"53 505 OFFCURVE",
"53 251 CURVE SMOOTH",
"53 90 OFFCURVE",
"140 -10 OFFCURVE",
"282 -10 CURVE SMOOTH"
);
},
{
closed = 1;
nodes = (
"161 24 OFFCURVE",
"91 111 OFFCURVE",
"91 254 CURVE SMOOTH",
"91 488 OFFCURVE",
"227 676 OFFCURVE",
"398 676 CURVE SMOOTH",
"520 676 OFFCURVE",
"589 588 OFFCURVE",
"589 446 CURVE SMOOTH",
"589 211 OFFCURVE",
"453 24 OFFCURVE",
"283 24 CURVE SMOOTH"
);
}
);
width = 644;
}
);
leftKerningGroup = O;
note = O;
rightKerningGroup = O;
unicode = 004F;
},
{
glyphname = P;
lastChange = "2018-06-18 12:30:20 +0000";
layers = (
{
anchors = (
{
name = bottom;
position = "{279, 0}";
},
{
name = top;
position = "{279, 700}";
}
);
background = {
paths = (
{
closed = 1;
nodes = (
"508 570 OFFCURVE",
"482 622 OFFCURVE",
"427 659 CURVE SMOOTH",
"379 691 OFFCURVE",
"320 707 OFFCURVE",
"249 707 CURVE SMOOTH",
"195 707 OFFCURVE",
"139 703 OFFCURVE",
"80 692 CURVE",
"80 0 LINE",
"138 0 LINE",
"138 294 LINE",
"167 288 OFFCURVE",
"198 285 OFFCURVE",
"229 285 CURVE SMOOTH",
"305 284 OFFCURVE",
"369 301 OFFCURVE",
"420 335 CURVE SMOOTH",
"479 375 OFFCURVE",
"508 432 OFFCURVE",
"508 506 CURVE SMOOTH"
);
},
{
closed = 1;
nodes = (
"454 397 OFFCURVE",
"383 341 OFFCURVE",
"241 334 CURVE",
"198 334 OFFCURVE",
"164 337 OFFCURVE",
"138 344 CURVE",
"138 650 LINE",
"163 654 OFFCURVE",
"199 657 OFFCURVE",
"248 657 CURVE SMOOTH",
"385 657 OFFCURVE",
"454 606 OFFCURVE",
"454 501 CURVE SMOOTH"
);
}
);
};
layerId = "0B1DFD06-3317-40CA-B510-4969A0718C16";
paths = (
{
closed = 1;
nodes = (
"134 0 LINE",
"134 283 LINE",
"269 283 LINE SMOOTH",
"410 283 OFFCURVE",
"491 363 OFFCURVE",
"491 500 CURVE SMOOTH",
"491 631 OFFCURVE",
"416 700 OFFCURVE",
"274 700 CURVE SMOOTH",
"96 700 LINE",
"96 0 LINE"
);
},
{
closed = 1;
nodes = (
"134 665 LINE",
"273 665 LINE SMOOTH",
"393 665 OFFCURVE",
"453 610 OFFCURVE",
"453 500 CURVE SMOOTH",
"453 385 OFFCURVE",
"390 318 OFFCURVE",
"281 318 CURVE SMOOTH",
"134 318 LINE"
);
}
);
width = 557;
},
{
anchors = (
{
name = bottom;
position = "{303, 0}";
},
{
name = top;
position = "{303, 700}";
}
);
background = {
paths = (
{
closed = 1;
nodes = (
"510 570 OFFCURVE",
"484 622 OFFCURVE",
"429 659 CURVE SMOOTH",
"381 691 OFFCURVE",
"322 707 OFFCURVE",
"251 707 CURVE SMOOTH",
"197 707 OFFCURVE",
"141 703 OFFCURVE",
"82 692 CURVE",
"82 0 LINE",
"140 0 LINE",
"140 294 LINE",
"169 288 OFFCURVE",
"200 285 OFFCURVE",
"231 285 CURVE SMOOTH",
"307 284 OFFCURVE",
"371 301 OFFCURVE",
"422 335 CURVE SMOOTH",
"481 375 OFFCURVE",
"510 432 OFFCURVE",
"510 506 CURVE SMOOTH"
);
},
{
closed = 1;
nodes = (
"456 397 OFFCURVE",
"385 341 OFFCURVE",
"243 334 CURVE",
"200 334 OFFCURVE",
"166 337 OFFCURVE",
"140 344 CURVE",
"140 650 LINE",
"165 654 OFFCURVE",
"201 657 OFFCURVE",
"250 657 CURVE SMOOTH",
"387 657 OFFCURVE",
"456 606 OFFCURVE",
"456 501 CURVE SMOOTH"
);
}
);
};
layerId = "ECFE7DEB-F40D-44C7-B7CF-D3B40F3B51F8";
paths = (
{
closed = 1;
nodes = (
"225 0 LINE",
"225 233 LINE",
"301 233 LINE SMOOTH",
"473 233 OFFCURVE",
"563 315 OFFCURVE",
"563 473 CURVE SMOOTH",
"563 622 OFFCURVE",
"474 700 OFFCURVE",
"306 700 CURVE SMOOTH",
"64 700 LINE",
"64 0 LINE"
);
},
{
closed = 1;
nodes = (
"225 572 LINE",
"305 572 LINE SMOOTH",
"371 572 OFFCURVE",
"406 537 OFFCURVE",
"406 469 CURVE SMOOTH",
"406 398 OFFCURVE",
"374 360 OFFCURVE",
"312 360 CURVE SMOOTH",
"225 360 LINE"
);
}
);
width = 596;
},
{
anchors = (
{
name = bottom;
position = "{288, 0}";
},
{
name = top;
position = "{288, 700}";
}
);
layerId = "E6340435-1C2D-4187-91B6-2B8E20EF3542";
paths = (
{
closed = 1;
nodes = (
"173 0 LINE",
"173 261 LINE",
"282 261 LINE SMOOTH",
"437 261 OFFCURVE",
"522 341 OFFCURVE",
"522 488 CURVE SMOOTH",
"522 627 OFFCURVE",
"441 700 OFFCURVE",
"287 700 CURVE SMOOTH",
"81 700 LINE",
"81 0 LINE"
);
},
{
closed = 1;
nodes = (
"173 624 LINE",
"286 624 LINE SMOOTH",
"382 624 OFFCURVE",
"434 575 OFFCURVE",
"434 483 CURVE SMOOTH",
"434 390 OFFCURVE",
"384 337 OFFCURVE",
"294 337 CURVE SMOOTH",
"173 337 LINE"
);
}
);
width = 573;
},
{
anchors = (
{
name = bottom;
position = "{259, 0}";
},
{
name = top;
position = "{382, 700}";
}
);
background = {
paths = (
{
closed = 1;
nodes = (
"510 570 OFFCURVE",
"484 622 OFFCURVE",
"429 659 CURVE SMOOTH",
"381 691 OFFCURVE",
"322 707 OFFCURVE",
"251 707 CURVE SMOOTH",
"197 707 OFFCURVE",
"141 703 OFFCURVE",
"82 692 CURVE",
"82 0 LINE",
"140 0 LINE",
"140 294 LINE",
"169 288 OFFCURVE",
"200 285 OFFCURVE",
"231 285 CURVE SMOOTH",
"307 284 OFFCURVE",
"371 301 OFFCURVE",
"422 335 CURVE SMOOTH",
"481 375 OFFCURVE",
"510 432 OFFCURVE",
"510 506 CURVE SMOOTH"
);
},
{
closed = 1;
nodes = (
"456 397 OFFCURVE",
"385 341 OFFCURVE",
"243 334 CURVE",
"200 334 OFFCURVE",
"166 337 OFFCURVE",
"140 344 CURVE",
"140 650 LINE",
"165 654 OFFCURVE",
"201 657 OFFCURVE",
"250 657 CURVE SMOOTH",
"387 657 OFFCURVE",
"456 606 OFFCURVE",
"456 501 CURVE SMOOTH"
);
}
);
};
layerId = "CAD36325-8B27-45AE-AB38-7E116081C841";
paths = (
{
closed = 1;
nodes = (
"181 0 LINE",
"222 233 LINE",
"308 233 LINE SMOOTH",
"497 233 OFFCURVE",
"608 340 OFFCURVE",
"608 522 CURVE SMOOTH",
"608 634 OFFCURVE",
"522 700 OFFCURVE",
"375 700 CURVE SMOOTH",
"143 700 LINE",
"20 0 LINE"
);
},
{
closed = 1;
nodes = (
"282 572 LINE",
"362 572 LINE SMOOTH",
"418 572 OFFCURVE",
"447 546 OFFCURVE",
"447 497 CURVE SMOOTH",
"447 416 OFFCURVE",
"400 360 OFFCURVE",
"331 360 CURVE SMOOTH",
"244 360 LINE"
);
}
);
width = 596;
},
{
anchors = (
{
name = bottom;
position = "{244, 0}";
},
{
name = top;
position = "{367, 700}";
}
);
layerId = "BC946E28-F4D1-4B1D-9CE5-1B4AE2F9B39A";
paths = (
{
closed = 1;
nodes = (
"129 0 LINE",
"175 261 LINE",
"290 261 LINE SMOOTH",
"462 261 OFFCURVE",
"569 366 OFFCURVE",
"569 534 CURVE SMOOTH",
"569 640 OFFCURVE",
"493 700 OFFCURVE",
"360 700 CURVE SMOOTH",
"160 700 LINE",
"37 0 LINE"
);
},
{
closed = 1;
nodes = (
"239 624 LINE",
"352 624 LINE SMOOTH",
"435 624 OFFCURVE",
"478 587 OFFCURVE",
"478 518 CURVE SMOOTH",
"478 411 OFFCURVE",
"409 337 OFFCURVE",
"309 337 CURVE SMOOTH",
"188 337 LINE"
);
}
);
width = 573;
},
{
anchors = (
{
name = bottom;
position = "{235, 0}";
},
{
name = top;
position = "{358, 700}";
}
);
background = {
paths = (
{
closed = 1;
nodes = (
"508 570 OFFCURVE",
"482 622 OFFCURVE",
"427 659 CURVE SMOOTH",
"379 691 OFFCURVE",
"320 707 OFFCURVE",
"249 707 CURVE SMOOTH",
"195 707 OFFCURVE",
"139 703 OFFCURVE",
"80 692 CURVE",
"80 0 LINE",
"138 0 LINE",
"138 294 LINE",
"167 288 OFFCURVE",
"198 285 OFFCURVE",
"229 285 CURVE SMOOTH",
"305 284 OFFCURVE",
"369 301 OFFCURVE",
"420 335 CURVE SMOOTH",
"479 375 OFFCURVE",
"508 432 OFFCURVE",
"508 506 CURVE SMOOTH"
);
},
{
closed = 1;
nodes = (
"454 397 OFFCURVE",
"383 341 OFFCURVE",
"241 334 CURVE",
"198 334 OFFCURVE",
"164 337 OFFCURVE",
"138 344 CURVE",
"138 650 LINE",
"163 654 OFFCURVE",
"199 657 OFFCURVE",
"248 657 CURVE SMOOTH",
"385 657 OFFCURVE",
"454 606 OFFCURVE",
"454 501 CURVE SMOOTH"
);
}
);
};
layerId = "1781F524-7973-4932-8D2B-6055E077B411";
paths = (
{
closed = 1;
nodes = (
"90 0 LINE",
"140 283 LINE",
"285 283 LINE SMOOTH",
"441 283 OFFCURVE",
"540 392 OFFCURVE",
"540 550 CURVE SMOOTH",
"540 648 OFFCURVE",
"466 700 OFFCURVE",
"343 700 CURVE SMOOTH",
"175 700 LINE",
"52 0 LINE"
);
},
{
closed = 1;
nodes = (
"207 665 LINE",
"346 665 LINE SMOOTH",
"451 665 OFFCURVE",
"501 623 OFFCURVE",
"501 539 CURVE SMOOTH",
"501 412 OFFCURVE",
"413 318 OFFCURVE",
"293 318 CURVE SMOOTH",
"146 318 LINE"
);
}
);
width = 557;
}
);
leftKerningGroup = P;
note = P;
unicode = 0050;
},
{
glyphname = Q;
lastChange = "2018-06-18 18:54:26 +0000";
layers = (
{
anchors = (
{
name = bottom;
position = "{301, 0}";
},
{
name = top;
position = "{301, 700}";
}
);
background = {
paths = (
{
closed = 1;
nodes = (
"662 453 OFFCURVE",
"631 539 OFFCURVE",
"571 609 CURVE SMOOTH",
"511 678 OFFCURVE",
"433 711 OFFCURVE",
"337 711 CURVE SMOOTH",
"242 711 OFFCURVE",
"162 678 OFFCURVE",
"102 609 CURVE SMOOTH",
"42 539 OFFCURVE",
"12 453 OFFCURVE",
"12 348 CURVE SMOOTH",
"12 244 OFFCURVE",
"42 157 OFFCURVE",
"102 88 CURVE SMOOTH",
"162 19 OFFCURVE",
"242 -15 OFFCURVE",
"337 -15 CURVE",
"418 -49 OFFCURVE",
"506 -76 OFFCURVE",
"603 -98 CURVE",
"624 -44 LINE",
"549 -40 OFFCURVE",
"481 -26 OFFCURVE",
"424 -1 CURVE",
"499 18 OFFCURVE",
"558 60 OFFCURVE",
"600 126 CURVE SMOOTH",
"642 190 OFFCURVE",
"662 265 OFFCURVE",
"662 348 CURVE SMOOTH"
);
},
{
closed = 1;
nodes = (
"605 262 OFFCURVE",
"580 188 OFFCURVE",
"530 126 CURVE SMOOTH",
"480 66 OFFCURVE",
"415 35 OFFCURVE",
"337 35 CURVE SMOOTH",
"259 35 OFFCURVE",
"195 66 OFFCURVE",
"145 126 CURVE SMOOTH",
"95 188 OFFCURVE",
"70 262 OFFCURVE",
"70 348 CURVE SMOOTH",
"70 435 OFFCURVE",
"95 509 OFFCURVE",
"145 569 CURVE SMOOTH",
"195 631 OFFCURVE",
"259 662 OFFCURVE",
"337 662 CURVE SMOOTH",
"415 662 OFFCURVE",
"480 631 OFFCURVE",
"530 569 CURVE SMOOTH",
"580 509 OFFCURVE",
"605 435 OFFCURVE",
"605 348 CURVE SMOOTH"
);
}
);
};
components = (
{
name = O;
}
);
layerId = "0B1DFD06-3317-40CA-B510-4969A0718C16";
paths = (
{
closed = 1;
nodes = (
"563 -61 LINE",
"475 -43 OFFCURVE",
"416 -21 OFFCURVE",
"363 5 CURVE",
"297 -4 LINE",
"378 -40 OFFCURVE",
"454 -69 OFFCURVE",
"556 -91 CURVE"
);
}
);
width = 644;
},
{
anchors = (
{
name = bottom;
position = "{321, 0}";
},
{
name = top;
position = "{321, 700}";
}
);
background = {
paths = (
{
closed = 1;
nodes = (
"665 453 OFFCURVE",
"634 539 OFFCURVE",
"574 609 CURVE SMOOTH",
"514 678 OFFCURVE",
"436 711 OFFCURVE",
"340 711 CURVE SMOOTH",
"245 711 OFFCURVE",
"165 678 OFFCURVE",
"105 609 CURVE SMOOTH",
"45 539 OFFCURVE",
"15 453 OFFCURVE",
"15 348 CURVE SMOOTH",
"15 244 OFFCURVE",
"45 157 OFFCURVE",
"105 88 CURVE SMOOTH",
"165 19 OFFCURVE",
"245 -15 OFFCURVE",
"340 -15 CURVE",
"421 -49 OFFCURVE",
"509 -76 OFFCURVE",
"606 -98 CURVE",
"627 -44 LINE",
"552 -40 OFFCURVE",
"484 -26 OFFCURVE",
"427 -1 CURVE",
"502 18 OFFCURVE",
"561 60 OFFCURVE",
"603 126 CURVE SMOOTH",
"645 190 OFFCURVE",
"665 265 OFFCURVE",
"665 348 CURVE SMOOTH"
);
},
{
closed = 1;
nodes = (
"608 262 OFFCURVE",
"583 188 OFFCURVE",
"533 126 CURVE SMOOTH",
"483 66 OFFCURVE",
"418 35 OFFCURVE",
"340 35 CURVE SMOOTH",
"262 35 OFFCURVE",
"198 66 OFFCURVE",
"148 126 CURVE SMOOTH",
"98 188 OFFCURVE",
"73 262 OFFCURVE",
"73 348 CURVE SMOOTH",
"73 435 OFFCURVE",
"98 509 OFFCURVE",
"148 569 CURVE SMOOTH",
"198 631 OFFCURVE",
"262 662 OFFCURVE",
"340 662 CURVE SMOOTH",
"418 662 OFFCURVE",
"483 631 OFFCURVE",
"533 569 CURVE SMOOTH",
"583 509 OFFCURVE",
"608 435 OFFCURVE",
"608 348 CURVE SMOOTH"
);
}
);
};
components = (
{
name = O;
}
);
layerId = "ECFE7DEB-F40D-44C7-B7CF-D3B40F3B51F8";
paths = (
{
closed = 1;
nodes = (
"664 -27 LINE",
"576 -27 OFFCURVE",
"474 -16 OFFCURVE",
"402 19 CURVE",
"250 3 LINE",
"323 -64 OFFCURVE",
"497 -132 OFFCURVE",
"639 -136 CURVE"
);
}
);
width = 700;
},
{
anchors = (
{
name = bottom;
position = "{311, 0}";
},
{
name = top;
position = "{311, 700}";
}
);
components = (
{
alignment = -1;
name = O;
}
);
layerId = "E6340435-1C2D-4187-91B6-2B8E20EF3542";
paths = (
{
closed = 1;
nodes = (
"609 -46 LINE",
"523 -36 OFFCURVE",
"445 -20 OFFCURVE",
"381 11 CURVE",
"277 -1 LINE",
"356 -51 OFFCURVE",
"476 -97 OFFCURVE",
"594 -111 CURVE"
);
}
);
width = 661;
},
{
anchors = (
{
name = bottom;
position = "{277, 0}";
},
{
name = top;
position = "{401, 700}";
}
);
background = {
paths = (
{
closed = 1;
nodes = (
"665 453 OFFCURVE",
"634 539 OFFCURVE",
"574 609 CURVE SMOOTH",
"514 678 OFFCURVE",
"436 711 OFFCURVE",
"340 711 CURVE SMOOTH",
"245 711 OFFCURVE",
"165 678 OFFCURVE",
"105 609 CURVE SMOOTH",
"45 539 OFFCURVE",
"15 453 OFFCURVE",
"15 348 CURVE SMOOTH",
"15 244 OFFCURVE",
"45 157 OFFCURVE",
"105 88 CURVE SMOOTH",
"165 19 OFFCURVE",
"245 -15 OFFCURVE",
"340 -15 CURVE",
"421 -49 OFFCURVE",
"509 -76 OFFCURVE",
"606 -98 CURVE",
"627 -44 LINE",
"552 -40 OFFCURVE",
"484 -26 OFFCURVE",
"427 -1 CURVE",
"502 18 OFFCURVE",
"561 60 OFFCURVE",
"603 126 CURVE SMOOTH",
"645 190 OFFCURVE",
"665 265 OFFCURVE",
"665 348 CURVE SMOOTH"
);
},
{
closed = 1;
nodes = (
"608 262 OFFCURVE",
"583 188 OFFCURVE",
"533 126 CURVE SMOOTH",
"483 66 OFFCURVE",
"418 35 OFFCURVE",
"340 35 CURVE SMOOTH",
"262 35 OFFCURVE",
"198 66 OFFCURVE",
"148 126 CURVE SMOOTH",
"98 188 OFFCURVE",
"73 262 OFFCURVE",
"73 348 CURVE SMOOTH",
"73 435 OFFCURVE",
"98 509 OFFCURVE",
"148 569 CURVE SMOOTH",
"198 631 OFFCURVE",
"262 662 OFFCURVE",
"340 662 CURVE SMOOTH",
"418 662 OFFCURVE",
"483 631 OFFCURVE",
"533 569 CURVE SMOOTH",
"583 509 OFFCURVE",
"608 435 OFFCURVE",
"608 348 CURVE SMOOTH"
);
}
);
};
components = (
{
name = O;
}
);
layerId = "CAD36325-8B27-45AE-AB38-7E116081C841";
paths = (
{
closed = 1;
nodes = (
"616 -27 LINE",
"527 -27 OFFCURVE",
"428 -16 OFFCURVE",
"362 19 CURVE",
"207 3 LINE",
"268 -64 OFFCURVE",
"431 -132 OFFCURVE",
"571 -136 CURVE"
);
}
);
width = 700;
},
{
anchors = (
{
name = bottom;
position = "{267, 0}";
},
{
name = top;
position = "{391, 700}";
}
);
components = (
{
alignment = -1;
name = O;
}
);
layerId = "BC946E28-F4D1-4B1D-9CE5-1B4AE2F9B39A";
paths = (
{
closed = 1;
nodes = (
"557 -46 LINE",
"473 -36 OFFCURVE",
"397 -21 OFFCURVE",
"339 11 CURVE",
"233 -1 LINE",
"303 -51 OFFCURVE",
"416 -97 OFFCURVE",
"531 -111 CURVE"
);
}
);
width = 661;
},
{
anchors = (
{
name = bottom;
position = "{257, 0}";
},
{
name = top;
position = "{380, 700}";
}
);
background = {
paths = (
{
closed = 1;
nodes = (
"662 453 OFFCURVE",
"631 539 OFFCURVE",
"571 609 CURVE SMOOTH",
"511 678 OFFCURVE",
"433 711 OFFCURVE",
"337 711 CURVE SMOOTH",
"242 711 OFFCURVE",
"162 678 OFFCURVE",
"102 609 CURVE SMOOTH",
"42 539 OFFCURVE",
"12 453 OFFCURVE",
"12 348 CURVE SMOOTH",
"12 244 OFFCURVE",
"42 157 OFFCURVE",
"102 88 CURVE SMOOTH",
"162 19 OFFCURVE",
"242 -15 OFFCURVE",
"337 -15 CURVE",
"418 -49 OFFCURVE",
"506 -76 OFFCURVE",
"603 -98 CURVE",
"624 -44 LINE",
"549 -40 OFFCURVE",
"481 -26 OFFCURVE",
"424 -1 CURVE",
"499 18 OFFCURVE",
"558 60 OFFCURVE",
"600 126 CURVE SMOOTH",
"642 190 OFFCURVE",
"662 265 OFFCURVE",
"662 348 CURVE SMOOTH"
);
},
{
closed = 1;
nodes = (
"605 262 OFFCURVE",
"580 188 OFFCURVE",
"530 126 CURVE SMOOTH",
"480 66 OFFCURVE",
"415 35 OFFCURVE",
"337 35 CURVE SMOOTH",
"259 35 OFFCURVE",
"195 66 OFFCURVE",
"145 126 CURVE SMOOTH",
"95 188 OFFCURVE",
"70 262 OFFCURVE",
"70 348 CURVE SMOOTH",
"70 435 OFFCURVE",
"95 509 OFFCURVE",
"145 569 CURVE SMOOTH",
"195 631 OFFCURVE",
"259 662 OFFCURVE",
"337 662 CURVE SMOOTH",
"415 662 OFFCURVE",
"480 631 OFFCURVE",
"530 569 CURVE SMOOTH",
"580 509 OFFCURVE",
"605 435 OFFCURVE",
"605 348 CURVE SMOOTH"
);
}
);
};
components = (
{
name = O;
}
);
layerId = "1781F524-7973-4932-8D2B-6055E077B411";
paths = (
{
closed = 1;
nodes = (
"508 -61 LINE",
"423 -43 OFFCURVE",
"367 -21 OFFCURVE",
"320 5 CURVE",
"252 -4 LINE",
"327 -40 OFFCURVE",
"397 -68 OFFCURVE",
"496 -91 CURVE"
);
}
);
width = 644;
}
);
leftKerningGroup = O;
leftMetricsKey = O;
note = Q;
rightKerningGroup = O;
rightMetricsKey = O;
unicode = 0051;
},
{
glyphname = R;
lastChange = "2018-06-18 13:50:32 +0000";
layers = (
{
anchors = (
{
name = bottom;
position = "{285, 0}";
},
{
name = top;
position = "{285, 700}";
}
);
background = {
paths = (
{
closed = 1;
nodes = (
"526 0 LINE",
"515 79 OFFCURVE",
"503 140 OFFCURVE",
"490 179 CURVE SMOOTH",
"463 257 OFFCURVE",
"423 310 OFFCURVE",
"372 338 CURVE",
"462 372 OFFCURVE",
"507 432 OFFCURVE",
"507 519 CURVE SMOOTH",
"507 582 OFFCURVE",
"482 629 OFFCURVE",
"431 663 CURVE SMOOTH",
"387 691 OFFCURVE",
"326 706 OFFCURVE",
"251 707 CURVE SMOOTH",
"191 707 OFFCURVE",
"134 701 OFFCURVE",
"79 691 CURVE",
"79 0 LINE",
"137 0 LINE",
"137 319 LINE",
"272 319 LINE SMOOTH",
"378 319 OFFCURVE",
"444 213 OFFCURVE",
"470 0 CURVE"
);
},
{
closed = 1;
nodes = (
"453 419 OFFCURVE",
"384 365 OFFCURVE",
"268 365 CURVE SMOOTH",
"137 365 LINE",
"137 647 LINE",
"159 654 OFFCURVE",
"197 657 OFFCURVE",
"251 657 CURVE SMOOTH",
"385 657 OFFCURVE",
"453 609 OFFCURVE",
"453 512 CURVE SMOOTH"
);
}
);
};
layerId = "0B1DFD06-3317-40CA-B510-4969A0718C16";
paths = (
{
closed = 1;
nodes = (
"134 0 LINE",
"134 335 LINE",
"235 335 LINE SMOOTH",
"308 335 OFFCURVE",
"347 309 OFFCURVE",
"375 239 CURVE SMOOTH",
"470 0 LINE",
"513 0 LINE",
"406 260 LINE SMOOTH",
"389 301 OFFCURVE",
"370 325 OFFCURVE",
"339 340 CURVE",
"339 342 LINE",
"434 358 OFFCURVE",
"492 426 OFFCURVE",
"492 523 CURVE SMOOTH",
"492 643 OFFCURVE",
"425 700 OFFCURVE",
"283 700 CURVE SMOOTH",
"96 700 LINE",
"96 0 LINE"
);
},
{
closed = 1;
nodes = (
"134 665 LINE",
"280 665 LINE SMOOTH",
"399 665 OFFCURVE",
"454 622 OFFCURVE",
"454 528 CURVE SMOOTH",
"454 420 OFFCURVE",
"400 370 OFFCURVE",
"284 370 CURVE SMOOTH",
"134 370 LINE"
);
}
);
width = 569;
},
{
anchors = (
{
name = bottom;
position = "{301, 0}";
},
{
name = top;
position = "{301, 700}";
}
);
background = {
paths = (
{
closed = 1;
nodes = (
"526 0 LINE",
"515 79 OFFCURVE",
"503 140 OFFCURVE",
"490 179 CURVE SMOOTH",
"463 257 OFFCURVE",
"423 310 OFFCURVE",
"372 338 CURVE",
"462 372 OFFCURVE",
"507 432 OFFCURVE",
"507 519 CURVE SMOOTH",
"507 582 OFFCURVE",
"482 629 OFFCURVE",
"431 663 CURVE SMOOTH",
"387 691 OFFCURVE",
"326 706 OFFCURVE",
"251 707 CURVE SMOOTH",
"191 707 OFFCURVE",
"134 701 OFFCURVE",
"79 691 CURVE",
"79 0 LINE",
"137 0 LINE",
"137 319 LINE",
"272 319 LINE SMOOTH",
"378 319 OFFCURVE",
"444 213 OFFCURVE",
"470 0 CURVE"
);
},
{
closed = 1;
nodes = (
"453 419 OFFCURVE",
"384 365 OFFCURVE",
"268 365 CURVE SMOOTH",
"137 365 LINE",
"137 647 LINE",
"159 654 OFFCURVE",
"197 657 OFFCURVE",
"251 657 CURVE SMOOTH",
"385 657 OFFCURVE",
"453 609 OFFCURVE",
"453 512 CURVE SMOOTH"
);
}
);
};
layerId = "ECFE7DEB-F40D-44C7-B7CF-D3B40F3B51F8";
paths = (
{
closed = 1;
nodes = (
"225 0 LINE",
"225 255 LINE",
"262 255 LINE SMOOTH",
"322 255 OFFCURVE",
"339 246 OFFCURVE",
"353 209 CURVE SMOOTH",
"431 0 LINE",
"601 0 LINE",
"499 259 LINE SMOOTH",
"491 278 OFFCURVE",
"479 292 OFFCURVE",
"455 310 CURVE",
"455 312 LINE",
"525 344 OFFCURVE",
"562 411 OFFCURVE",
"562 502 CURVE SMOOTH",
"562 635 OFFCURVE",
"482 700 OFFCURVE",
"321 700 CURVE SMOOTH",
"64 700 LINE",
"64 0 LINE"
);
},
{
closed = 1;
nodes = (
"225 572 LINE",
"301 572 LINE SMOOTH",
"371 572 OFFCURVE",
"405 542 OFFCURVE",
"405 481 CURVE SMOOTH",
"405 417 OFFCURVE",
"368 382 OFFCURVE",
"303 382 CURVE SMOOTH",
"225 382 LINE"
);
}
);
width = 601;
},
{
anchors = (
{
name = bottom;
position = "{291, 0}";
},
{
name = top;
position = "{291, 700}";
}
);
layerId = "E6340435-1C2D-4187-91B6-2B8E20EF3542";
paths = (
{
closed = 1;
nodes = (
"173 0 LINE",
"173 300 LINE",
"248 300 LINE SMOOTH",
"316 300 OFFCURVE",
"341 284 OFFCURVE",
"364 226 CURVE SMOOTH",
"452 0 LINE",
"551 0 LINE",
"446 260 LINE SMOOTH",
"434 290 OFFCURVE",
"418 309 OFFCURVE",
"390 327 CURVE",
"390 329 LINE",
"473 352 OFFCURVE",
"522 420 OFFCURVE",
"522 513 CURVE SMOOTH",
"522 638 OFFCURVE",
"448 700 OFFCURVE",
"296 700 CURVE SMOOTH",
"81 700 LINE",
"81 0 LINE"
);
},
{
closed = 1;
nodes = (
"173 624 LINE",
"288 624 LINE SMOOTH",
"387 624 OFFCURVE",
"434 586 OFFCURVE",
"434 507 CURVE SMOOTH",
"434 419 OFFCURVE",
"386 375 OFFCURVE",
"291 375 CURVE SMOOTH",
"173 375 LINE"
);
}
);
width = 581;
},
{
anchors = (
{
name = bottom;
position = "{257, 0}";
},
{
name = top;
position = "{380, 700}";
}
);
background = {
paths = (
{
closed = 1;
nodes = (
"526 0 LINE",
"515 79 OFFCURVE",
"503 140 OFFCURVE",
"490 179 CURVE SMOOTH",
"463 257 OFFCURVE",
"423 310 OFFCURVE",
"372 338 CURVE",
"462 372 OFFCURVE",
"507 432 OFFCURVE",
"507 519 CURVE SMOOTH",
"507 582 OFFCURVE",
"482 629 OFFCURVE",
"431 663 CURVE SMOOTH",
"387 691 OFFCURVE",
"326 706 OFFCURVE",
"251 707 CURVE SMOOTH",
"191 707 OFFCURVE",
"134 701 OFFCURVE",
"79 691 CURVE",
"79 0 LINE",
"137 0 LINE",
"137 319 LINE",
"272 319 LINE SMOOTH",
"378 319 OFFCURVE",
"444 213 OFFCURVE",
"470 0 CURVE"
);
},
{
closed = 1;
nodes = (
"453 419 OFFCURVE",
"384 365 OFFCURVE",
"268 365 CURVE SMOOTH",
"137 365 LINE",
"137 647 LINE",
"159 654 OFFCURVE",
"197 657 OFFCURVE",
"251 657 CURVE SMOOTH",
"385 657 OFFCURVE",
"453 609 OFFCURVE",
"453 512 CURVE SMOOTH"
);
}
);
};
layerId = "CAD36325-8B27-45AE-AB38-7E116081C841";
paths = (
{
closed = 1;
nodes = (
"181 0 LINE",
"226 255 LINE",
"263 255 LINE SMOOTH",
"323 255 OFFCURVE",
"339 246 OFFCURVE",
"346 209 CURVE SMOOTH",
"387 0 LINE",
"557 0 LINE",
"500 259 LINE SMOOTH",
"496 279 OFFCURVE",
"487 292 OFFCURVE",
"466 310 CURVE",
"466 312 LINE",
"564 350 OFFCURVE",
"611 420 OFFCURVE",
"611 528 CURVE SMOOTH",
"611 639 OFFCURVE",
"533 700 OFFCURVE",
"390 700 CURVE SMOOTH",
"143 700 LINE",
"20 0 LINE"
);
},
{
closed = 1;
nodes = (
"282 572 LINE",
"358 572 LINE SMOOTH",
"418 572 OFFCURVE",
"448 549 OFFCURVE",
"448 504 CURVE SMOOTH",
"448 431 OFFCURVE",
"399 382 OFFCURVE",
"326 382 CURVE SMOOTH",
"248 382 LINE"
);
}
);
width = 601;
},
{
anchors = (
{
name = bottom;
position = "{247, 0}";
},
{
name = top;
position = "{370, 700}";
}
);
layerId = "BC946E28-F4D1-4B1D-9CE5-1B4AE2F9B39A";
paths = (
{
closed = 1;
nodes = (
"129 0 LINE",
"182 300 LINE",
"257 300 LINE SMOOTH",
"325 300 OFFCURVE",
"348 284 OFFCURVE",
"360 226 CURVE SMOOTH",
"408 0 LINE",
"507 0 LINE",
"448 260 LINE SMOOTH",
"441 289 OFFCURVE",
"429 307 OFFCURVE",
"404 327 CURVE",
"404 329 LINE",
"511 355 OFFCURVE",
"573 437 OFFCURVE",
"573 552 CURVE SMOOTH",
"573 647 OFFCURVE",
"500 700 OFFCURVE",
"369 700 CURVE SMOOTH",
"160 700 LINE",
"37 0 LINE"
);
},
{
closed = 1;
nodes = (
"239 624 LINE",
"354 624 LINE SMOOTH",
"440 624 OFFCURVE",
"482 595 OFFCURVE",
"482 535 CURVE SMOOTH",
"482 437 OFFCURVE",
"417 375 OFFCURVE",
"313 375 CURVE SMOOTH",
"195 375 LINE"
);
}
);
width = 581;
},
{
anchors = (
{
name = bottom;
position = "{241, 0}";
},
{
name = top;
position = "{364, 700}";
}
);
background = {
paths = (
{
closed = 1;
nodes = (
"526 0 LINE",
"515 79 OFFCURVE",
"503 140 OFFCURVE",
"490 179 CURVE SMOOTH",
"463 257 OFFCURVE",
"423 310 OFFCURVE",
"372 338 CURVE",
"462 372 OFFCURVE",
"507 432 OFFCURVE",
"507 519 CURVE SMOOTH",
"507 582 OFFCURVE",
"482 629 OFFCURVE",
"431 663 CURVE SMOOTH",
"387 691 OFFCURVE",
"326 706 OFFCURVE",
"251 707 CURVE SMOOTH",
"191 707 OFFCURVE",
"134 701 OFFCURVE",
"79 691 CURVE",
"79 0 LINE",
"137 0 LINE",
"137 319 LINE",
"272 319 LINE SMOOTH",
"378 319 OFFCURVE",
"444 213 OFFCURVE",
"470 0 CURVE"
);
},
{
closed = 1;
nodes = (
"453 419 OFFCURVE",
"384 365 OFFCURVE",
"268 365 CURVE SMOOTH",
"137 365 LINE",
"137 647 LINE",
"159 654 OFFCURVE",
"197 657 OFFCURVE",
"251 657 CURVE SMOOTH",
"385 657 OFFCURVE",
"453 609 OFFCURVE",
"453 512 CURVE SMOOTH"
);
}
);
};
layerId = "1781F524-7973-4932-8D2B-6055E077B411";
paths = (
{
closed = 1;
nodes = (
"90 0 LINE",
"149 335 LINE",
"250 335 LINE SMOOTH",
"325 335 OFFCURVE",
"358 307 OFFCURVE",
"373 239 CURVE SMOOTH",
"426 0 LINE",
"469 0 LINE",
"408 260 LINE SMOOTH",
"398 302 OFFCURVE",
"383 325 OFFCURVE",
"355 340 CURVE",
"355 342 LINE",
"476 360 OFFCURVE",
"545 449 OFFCURVE",
"545 568 CURVE SMOOTH",
"545 657 OFFCURVE",
"475 700 OFFCURVE",
"352 700 CURVE SMOOTH",
"175 700 LINE",
"52 0 LINE"
);
},
{
closed = 1;
nodes = (
"207 665 LINE",
"353 665 LINE SMOOTH",
"443 665 OFFCURVE",
"506 641 OFFCURVE",
"506 562 CURVE SMOOTH",
"506 442 OFFCURVE",
"431 370 OFFCURVE",
"305 370 CURVE SMOOTH",
"155 370 LINE"
);
}
);
width = 569;
}
);
note = R;
unicode = 0052;
},
{
glyphname = S;
lastChange = "2018-06-18 18:51:31 +0000";
layers = (
{
anchors = (
{
name = bottom;
position = "{258, 0}";
},
{
name = top;
position = "{258, 700}";
}
);
layerId = "0B1DFD06-3317-40CA-B510-4969A0718C16";
paths = (
{
closed = 1;
nodes = (
"378 -10 OFFCURVE",
"460 61 OFFCURVE",
"460 170 CURVE SMOOTH",
"460 257 OFFCURVE",
"412 318 OFFCURVE",
"295 378 CURVE SMOOTH",
"148 453 OFFCURVE",
"114 485 OFFCURVE",
"114 549 CURVE SMOOTH",
"114 625 OFFCURVE",
"173 676 OFFCURVE",
"261 676 CURVE SMOOTH",
"329 676 OFFCURVE",
"392 642 OFFCURVE",
"423 588 CURVE",
"451 607 LINE",
"419 668 OFFCURVE",
"343 710 OFFCURVE",
"265 710 CURVE SMOOTH",
"150 710 OFFCURVE",
"76 646 OFFCURVE",
"76 545 CURVE SMOOTH",
"76 468 OFFCURVE",
"115 428 OFFCURVE",
"262 354 CURVE SMOOTH",
"378 296 OFFCURVE",
"422 244 OFFCURVE",
"422 165 CURVE SMOOTH",
"422 81 OFFCURVE",
"356 24 OFFCURVE",
"257 24 CURVE SMOOTH",
"193 24 OFFCURVE",
"122 59 OFFCURVE",
"82 110 CURVE",
"57 83 LINE",
"97 28 OFFCURVE",
"177 -10 OFFCURVE",
"254 -10 CURVE SMOOTH"
);
}
);
width = 516;
},
{
anchors = (
{
name = bottom;
position = "{282, 0}";
},
{
name = top;
position = "{282, 700}";
}
);
layerId = "ECFE7DEB-F40D-44C7-B7CF-D3B40F3B51F8";
paths = (
{
closed = 1;
nodes = (
"434 -10 OFFCURVE",
"534 69 OFFCURVE",
"534 192 CURVE SMOOTH",
"534 297 OFFCURVE",
"493 351 OFFCURVE",
"368 408 CURVE SMOOTH",
"242 466 OFFCURVE",
"212 488 OFFCURVE",
"212 523 CURVE SMOOTH",
"212 561 OFFCURVE",
"243 582 OFFCURVE",
"299 582 CURVE SMOOTH",
"344 582 OFFCURVE",
"383 563 OFFCURVE",
"416 524 CURVE",
"517 600 LINE",
"480 669 OFFCURVE",
"396 710 OFFCURVE",
"291 710 CURVE SMOOTH",
"148 710 OFFCURVE",
"51 634 OFFCURVE",
"51 522 CURVE SMOOTH",
"51 414 OFFCURVE",
"115 361 OFFCURVE",
"256 290 CURVE SMOOTH",
"363 236 OFFCURVE",
"375 226 OFFCURVE",
"375 183 CURVE SMOOTH",
"375 145 OFFCURVE",
"340 118 OFFCURVE",
"283 118 CURVE SMOOTH",
"230 118 OFFCURVE",
"161 155 OFFCURVE",
"117 207 CURVE",
"24 119 LINE",
"79 35 OFFCURVE",
"169 -10 OFFCURVE",
"278 -10 CURVE SMOOTH"
);
}
);
width = 558;
},
{
anchors = (
{
name = bottom;
position = "{265, 0}";
},
{
name = top;
position = "{265, 700}";
}
);
layerId = "E6340435-1C2D-4187-91B6-2B8E20EF3542";
paths = (
{
closed = 1;
nodes = (
"398 -10 OFFCURVE",
"489 66 OFFCURVE",
"489 182 CURVE SMOOTH",
"489 272 OFFCURVE",
"439 332 OFFCURVE",
"312 395 CURVE SMOOTH",
"179 461 OFFCURVE",
"153 483 OFFCURVE",
"153 536 CURVE SMOOTH",
"153 596 OFFCURVE",
"200 634 OFFCURVE",
"274 634 CURVE SMOOTH",
"330 634 OFFCURVE",
"384 605 OFFCURVE",
"416 559 CURVE",
"476 603 LINE",
"442 668 OFFCURVE",
"362 710 OFFCURVE",
"273 710 CURVE SMOOTH",
"145 710 OFFCURVE",
"61 641 OFFCURVE",
"61 534 CURVE SMOOTH",
"61 452 OFFCURVE",
"111 397 OFFCURVE",
"255 327 CURVE SMOOTH",
"366 273 OFFCURVE",
"397 238 OFFCURVE",
"397 175 CURVE SMOOTH",
"397 109 OFFCURVE",
"344 66 OFFCURVE",
"265 66 CURVE SMOOTH",
"204 66 OFFCURVE",
"135 102 OFFCURVE",
"94 155 CURVE",
"38 99 LINE",
"86 31 OFFCURVE",
"170 -10 OFFCURVE",
"261 -10 CURVE SMOOTH"
);
}
);
width = 529;
},
{
anchors = (
{
name = bottom;
position = "{237, 0}";
},
{
name = top;
position = "{360, 700}";
}
);
layerId = "CAD36325-8B27-45AE-AB38-7E116081C841";
paths = (
{
closed = 1;
nodes = (
"422 -10 OFFCURVE",
"528 77 OFFCURVE",
"528 225 CURVE SMOOTH",
"528 307 OFFCURVE",
"488 361 OFFCURVE",
"391 409 CURVE SMOOTH",
"288 460 OFFCURVE",
"258 484 OFFCURVE",
"258 514 CURVE SMOOTH",
"258 555 OFFCURVE",
"297 582 OFFCURVE",
"357 582 CURVE SMOOTH",
"402 582 OFFCURVE",
"437 563 OFFCURVE",
"463 524 CURVE",
"578 600 LINE",
"543 669 OFFCURVE",
"464 710 OFFCURVE",
"365 710 CURVE SMOOTH",
"202 710 OFFCURVE",
"94 624 OFFCURVE",
"94 495 CURVE SMOOTH",
"94 416 OFFCURVE",
"144 355 OFFCURVE",
"262 290 CURVE SMOOTH",
"343 246 OFFCURVE",
"364 227 OFFCURVE",
"364 198 CURVE SMOOTH",
"364 148 OFFCURVE",
"324 118 OFFCURVE",
"256 118 CURVE SMOOTH",
"202 118 OFFCURVE",
"143 153 OFFCURVE",
"109 207 CURVE",
"0 119 LINE",
"45 37 OFFCURVE",
"133 -10 OFFCURVE",
"241 -10 CURVE SMOOTH"
);
}
);
width = 555;
},
{
anchors = (
{
name = bottom;
position = "{221, 0}";
},
{
name = top;
position = "{344, 700}";
}
);
layerId = "BC946E28-F4D1-4B1D-9CE5-1B4AE2F9B39A";
paths = (
{
closed = 1;
nodes = (
"379 -10 OFFCURVE",
"480 76 OFFCURVE",
"480 205 CURVE SMOOTH",
"480 280 OFFCURVE",
"432 344 OFFCURVE",
"337 395 CURVE SMOOTH",
"233 452 OFFCURVE",
"201 482 OFFCURVE",
"201 523 CURVE SMOOTH",
"201 589 OFFCURVE",
"257 634 OFFCURVE",
"341 634 CURVE SMOOTH",
"397 634 OFFCURVE",
"446 605 OFFCURVE",
"470 559 CURVE",
"538 603 LINE",
"515 666 OFFCURVE",
"435 710 OFFCURVE",
"343 710 CURVE SMOOTH",
"201 710 OFFCURVE",
"108 633 OFFCURVE",
"108 517 CURVE SMOOTH",
"108 447 OFFCURVE",
"161 384 OFFCURVE",
"268 327 CURVE SMOOTH",
"351 283 OFFCURVE",
"386 244 OFFCURVE",
"386 194 CURVE SMOOTH",
"386 118 OFFCURVE",
"324 66 OFFCURVE",
"232 66 CURVE SMOOTH",
"171 66 OFFCURVE",
"109 102 OFFCURVE",
"77 155 CURVE",
"11 99 LINE",
"45 33 OFFCURVE",
"130 -10 OFFCURVE",
"226 -10 CURVE SMOOTH"
);
}
);
width = 529;
},
{
anchors = (
{
name = bottom;
position = "{214, 0}";
},
{
name = top;
position = "{329, 700}";
}
);
layerId = "1781F524-7973-4932-8D2B-6055E077B411";
paths = (
{
closed = 1;
nodes = (
"351 -10 OFFCURVE",
"450 63 OFFCURVE",
"450 187 CURVE SMOOTH",
"450 296 OFFCURVE",
"371 347 OFFCURVE",
"318 378 CURVE SMOOTH",
"224 433 OFFCURVE",
"165 470 OFFCURVE",
"165 540 CURVE SMOOTH",
"165 623 OFFCURVE",
"248 676 OFFCURVE",
"335 676 CURVE SMOOTH",
"405 676 OFFCURVE",
"462 641 OFFCURVE",
"483 588 CURVE",
"514 607 LINE",
"491 670 OFFCURVE",
"419 710 OFFCURVE",
"330 710 CURVE SMOOTH",
"221 710 OFFCURVE",
"126 645 OFFCURVE",
"126 538 CURVE SMOOTH",
"126 444 OFFCURVE",
"197 402 OFFCURVE",
"281 354 CURVE SMOOTH",
"335 323 OFFCURVE",
"410 280 OFFCURVE",
"410 189 CURVE SMOOTH",
"410 89 OFFCURVE",
"321 24 OFFCURVE",
"220 24 CURVE SMOOTH",
"154 24 OFFCURVE",
"91 58 OFFCURVE",
"57 108 CURVE",
"29 84 LINE",
"70 26 OFFCURVE",
"142 -10 OFFCURVE",
"225 -10 CURVE SMOOTH"
);
}
);
width = 516;
}
);
leftKerningGroup = S;
note = S;
rightKerningGroup = S;
unicode = 0053;
},
{
glyphname = T;
lastChange = "2018-06-17 09:45:40 +0000";
layers = (
{
anchors = (
{
name = bottom;
position = "{263, 0}";
},
{
name = center;
position = "{263, 350}";
},
{
name = top;
position = "{263, 700}";
}
);
background = {
paths = (
{
closed = 1;
nodes = (
"544 700 LINE",
"-27 700 LINE",
"-27 651 LINE",
"231 651 LINE",
"231 0 LINE",
"287 0 LINE",
"287 651 LINE",
"544 651 LINE"
);
}
);
};
layerId = "0B1DFD06-3317-40CA-B510-4969A0718C16";
paths = (
{
closed = 1;
nodes = (
"282 0 LINE",
"282 665 LINE",
"505 665 LINE",
"505 700 LINE",
"21 700 LINE",
"21 665 LINE",
"244 665 LINE",
"244 0 LINE"
);
}
);
width = 526;
},
{
anchors = (
{
name = bottom;
position = "{300, 0}";
},
{
name = center;
position = "{300, 350}";
},
{
name = top;
position = "{300, 700}";
}
);
background = {
paths = (
{
closed = 1;
nodes = (
"561 700 LINE",
"-10 700 LINE",
"-10 651 LINE",
"248 651 LINE",
"248 0 LINE",
"304 0 LINE",
"304 651 LINE",
"561 651 LINE"
);
}
);
};
layerId = "ECFE7DEB-F40D-44C7-B7CF-D3B40F3B51F8";
paths = (
{
closed = 1;
nodes = (
"381 0 LINE",
"381 583 LINE",
"587 583 LINE",
"587 700 LINE",
"14 700 LINE",
"14 583 LINE",
"220 583 LINE",
"220 0 LINE"
);
}
);
width = 601;
},
{
anchors = (
{
name = bottom;
position = "{279, 0}";
},
{
name = center;
position = "{279, 350}";
},
{
name = top;
position = "{279, 700}";
}
);
layerId = "E6340435-1C2D-4187-91B6-2B8E20EF3542";
paths = (
{
closed = 1;
nodes = (
"325 0 LINE",
"325 628 LINE",
"540 628 LINE",
"540 700 LINE",
"17 700 LINE",
"17 628 LINE",
"233 628 LINE",
"233 0 LINE"
);
}
);
width = 558;
},
{
anchors = (
{
name = bottom;
position = "{256, 0}";
},
{
name = center;
position = "{318, 350}";
},
{
name = top;
position = "{380, 700}";
}
);
background = {
paths = (
{
closed = 1;
nodes = (
"561 700 LINE",
"-10 700 LINE",
"-10 651 LINE",
"248 651 LINE",
"248 0 LINE",
"304 0 LINE",
"304 651 LINE",
"561 651 LINE"
);
}
);
};
layerId = "CAD36325-8B27-45AE-AB38-7E116081C841";
paths = (
{
closed = 1;
nodes = (
"337 0 LINE",
"440 583 LINE",
"646 583 LINE",
"667 700 LINE",
"94 700 LINE",
"73 583 LINE",
"279 583 LINE",
"176 0 LINE"
);
}
);
width = 601;
},
{
anchors = (
{
name = bottom;
position = "{235, 0}";
},
{
name = center;
position = "{297, 350}";
},
{
name = top;
position = "{359, 700}";
}
);
layerId = "BC946E28-F4D1-4B1D-9CE5-1B4AE2F9B39A";
paths = (
{
closed = 1;
nodes = (
"281 0 LINE",
"392 628 LINE",
"607 628 LINE",
"620 700 LINE",
"97 700 LINE",
"84 628 LINE",
"300 628 LINE",
"189 0 LINE"
);
}
);
width = 558;
},
{
anchors = (
{
name = bottom;
position = "{219, 0}";
},
{
name = center;
position = "{280, 350}";
},
{
name = top;
position = "{342, 700}";
}
);
background = {
paths = (
{
closed = 1;
nodes = (
"544 700 LINE",
"-27 700 LINE",
"-27 651 LINE",
"231 651 LINE",
"231 0 LINE",
"287 0 LINE",
"287 651 LINE",
"544 651 LINE"
);
}
);
};
layerId = "1781F524-7973-4932-8D2B-6055E077B411";
paths = (
{
closed = 1;
nodes = (
"238 0 LINE",
"355 665 LINE",
"578 665 LINE",
"584 700 LINE",
"100 700 LINE",
"94 665 LINE",
"317 665 LINE",
"200 0 LINE"
);
}
);
width = 526;
}
);
leftKerningGroup = T;
note = T;
rightKerningGroup = T;
unicode = 0054;
},
{
glyphname = U;
lastChange = "2018-06-18 12:33:26 +0000";
layers = (
{
anchors = (
{
name = bottom;
position = "{328, 0}";
},
{
name = ogonek;
position = "{348, 0}";
},
{
name = top;
position = "{328, 700}";
},
{
name = topright;
position = "{554, 517}";
}
);
background = {
paths = (
{
closed = 1;
nodes = (
"607 700 LINE",
"549 700 LINE",
"549 297 LINE SMOOTH",
"551 113 OFFCURVE",
"468 35 OFFCURVE",
"344 35 CURVE SMOOTH",
"220 35 OFFCURVE",
"138 113 OFFCURVE",
"138 297 CURVE SMOOTH",
"138 700 LINE",
"80 700 LINE",
"80 295 LINE SMOOTH",
"80 90 OFFCURVE",
"169 -13 OFFCURVE",
"344 -13 CURVE SMOOTH",
"518 -13 OFFCURVE",
"607 90 OFFCURVE",
"607 295 CURVE SMOOTH"
);
}
);
};
layerId = "0B1DFD06-3317-40CA-B510-4969A0718C16";
paths = (
{
closed = 1;
nodes = (
"481 -10 OFFCURVE",
"558 86 OFFCURVE",
"558 276 CURVE SMOOTH",
"558 700 LINE",
"520 700 LINE",
"520 278 LINE SMOOTH",
"520 109 OFFCURVE",
"456 24 OFFCURVE",
"328 24 CURVE SMOOTH",
"199 24 OFFCURVE",
"135 108 OFFCURVE",
"135 278 CURVE SMOOTH",
"135 700 LINE",
"97 700 LINE",
"97 276 LINE SMOOTH",
"97 85 OFFCURVE",
"174 -10 OFFCURVE",
"328 -10 CURVE SMOOTH"
);
}
);
width = 655;
},
{
anchors = (
{
name = bottom;
position = "{332, 0}";
},
{
name = ogonek;
position = "{352, 0}";
},
{
name = top;
position = "{332, 700}";
},
{
name = topright;
position = "{612, 444}";
}
);
background = {
paths = (
{
closed = 1;
nodes = (
"597 700 LINE",
"539 700 LINE",
"539 297 LINE SMOOTH",
"541 113 OFFCURVE",
"458 35 OFFCURVE",
"334 35 CURVE SMOOTH",
"210 35 OFFCURVE",
"128 113 OFFCURVE",
"128 297 CURVE SMOOTH",
"128 700 LINE",
"70 700 LINE",
"70 295 LINE SMOOTH",
"70 90 OFFCURVE",
"159 -13 OFFCURVE",
"334 -13 CURVE SMOOTH",
"508 -13 OFFCURVE",
"597 90 OFFCURVE",
"597 295 CURVE SMOOTH"
);
}
);
};
layerId = "ECFE7DEB-F40D-44C7-B7CF-D3B40F3B51F8";
paths = (
{
closed = 1;
nodes = (
"514 -10 OFFCURVE",
"610 87 OFFCURVE",
"610 272 CURVE SMOOTH",
"610 700 LINE",
"449 700 LINE",
"449 274 LINE SMOOTH",
"449 171 OFFCURVE",
"409 118 OFFCURVE",
"332 118 CURVE SMOOTH",
"255 118 OFFCURVE",
"215 171 OFFCURVE",
"215 274 CURVE SMOOTH",
"215 700 LINE",
"54 700 LINE",
"54 272 LINE SMOOTH",
"54 87 OFFCURVE",
"150 -10 OFFCURVE",
"332 -10 CURVE SMOOTH"
);
}
);
width = 664;
},
{
anchors = (
{
name = bottom;
position = "{329, 0}";
},
{
name = ogonek;
position = "{349, 0}";
},
{
name = top;
position = "{329, 700}";
},
{
name = topright;
position = "{579, 485}";
}
);
layerId = "E6340435-1C2D-4187-91B6-2B8E20EF3542";
paths = (
{
closed = 1;
nodes = (
"495 -10 OFFCURVE",
"580 87 OFFCURVE",
"580 274 CURVE SMOOTH",
"580 700 LINE",
"488 700 LINE",
"488 276 LINE SMOOTH",
"488 136 OFFCURVE",
"435 66 OFFCURVE",
"329 66 CURVE SMOOTH",
"223 66 OFFCURVE",
"170 136 OFFCURVE",
"170 276 CURVE SMOOTH",
"170 700 LINE",
"77 700 LINE",
"77 274 LINE SMOOTH",
"77 86 OFFCURVE",
"162 -10 OFFCURVE",
"329 -10 CURVE SMOOTH"
);
}
);
width = 657;
},
{
anchors = (
{
name = bottom;
position = "{288, 0}";
},
{
name = ogonek;
position = "{308, 0}";
},
{
name = top;
position = "{411, 700}";
},
{
name = topright;
position = "{646, 444}";
}
);
background = {
paths = (
{
closed = 1;
nodes = (
"597 700 LINE",
"539 700 LINE",
"539 297 LINE SMOOTH",
"541 113 OFFCURVE",
"458 35 OFFCURVE",
"334 35 CURVE SMOOTH",
"210 35 OFFCURVE",
"128 113 OFFCURVE",
"128 297 CURVE SMOOTH",
"128 700 LINE",
"70 700 LINE",
"70 295 LINE SMOOTH",
"70 90 OFFCURVE",
"159 -13 OFFCURVE",
"334 -13 CURVE SMOOTH",
"508 -13 OFFCURVE",
"597 90 OFFCURVE",
"597 295 CURVE SMOOTH"
);
}
);
};
layerId = "CAD36325-8B27-45AE-AB38-7E116081C841";
paths = (
{
closed = 1;
nodes = (
"475 -10 OFFCURVE",
"582 87 OFFCURVE",
"614 272 CURVE SMOOTH",
"689 700 LINE",
"528 700 LINE",
"453 274 LINE SMOOTH",
"435 171 OFFCURVE",
"385 118 OFFCURVE",
"309 118 CURVE SMOOTH",
"232 118 OFFCURVE",
"201 171 OFFCURVE",
"219 274 CURVE SMOOTH",
"294 700 LINE",
"133 700 LINE",
"58 272 LINE SMOOTH",
"26 87 OFFCURVE",
"112 -10 OFFCURVE",
"294 -10 CURVE SMOOTH"
);
}
);
width = 664;
},
{
anchors = (
{
name = bottom;
position = "{285, 0}";
},
{
name = ogonek;
position = "{305, 0}";
},
{
name = top;
position = "{408, 700}";
},
{
name = topright;
position = "{620, 485}";
}
);
layerId = "BC946E28-F4D1-4B1D-9CE5-1B4AE2F9B39A";
paths = (
{
closed = 1;
nodes = (
"453 -10 OFFCURVE",
"550 78 OFFCURVE",
"584 274 CURVE SMOOTH",
"659 700 LINE",
"567 700 LINE",
"492 276 LINE SMOOTH",
"467 136 OFFCURVE",
"402 66 OFFCURVE",
"296 66 CURVE SMOOTH",
"184 66 OFFCURVE",
"149 137 OFFCURVE",
"174 276 CURVE SMOOTH",
"249 700 LINE",
"156 700 LINE",
"81 274 LINE SMOOTH",
"49 94 OFFCURVE",
"120 -10 OFFCURVE",
"289 -10 CURVE SMOOTH"
);
}
);
width = 657;
},
{
anchors = (
{
name = bottom;
position = "{284, 0}";
},
{
name = ogonek;
position = "{304, 0}";
},
{
name = top;
position = "{408, 700}";
},
{
name = topright;
position = "{601, 517}";
}
);
background = {
paths = (
{
closed = 1;
nodes = (
"607 700 LINE",
"549 700 LINE",
"549 297 LINE SMOOTH",
"551 113 OFFCURVE",
"468 35 OFFCURVE",
"344 35 CURVE SMOOTH",
"220 35 OFFCURVE",
"138 113 OFFCURVE",
"138 297 CURVE SMOOTH",
"138 700 LINE",
"80 700 LINE",
"80 295 LINE SMOOTH",
"80 90 OFFCURVE",
"169 -13 OFFCURVE",
"344 -13 CURVE SMOOTH",
"518 -13 OFFCURVE",
"607 90 OFFCURVE",
"607 295 CURVE SMOOTH"
);
}
);
};
layerId = "1781F524-7973-4932-8D2B-6055E077B411";
paths = (
{
closed = 1;
nodes = (
"446 -10 OFFCURVE",
"529 86 OFFCURVE",
"563 276 CURVE SMOOTH",
"638 700 LINE",
"600 700 LINE",
"525 278 LINE SMOOTH",
"495 109 OFFCURVE",
"416 24 OFFCURVE",
"289 24 CURVE SMOOTH",
"160 24 OFFCURVE",
"110 108 OFFCURVE",
"140 278 CURVE SMOOTH",
"215 700 LINE",
"177 700 LINE",
"102 276 LINE SMOOTH",
"68 85 OFFCURVE",
"138 -10 OFFCURVE",
"293 -10 CURVE SMOOTH"
);
}
);
width = 655;
}
);
leftKerningGroup = U;
note = U;
rightKerningGroup = U;
unicode = 0055;
},
{
glyphname = V;
lastChange = "2018-06-18 12:33:34 +0000";
layers = (
{
anchors = (
{
name = bottom;
position = "{279, 0}";
},
{
name = top;
position = "{278, 700}";
}
);
background = {
paths = (
{
closed = 1;
nodes = (
"519 700 LINE",
"297 66 LINE",
"75 700 LINE",
"10 700 LINE",
"266 0 LINE",
"328 0 LINE",
"583 700 LINE"
);
}
);
};
layerId = "0B1DFD06-3317-40CA-B510-4969A0718C16";
paths = (
{
closed = 1;
nodes = (
"302 0 LINE",
"537 700 LINE",
"494 700 LINE",
"270 10 LINE",
"288 10 LINE",
"64 700 LINE",
"21 700 LINE",
"256 0 LINE"
);
}
);
width = 558;
},
{
anchors = (
{
name = bottom;
position = "{331, 0}";
},
{
name = top;
position = "{331, 700}";
}
);
background = {
paths = (
{
closed = 1;
nodes = (
"549 700 LINE",
"327 66 LINE",
"105 700 LINE",
"40 700 LINE",
"296 0 LINE",
"358 0 LINE",
"613 700 LINE"
);
}
);
};
layerId = "ECFE7DEB-F40D-44C7-B7CF-D3B40F3B51F8";
paths = (
{
closed = 1;
nodes = (
"403 0 LINE",
"648 700 LINE",
"480 700 LINE",
"295 86 LINE",
"367 86 LINE",
"182 700 LINE",
"14 700 LINE",
"259 0 LINE"
);
}
);
width = 662;
},
{
anchors = (
{
name = bottom;
position = "{301, 0}";
},
{
name = top;
position = "{301, 700}";
}
);
layerId = "E6340435-1C2D-4187-91B6-2B8E20EF3542";
paths = (
{
closed = 1;
nodes = (
"346 0 LINE",
"585 700 LINE",
"487 700 LINE",
"278 51 LINE",
"324 51 LINE",
"115 700 LINE",
"17 700 LINE",
"256 0 LINE"
);
}
);
width = 602;
},
{
anchors = (
{
name = bottom;
position = "{287, 0}";
},
{
name = top;
position = "{410, 700}";
}
);
background = {
paths = (
{
closed = 1;
nodes = (
"549 700 LINE",
"327 66 LINE",
"105 700 LINE",
"40 700 LINE",
"296 0 LINE",
"358 0 LINE",
"613 700 LINE"
);
}
);
};
layerId = "CAD36325-8B27-45AE-AB38-7E116081C841";
paths = (
{
closed = 1;
nodes = (
"358 0 LINE",
"727 700 LINE",
"556 700 LINE",
"262 86 LINE",
"334 86 LINE",
"258 700 LINE",
"93 700 LINE",
"214 0 LINE"
);
}
);
width = 662;
},
{
anchors = (
{
name = bottom;
position = "{257, 0}";
},
{
name = top;
position = "{380, 700}";
}
);
layerId = "BC946E28-F4D1-4B1D-9CE5-1B4AE2F9B39A";
paths = (
{
closed = 1;
nodes = (
"302 0 LINE",
"664 700 LINE",
"563 700 LINE",
"240 51 LINE",
"286 51 LINE",
"191 700 LINE",
"96 700 LINE",
"212 0 LINE"
);
}
);
width = 602;
},
{
anchors = (
{
name = bottom;
position = "{235, 0}";
},
{
name = top;
position = "{357, 700}";
}
);
background = {
paths = (
{
closed = 1;
nodes = (
"519 700 LINE",
"297 66 LINE",
"75 700 LINE",
"10 700 LINE",
"266 0 LINE",
"328 0 LINE",
"583 700 LINE"
);
}
);
};
layerId = "1781F524-7973-4932-8D2B-6055E077B411";
paths = (
{
closed = 1;
nodes = (
"258 0 LINE",
"616 700 LINE",
"572 700 LINE",
"226 6 LINE",
"244 6 LINE",
"142 700 LINE",
"100 700 LINE",
"212 0 LINE"
);
}
);
width = 558;
}
);
note = V;
unicode = 0056;
},
{
glyphname = W;
lastChange = "2018-06-18 12:33:49 +0000";
layers = (
{
anchors = (
{
name = bottom;
position = "{393, 0}";
},
{
name = top;
position = "{393, 700}";
}
);
background = {
paths = (
{
closed = 1;
nodes = (
"760 700 LINE",
"582 66 LINE",
"425 700 LINE",
"360 700 LINE",
"203 66 LINE",
"25 700 LINE",
"-40 700 LINE",
"172 0 LINE",
"233 0 LINE",
"392 635 LINE",
"551 0 LINE",
"613 0 LINE",
"824 700 LINE"
);
}
);
};
layerId = "0B1DFD06-3317-40CA-B510-4969A0718C16";
paths = (
{
closed = 1;
nodes = (
"218 0 LINE",
"400 684 LINE",
"388 684 LINE",
"570 0 LINE",
"615 0 LINE",
"757 700 LINE",
"715 700 LINE",
"589 20 LINE",
"597 20 LINE",
"418 700 LINE",
"370 700 LINE",
"191 20 LINE",
"199 20 LINE",
"73 700 LINE",
"31 700 LINE",
"173 0 LINE"
);
}
);
width = 788;
},
{
anchors = (
{
name = bottom;
position = "{444, 0}";
},
{
name = top;
position = "{444, 700}";
}
);
background = {
paths = (
{
closed = 1;
nodes = (
"778 700 LINE",
"600 66 LINE",
"443 700 LINE",
"378 700 LINE",
"221 66 LINE",
"43 700 LINE",
"-22 700 LINE",
"190 0 LINE",
"251 0 LINE",
"410 635 LINE",
"569 0 LINE",
"631 0 LINE",
"842 700 LINE"
);
}
);
};
layerId = "ECFE7DEB-F40D-44C7-B7CF-D3B40F3B51F8";
paths = (
{
closed = 1;
nodes = (
"324 0 LINE",
"467 600 LINE",
"421 600 LINE",
"564 0 LINE",
"716 0 LINE",
"864 700 LINE",
"693 700 LINE",
"599 110 LINE",
"664 110 LINE",
"519 700 LINE",
"369 700 LINE",
"224 110 LINE",
"289 110 LINE",
"195 700 LINE",
"24 700 LINE",
"172 0 LINE"
);
}
);
width = 888;
},
{
anchors = (
{
name = bottom;
position = "{415, 0}";
},
{
name = top;
position = "{415, 700}";
}
);
layerId = "E6340435-1C2D-4187-91B6-2B8E20EF3542";
paths = (
{
closed = 1;
nodes = (
"264 0 LINE",
"434 644 LINE",
"397 644 LINE",
"567 0 LINE",
"658 0 LINE",
"803 700 LINE",
"704 700 LINE",
"591 56 LINE",
"629 56 LINE",
"462 700 LINE",
"369 700 LINE",
"202 56 LINE",
"239 56 LINE",
"126 700 LINE",
"27 700 LINE",
"173 0 LINE"
);
}
);
width = 831;
},
{
anchors = (
{
name = bottom;
position = "{400, 0}";
},
{
name = top;
position = "{523, 700}";
}
);
background = {
paths = (
{
closed = 1;
nodes = (
"778 700 LINE",
"600 66 LINE",
"443 700 LINE",
"378 700 LINE",
"221 66 LINE",
"43 700 LINE",
"-22 700 LINE",
"190 0 LINE",
"251 0 LINE",
"410 635 LINE",
"569 0 LINE",
"631 0 LINE",
"842 700 LINE"
);
}
);
};
layerId = "CAD36325-8B27-45AE-AB38-7E116081C841";
paths = (
{
closed = 1;
nodes = (
"282 0 LINE",
"531 600 LINE",
"485 600 LINE",
"522 0 LINE",
"671 0 LINE",
"943 700 LINE",
"769 700 LINE",
"571 110 LINE",
"636 110 LINE",
"595 700 LINE",
"445 700 LINE",
"196 110 LINE",
"261 110 LINE",
"271 700 LINE",
"103 700 LINE",
"127 0 LINE"
);
}
);
width = 888;
},
{
anchors = (
{
name = bottom;
position = "{371, 0}";
},
{
name = top;
position = "{494, 700}";
}
);
layerId = "BC946E28-F4D1-4B1D-9CE5-1B4AE2F9B39A";
paths = (
{
closed = 1;
nodes = (
"222 0 LINE",
"505 644 LINE",
"468 644 LINE",
"525 0 LINE",
"614 0 LINE",
"882 700 LINE",
"783 700 LINE",
"556 56 LINE",
"594 56 LINE",
"541 700 LINE",
"448 700 LINE",
"167 56 LINE",
"204 56 LINE",
"205 700 LINE",
"106 700 LINE",
"129 0 LINE"
);
}
);
width = 831;
},
{
anchors = (
{
name = bottom;
position = "{349, 0}";
},
{
name = top;
position = "{472, 700}";
}
);
background = {
paths = (
{
closed = 1;
nodes = (
"760 700 LINE",
"582 66 LINE",
"425 700 LINE",
"360 700 LINE",
"203 66 LINE",
"25 700 LINE",
"-40 700 LINE",
"172 0 LINE",
"233 0 LINE",
"392 635 LINE",
"551 0 LINE",
"613 0 LINE",
"824 700 LINE"
);
}
);
};
layerId = "1781F524-7973-4932-8D2B-6055E077B411";
paths = (
{
closed = 1;
nodes = (
"174 0 LINE",
"478 688 LINE",
"466 688 LINE",
"526 0 LINE",
"571 0 LINE",
"836 700 LINE",
"792 700 LINE",
"545 13 LINE",
"553 13 LINE",
"497 700 LINE",
"449 700 LINE",
"147 13 LINE",
"155 13 LINE",
"150 700 LINE",
"110 700 LINE",
"129 0 LINE"
);
}
);
width = 788;
}
);
note = W;
unicode = 0057;
},
{
glyphname = X;
lastChange = "2018-06-18 12:34:37 +0000";
layers = (
{
anchors = (
{
name = bottom;
position = "{278, 0}";
},
{
name = top;
position = "{278, 700}";
}
);
background = {
paths = (
{
closed = 1;
nodes = (
"311 359 LINE",
"549 700 LINE",
"480 700 LINE",
"277 394 LINE",
"74 700 LINE",
"5 700 LINE",
"243 359 LINE",
"-5 0 LINE",
"63 0 LINE",
"277 316 LINE",
"492 0 LINE",
"559 0 LINE"
);
}
);
};
layerId = "0B1DFD06-3317-40CA-B510-4969A0718C16";
paths = (
{
closed = 1;
nodes = (
"91 0 LINE",
"279 330 LINE",
"467 0 LINE",
"514 0 LINE",
"306 359 LINE",
"502 700 LINE",
"455 700 LINE",
"279 384 LINE",
"102 700 LINE",
"55 700 LINE",
"252 359 LINE",
"44 0 LINE"
);
}
);
width = 558;
},
{
anchors = (
{
name = bottom;
position = "{336, 0}";
},
{
name = top;
position = "{336, 700}";
}
);
background = {
paths = (
{
closed = 1;
nodes = (
"346 359 LINE",
"584 700 LINE",
"515 700 LINE",
"312 394 LINE",
"109 700 LINE",
"40 700 LINE",
"278 359 LINE",
"30 0 LINE",
"98 0 LINE",
"312 316 LINE",
"527 0 LINE",
"594 0 LINE"
);
}
);
};
layerId = "ECFE7DEB-F40D-44C7-B7CF-D3B40F3B51F8";
paths = (
{
closed = 1;
nodes = (
"203 0 LINE",
"336 223 LINE",
"470 0 LINE",
"648 0 LINE",
"429 358 LINE",
"639 700 LINE",
"458 700 LINE",
"336 489 LINE",
"214 700 LINE",
"33 700 LINE",
"243 358 LINE",
"24 0 LINE"
);
}
);
width = 672;
},
{
anchors = (
{
name = bottom;
position = "{303, 0}";
},
{
name = top;
position = "{303, 700}";
}
);
layerId = "E6340435-1C2D-4187-91B6-2B8E20EF3542";
paths = (
{
closed = 1;
nodes = (
"139 0 LINE",
"303 285 LINE",
"467 0 LINE",
"571 0 LINE",
"356 359 LINE",
"562 700 LINE",
"455 700 LINE",
"303 426 LINE",
"150 700 LINE",
"44 700 LINE",
"249 359 LINE",
"34 0 LINE"
);
}
);
width = 605;
},
{
anchors = (
{
name = bottom;
position = "{292, 0}";
},
{
name = top;
position = "{415, 700}";
}
);
background = {
paths = (
{
closed = 1;
nodes = (
"346 359 LINE",
"584 700 LINE",
"515 700 LINE",
"312 394 LINE",
"109 700 LINE",
"40 700 LINE",
"278 359 LINE",
"30 0 LINE",
"98 0 LINE",
"312 316 LINE",
"527 0 LINE",
"594 0 LINE"
);
}
);
};
layerId = "CAD36325-8B27-45AE-AB38-7E116081C841";
paths = (
{
closed = 1;
nodes = (
"169 0 LINE",
"341 223 LINE",
"436 0 LINE",
"604 0 LINE",
"448 358 LINE",
"718 700 LINE",
"529 700 LINE",
"370 489 LINE",
"285 700 LINE",
"112 700 LINE",
"262 358 LINE",
"-20 0 LINE"
);
}
);
width = 672;
},
{
anchors = (
{
name = bottom;
position = "{259, 0}";
},
{
name = top;
position = "{382, 700}";
}
);
layerId = "BC946E28-F4D1-4B1D-9CE5-1B4AE2F9B39A";
paths = (
{
closed = 1;
nodes = (
"103 0 LINE",
"313 285 LINE",
"427 0 LINE",
"527 0 LINE",
"375 359 LINE",
"641 700 LINE",
"528 700 LINE",
"330 431 LINE",
"227 700 LINE",
"123 700 LINE",
"268 359 LINE",
"-10 0 LINE"
);
}
);
width = 605;
},
{
anchors = (
{
name = bottom;
position = "{234, 0}";
},
{
name = top;
position = "{357, 700}";
}
);
background = {
paths = (
{
closed = 1;
nodes = (
"311 359 LINE",
"549 700 LINE",
"480 700 LINE",
"277 394 LINE",
"74 700 LINE",
"5 700 LINE",
"243 359 LINE",
"-5 0 LINE",
"63 0 LINE",
"277 316 LINE",
"492 0 LINE",
"559 0 LINE"
);
}
);
};
layerId = "1781F524-7973-4932-8D2B-6055E077B411";
paths = (
{
closed = 1;
nodes = (
"50 0 LINE",
"296 330 LINE",
"426 0 LINE",
"470 0 LINE",
"325 359 LINE",
"581 700 LINE",
"532 700 LINE",
"310 391 LINE",
"179 700 LINE",
"134 700 LINE",
"280 366 LINE",
"0 0 LINE"
);
}
);
width = 558;
}
);
note = X;
unicode = 0058;
},
{
glyphname = Y;
lastChange = "2018-06-18 12:34:56 +0000";
layers = (
{
anchors = (
{
name = bottom;
position = "{259, 0}";
},
{
name = top;
position = "{258, 700}";
}
);
background = {
paths = (
{
closed = 1;
nodes = (
"462 700 LINE",
"259 357 LINE",
"56 700 LINE",
"-10 700 LINE",
"231 307 LINE",
"231 0 LINE",
"287 0 LINE",
"287 309 LINE",
"528 700 LINE"
);
}
);
};
layerId = "0B1DFD06-3317-40CA-B510-4969A0718C16";
paths = (
{
closed = 1;
nodes = (
"278 0 LINE",
"278 277 LINE",
"495 700 LINE",
"451 700 LINE",
"258 309 LINE",
"66 700 LINE",
"22 700 LINE",
"240 277 LINE",
"240 0 LINE"
);
}
);
width = 517;
},
{
anchors = (
{
name = bottom;
position = "{323, 0}";
},
{
name = top;
position = "{323, 700}";
}
);
background = {
paths = (
{
closed = 1;
nodes = (
"502 700 LINE",
"299 357 LINE",
"96 700 LINE",
"30 700 LINE",
"271 307 LINE",
"271 0 LINE",
"327 0 LINE",
"327 309 LINE",
"568 700 LINE"
);
}
);
};
layerId = "ECFE7DEB-F40D-44C7-B7CF-D3B40F3B51F8";
paths = (
{
closed = 1;
nodes = (
"404 0 LINE",
"404 280 LINE",
"632 700 LINE",
"458 700 LINE",
"323 424 LINE",
"188 700 LINE",
"14 700 LINE",
"243 280 LINE",
"243 0 LINE"
);
}
);
width = 646;
},
{
anchors = (
{
name = bottom;
position = "{286, 0}";
},
{
name = top;
position = "{286, 700}";
}
);
layerId = "E6340435-1C2D-4187-91B6-2B8E20EF3542";
paths = (
{
closed = 1;
nodes = (
"333 0 LINE",
"333 278 LINE",
"555 700 LINE",
"453 700 LINE",
"286 366 LINE",
"119 700 LINE",
"17 700 LINE",
"240 278 LINE",
"240 0 LINE"
);
}
);
width = 573;
},
{
anchors = (
{
name = bottom;
position = "{279, 0}";
},
{
name = top;
position = "{398, 700}";
}
);
background = {
paths = (
{
closed = 1;
nodes = (
"502 700 LINE",
"299 357 LINE",
"96 700 LINE",
"30 700 LINE",
"271 307 LINE",
"271 0 LINE",
"327 0 LINE",
"327 309 LINE",
"568 700 LINE"
);
}
);
};
layerId = "CAD36325-8B27-45AE-AB38-7E116081C841";
paths = (
{
closed = 1;
nodes = (
"360 0 LINE",
"409 280 LINE",
"711 700 LINE",
"533 700 LINE",
"353 444 LINE",
"263 700 LINE",
"93 700 LINE",
"248 280 LINE",
"199 0 LINE"
);
}
);
width = 646;
},
{
anchors = (
{
name = bottom;
position = "{242, 0}";
},
{
name = top;
position = "{365, 700}";
}
);
layerId = "BC946E28-F4D1-4B1D-9CE5-1B4AE2F9B39A";
paths = (
{
closed = 1;
nodes = (
"289 0 LINE",
"338 278 LINE",
"634 700 LINE",
"530 700 LINE",
"304 366 LINE",
"196 700 LINE",
"96 700 LINE",
"245 278 LINE",
"196 0 LINE"
);
}
);
width = 573;
},
{
anchors = (
{
name = bottom;
position = "{215, 0}";
},
{
name = top;
position = "{337, 700}";
}
);
background = {
paths = (
{
closed = 1;
nodes = (
"462 700 LINE",
"259 357 LINE",
"56 700 LINE",
"-10 700 LINE",
"231 307 LINE",
"231 0 LINE",
"287 0 LINE",
"287 309 LINE",
"528 700 LINE"
);
}
);
};
layerId = "1781F524-7973-4932-8D2B-6055E077B411";
paths = (
{
closed = 1;
nodes = (
"234 0 LINE",
"282 277 LINE",
"574 700 LINE",
"529 700 LINE",
"267 309 LINE",
"144 700 LINE",
"101 700 LINE",
"244 277 LINE",
"196 0 LINE"
);
}
);
width = 517;
}
);
leftKerningGroup = Y;
note = Y;
rightKerningGroup = Y;
unicode = 0059;
},
{
glyphname = Z;
lastChange = "2018-06-18 12:35:02 +0000";
layers = (
{
anchors = (
{
name = bottom;
position = "{272, 0}";
},
{
name = top;
position = "{272, 700}";
}
);
background = {
paths = (
{
closed = 1;
nodes = (
"105 49 LINE",
"579 660 LINE",
"579 700 LINE",
"69 700 LINE",
"60 651 LINE",
"505 651 LINE",
"30 38 LINE",
"30 0 LINE",
"586 0 LINE",
"598 49 LINE"
);
}
);
};
layerId = "0B1DFD06-3317-40CA-B510-4969A0718C16";
paths = (
{
closed = 1;
nodes = (
"500 0 LINE",
"500 35 LINE",
"87 35 LINE",
"487 667 LINE",
"487 700 LINE",
"74 700 LINE",
"74 665 LINE",
"445 665 LINE",
"44 31 LINE",
"44 0 LINE"
);
}
);
width = 544;
},
{
anchors = (
{
name = bottom;
position = "{300, 0}";
},
{
name = top;
position = "{300, 700}";
}
);
background = {
paths = (
{
closed = 1;
nodes = (
"115 49 LINE",
"589 660 LINE",
"589 700 LINE",
"79 700 LINE",
"70 651 LINE",
"515 651 LINE",
"40 38 LINE",
"40 0 LINE",
"596 0 LINE",
"608 49 LINE"
);
}
);
};
layerId = "ECFE7DEB-F40D-44C7-B7CF-D3B40F3B51F8";
paths = (
{
closed = 1;
nodes = (
"576 0 LINE",
"576 128 LINE",
"230 128 LINE",
"563 622 LINE",
"563 700 LINE",
"52 700 LINE",
"52 572 LINE",
"361 572 LINE",
"24 76 LINE",
"24 0 LINE"
);
}
);
width = 600;
},
{
anchors = (
{
name = bottom;
position = "{283, 0}";
},
{
name = top;
position = "{283, 700}";
}
);
layerId = "E6340435-1C2D-4187-91B6-2B8E20EF3542";
paths = (
{
closed = 1;
nodes = (
"533 0 LINE",
"533 76 LINE",
"149 76 LINE",
"520 647 LINE",
"520 700 LINE",
"63 700 LINE",
"63 624 LINE",
"406 624 LINE",
"34 51 LINE",
"34 0 LINE"
);
}
);
width = 567;
},
{
anchors = (
{
name = bottom;
position = "{256, 0}";
},
{
name = top;
position = "{379, 700}";
}
);
background = {
paths = (
{
closed = 1;
nodes = (
"115 49 LINE",
"589 660 LINE",
"589 700 LINE",
"79 700 LINE",
"70 651 LINE",
"515 651 LINE",
"40 38 LINE",
"40 0 LINE",
"596 0 LINE",
"608 49 LINE"
);
}
);
};
layerId = "CAD36325-8B27-45AE-AB38-7E116081C841";
paths = (
{
closed = 1;
nodes = (
"532 0 LINE",
"555 128 LINE",
"212 128 LINE",
"629 622 LINE",
"642 700 LINE",
"131 700 LINE",
"109 572 LINE",
"415 572 LINE",
"-7 76 LINE",
"-20 0 LINE"
);
}
);
width = 600;
},
{
anchors = (
{
name = bottom;
position = "{239, 0}";
},
{
name = top;
position = "{362, 700}";
}
);
layerId = "BC946E28-F4D1-4B1D-9CE5-1B4AE2F9B39A";
paths = (
{
closed = 1;
nodes = (
"489 0 LINE",
"502 76 LINE",
"120 76 LINE",
"590 647 LINE",
"599 700 LINE",
"142 700 LINE",
"129 624 LINE",
"471 624 LINE",
"-1 51 LINE",
"-10 0 LINE"
);
}
);
width = 567;
},
{
anchors = (
{
name = bottom;
position = "{228, 0}";
},
{
name = top;
position = "{351, 700}";
}
);
background = {
paths = (
{
closed = 1;
nodes = (
"105 49 LINE",
"579 660 LINE",
"579 700 LINE",
"69 700 LINE",
"60 651 LINE",
"505 651 LINE",
"30 38 LINE",
"30 0 LINE",
"586 0 LINE",
"598 49 LINE"
);
}
);
};
layerId = "1781F524-7973-4932-8D2B-6055E077B411";
paths = (
{
closed = 1;
nodes = (
"456 0 LINE",
"462 35 LINE",
"54 35 LINE",
"561 667 LINE",
"566 700 LINE",
"153 700 LINE",
"147 665 LINE",
"513 665 LINE",
"5 31 LINE",
"0 0 LINE"
);
}
);
width = 544;
}
);
note = Z;
unicode = 005A;
},
{
glyphname = a;
lastChange = "2018-06-18 12:35:37 +0000";
layers = (
{
anchors = (
{
name = bottom;
position = "{246, 0}";
},
{
name = ogonek;
position = "{420, 0}";
},
{
name = top;
position = "{249, 500}";
}
);
background = {
paths = (
{
closed = 1;
nodes = (
"447 0 LINE",
"435 40 OFFCURVE",
"429 81 OFFCURVE",
"429 122 CURVE SMOOTH",
"429 301 LINE SMOOTH",
"429 441 OFFCURVE",
"366 510 OFFCURVE",
"240 510 CURVE SMOOTH",
"181 510 OFFCURVE",
"123 501 OFFCURVE",
"69 484 CURVE",
"76 431 LINE",
"148 453 OFFCURVE",
"201 465 OFFCURVE",
"235 465 CURVE SMOOTH",
"290 465 OFFCURVE",
"328 445 OFFCURVE",
"350 406 CURVE SMOOTH",
"365 381 OFFCURVE",
"372 353 OFFCURVE",
"372 320 CURVE SMOOTH",
"372 312 LINE",
"363 312 LINE SMOOTH",
"147 312 OFFCURVE",
"38 250 OFFCURVE",
"38 125 CURVE SMOOTH",
"38 38 OFFCURVE",
"110 -13 OFFCURVE",
"197 -13 CURVE SMOOTH",
"270 -13 OFFCURVE",
"329 15 OFFCURVE",
"375 71 CURVE",
"395 -10 LINE"
);
},
{
closed = 1;
nodes = (
"372 162 LINE SMOOTH",
"372 154 OFFCURVE",
"369 144 OFFCURVE",
"365 134 CURVE SMOOTH",
"334 68 OFFCURVE",
"279 35 OFFCURVE",
"201 35 CURVE SMOOTH",
"143 35 OFFCURVE",
"98 71 OFFCURVE",
"98 135 CURVE SMOOTH",
"98 219 OFFCURVE",
"190 262 OFFCURVE",
"372 262 CURVE"
);
}
);
};
layerId = "0B1DFD06-3317-40CA-B510-4969A0718C16";
paths = (
{
closed = 1;
nodes = (
"287 -10 OFFCURVE",
"347 24 OFFCURVE",
"384 82 CURVE",
"386 82 LINE",
"390 39 OFFCURVE",
"394 14 OFFCURVE",
"399 0 CURVE",
"431 0 LINE",
"423 39 OFFCURVE",
"420 63 OFFCURVE",
"420 88 CURVE SMOOTH",
"420 337 LINE SMOOTH",
"420 445 OFFCURVE",
"353 510 OFFCURVE",
"243 510 CURVE SMOOTH",
"167 510 OFFCURVE",
"107 477 OFFCURVE",
"73 418 CURVE",
"100 391 LINE",
"128 443 OFFCURVE",
"180 475 OFFCURVE",
"239 475 CURVE SMOOTH",
"332 475 OFFCURVE",
"382 422 OFFCURVE",
"382 325 CURVE SMOOTH",
"382 294 LINE",
"251 294 LINE SMOOTH",
"127 294 OFFCURVE",
"53 236 OFFCURVE",
"53 138 CURVE SMOOTH",
"53 50 OFFCURVE",
"120 -10 OFFCURVE",
"218 -10 CURVE SMOOTH"
);
},
{
closed = 1;
nodes = (
"141 24 OFFCURVE",
"90 71 OFFCURVE",
"90 138 CURVE SMOOTH",
"90 214 OFFCURVE",
"149 259 OFFCURVE",
"248 259 CURVE SMOOTH",
"382 259 LINE",
"382 160 LINE SMOOTH",
"382 88 OFFCURVE",
"302 24 OFFCURVE",
"212 24 CURVE SMOOTH"
);
}
);
width = 502;
},
{
anchors = (
{
name = bottom;
position = "{265, 0}";
},
{
name = ogonek;
position = "{418, 0}";
},
{
name = top;
position = "{263, 500}";
}
);
background = {
paths = (
{
closed = 1;
nodes = (
"447 0 LINE",
"435 40 OFFCURVE",
"429 81 OFFCURVE",
"429 122 CURVE SMOOTH",
"429 301 LINE SMOOTH",
"429 441 OFFCURVE",
"366 510 OFFCURVE",
"240 510 CURVE SMOOTH",
"181 510 OFFCURVE",
"123 501 OFFCURVE",
"69 484 CURVE",
"76 431 LINE",
"148 453 OFFCURVE",
"201 465 OFFCURVE",
"235 465 CURVE SMOOTH",
"290 465 OFFCURVE",
"328 445 OFFCURVE",
"350 406 CURVE SMOOTH",
"365 381 OFFCURVE",
"372 353 OFFCURVE",
"372 320 CURVE SMOOTH",
"372 312 LINE",
"363 312 LINE SMOOTH",
"147 312 OFFCURVE",
"38 250 OFFCURVE",
"38 125 CURVE SMOOTH",
"38 38 OFFCURVE",
"110 -13 OFFCURVE",
"197 -13 CURVE SMOOTH",
"270 -13 OFFCURVE",
"329 15 OFFCURVE",
"375 71 CURVE",
"395 -10 LINE"
);
},
{
closed = 1;
nodes = (
"372 162 LINE SMOOTH",
"372 154 OFFCURVE",
"369 144 OFFCURVE",
"365 134 CURVE SMOOTH",
"334 68 OFFCURVE",
"279 35 OFFCURVE",
"201 35 CURVE SMOOTH",
"143 35 OFFCURVE",
"98 71 OFFCURVE",
"98 135 CURVE SMOOTH",
"98 219 OFFCURVE",
"190 262 OFFCURVE",
"372 262 CURVE"
);
}
);
};
layerId = "ECFE7DEB-F40D-44C7-B7CF-D3B40F3B51F8";
paths = (
{
closed = 1;
nodes = (
"262 -10 OFFCURVE",
"311 11 OFFCURVE",
"349 56 CURVE",
"351 56 LINE",
"354 31 OFFCURVE",
"356 20 OFFCURVE",
"365 0 CURVE",
"492 0 LINE",
"485 26 OFFCURVE",
"479 78 OFFCURVE",
"479 108 CURVE SMOOTH",
"479 326 LINE SMOOTH",
"479 447 OFFCURVE",
"403 510 OFFCURVE",
"259 510 CURVE SMOOTH",
"174 510 OFFCURVE",
"98 481 OFFCURVE",
"39 427 CURVE",
"100 346 LINE",
"138 383 OFFCURVE",
"191 402 OFFCURVE",
"255 402 CURVE SMOOTH",
"309 402 OFFCURVE",
"337 377 OFFCURVE",
"337 330 CURVE SMOOTH",
"337 310 LINE",
"267 310 LINE SMOOTH",
"112 310 OFFCURVE",
"27 254 OFFCURVE",
"27 151 CURVE SMOOTH",
"27 58 OFFCURVE",
"99 -10 OFFCURVE",
"198 -10 CURVE SMOOTH"
);
},
{
closed = 1;
nodes = (
"191 95 OFFCURVE",
"166 115 OFFCURVE",
"166 151 CURVE SMOOTH",
"166 194 OFFCURVE",
"200 217 OFFCURVE",
"263 217 CURVE SMOOTH",
"337 217 LINE",
"337 175 LINE SMOOTH",
"337 129 OFFCURVE",
"295 95 OFFCURVE",
"236 95 CURVE SMOOTH"
);
}
);
width = 534;
},
{
anchors = (
{
name = bottom;
position = "{255, 0}";
},
{
name = ogonek;
position = "{416, 0}";
},
{
name = top;
position = "{254, 500}";
}
);
layerId = "E6340435-1C2D-4187-91B6-2B8E20EF3542";
paths = (
{
closed = 1;
nodes = (
"274 -10 OFFCURVE",
"330 18 OFFCURVE",
"368 70 CURVE",
"370 70 LINE",
"373 38 OFFCURVE",
"377 16 OFFCURVE",
"383 0 CURVE",
"457 0 LINE",
"450 34 OFFCURVE",
"445 70 OFFCURVE",
"445 97 CURVE SMOOTH",
"445 332 LINE SMOOTH",
"445 446 OFFCURVE",
"375 510 OFFCURVE",
"249 510 CURVE SMOOTH",
"169 510 OFFCURVE",
"102 479 OFFCURVE",
"57 422 CURVE",
"100 370 LINE",
"133 417 OFFCURVE",
"185 442 OFFCURVE",
"245 442 CURVE SMOOTH",
"320 442 OFFCURVE",
"360 402 OFFCURVE",
"360 327 CURVE SMOOTH",
"360 301 LINE",
"257 301 LINE SMOOTH",
"119 301 OFFCURVE",
"40 244 OFFCURVE",
"40 144 CURVE SMOOTH",
"40 54 OFFCURVE",
"109 -10 OFFCURVE",
"208 -10 CURVE SMOOTH"
);
},
{
closed = 1;
nodes = (
"161 57 OFFCURVE",
"123 91 OFFCURVE",
"123 144 CURVE SMOOTH",
"123 206 OFFCURVE",
"170 240 OFFCURVE",
"254 240 CURVE SMOOTH",
"360 240 LINE",
"360 166 LINE SMOOTH",
"360 106 OFFCURVE",
"298 57 OFFCURVE",
"221 57 CURVE SMOOTH"
);
}
);
width = 514;
},
{
anchors = (
{
name = bottom;
position = "{221, 0}";
},
{
name = ogonek;
position = "{374, 0}";
},
{
name = top;
position = "{307, 500}";
}
);
background = {
paths = (
{
closed = 1;
nodes = (
"447 0 LINE",
"435 40 OFFCURVE",
"429 81 OFFCURVE",
"429 122 CURVE SMOOTH",
"429 301 LINE SMOOTH",
"429 441 OFFCURVE",
"366 510 OFFCURVE",
"240 510 CURVE SMOOTH",
"181 510 OFFCURVE",
"123 501 OFFCURVE",
"69 484 CURVE",
"76 431 LINE",
"148 453 OFFCURVE",
"201 465 OFFCURVE",
"235 465 CURVE SMOOTH",
"290 465 OFFCURVE",
"328 445 OFFCURVE",
"350 406 CURVE SMOOTH",
"365 381 OFFCURVE",
"372 353 OFFCURVE",
"372 320 CURVE SMOOTH",
"372 312 LINE",
"363 312 LINE SMOOTH",
"147 312 OFFCURVE",
"38 250 OFFCURVE",
"38 125 CURVE SMOOTH",
"38 38 OFFCURVE",
"110 -13 OFFCURVE",
"197 -13 CURVE SMOOTH",
"270 -13 OFFCURVE",
"329 15 OFFCURVE",
"375 71 CURVE",
"395 -10 LINE"
);
},
{
closed = 1;
nodes = (
"372 162 LINE SMOOTH",
"372 154 OFFCURVE",
"369 144 OFFCURVE",
"365 134 CURVE SMOOTH",
"334 68 OFFCURVE",
"279 35 OFFCURVE",
"201 35 CURVE SMOOTH",
"143 35 OFFCURVE",
"98 71 OFFCURVE",
"98 135 CURVE SMOOTH",
"98 219 OFFCURVE",
"190 262 OFFCURVE",
"372 262 CURVE"
);
}
);
};
layerId = "CAD36325-8B27-45AE-AB38-7E116081C841";
paths = (
{
closed = 1;
nodes = (
"217 -10 OFFCURVE",
"269 11 OFFCURVE",
"315 56 CURVE",
"317 56 LINE",
"316 29 OFFCURVE",
"317 15 OFFCURVE",
"321 0 CURVE",
"448 0 LINE",
"446 24 OFFCURVE",
"449 70 OFFCURVE",
"454 108 CURVE SMOOTH",
"493 326 LINE SMOOTH",
"515 444 OFFCURVE",
"445 510 OFFCURVE",
"299 510 CURVE SMOOTH",
"210 510 OFFCURVE",
"130 482 OFFCURVE",
"69 430 CURVE",
"117 346 LINE",
"162 383 OFFCURVE",
"218 402 OFFCURVE",
"282 402 CURVE SMOOTH",
"335 402 OFFCURVE",
"358 378 OFFCURVE",
"351 330 CURVE SMOOTH",
"348 310 LINE",
"278 310 LINE SMOOTH",
"106 310 OFFCURVE",
"7 243 OFFCURVE",
"7 127 CURVE SMOOTH",
"7 47 OFFCURVE",
"68 -10 OFFCURVE",
"152 -10 CURVE SMOOTH"
);
},
{
closed = 1;
nodes = (
"170 95 OFFCURVE",
"148 111 OFFCURVE",
"148 139 CURVE SMOOTH",
"148 187 OFFCURVE",
"189 217 OFFCURVE",
"257 217 CURVE SMOOTH",
"331 217 LINE",
"324 175 LINE SMOOTH",
"316 129 OFFCURVE",
"268 95 OFFCURVE",
"209 95 CURVE SMOOTH"
);
}
);
width = 534;
},
{
anchors = (
{
name = bottom;
position = "{211, 0}";
},
{
name = ogonek;
position = "{372, 0}";
},
{
name = top;
position = "{298, 500}";
}
);
layerId = "BC946E28-F4D1-4B1D-9CE5-1B4AE2F9B39A";
paths = (
{
closed = 1;
nodes = (
"232 -10 OFFCURVE",
"287 16 OFFCURVE",
"337 70 CURVE",
"339 70 LINE",
"336 38 OFFCURVE",
"336 17 OFFCURVE",
"339 0 CURVE",
"413 0 LINE",
"412 34 OFFCURVE",
"414 72 OFFCURVE",
"418 97 CURVE SMOOTH",
"460 332 LINE SMOOTH",
"480 444 OFFCURVE",
"417 510 OFFCURVE",
"289 510 CURVE SMOOTH",
"208 510 OFFCURVE",
"137 479 OFFCURVE",
"88 422 CURVE",
"121 370 LINE",
"163 417 OFFCURVE",
"218 442 OFFCURVE",
"279 442 CURVE SMOOTH",
"354 442 OFFCURVE",
"388 402 OFFCURVE",
"374 327 CURVE SMOOTH",
"369 301 LINE",
"266 301 LINE SMOOTH",
"113 301 OFFCURVE",
"19 233 OFFCURVE",
"19 121 CURVE SMOOTH",
"19 45 OFFCURVE",
"82 -10 OFFCURVE",
"168 -10 CURVE SMOOTH"
);
},
{
closed = 1;
nodes = (
"135 57 OFFCURVE",
"103 83 OFFCURVE",
"103 126 CURVE SMOOTH",
"103 196 OFFCURVE",
"161 240 OFFCURVE",
"253 240 CURVE SMOOTH",
"359 240 LINE",
"346 166 LINE SMOOTH",
"336 106 OFFCURVE",
"264 57 OFFCURVE",
"187 57 CURVE SMOOTH"
);
}
);
width = 514;
},
{
anchors = (
{
name = bottom;
position = "{202, 0}";
},
{
name = ogonek;
position = "{376, 0}";
},
{
name = top;
position = "{293, 500}";
}
);
background = {
paths = (
{
closed = 1;
nodes = (
"447 0 LINE",
"435 40 OFFCURVE",
"429 81 OFFCURVE",
"429 122 CURVE SMOOTH",
"429 301 LINE SMOOTH",
"429 441 OFFCURVE",
"366 510 OFFCURVE",
"240 510 CURVE SMOOTH",
"181 510 OFFCURVE",
"123 501 OFFCURVE",
"69 484 CURVE",
"76 431 LINE",
"148 453 OFFCURVE",
"201 465 OFFCURVE",
"235 465 CURVE SMOOTH",
"290 465 OFFCURVE",
"328 445 OFFCURVE",
"350 406 CURVE SMOOTH",
"365 381 OFFCURVE",
"372 353 OFFCURVE",
"372 320 CURVE SMOOTH",
"372 312 LINE",
"363 312 LINE SMOOTH",
"147 312 OFFCURVE",
"38 250 OFFCURVE",
"38 125 CURVE SMOOTH",
"38 38 OFFCURVE",
"110 -13 OFFCURVE",
"197 -13 CURVE SMOOTH",
"270 -13 OFFCURVE",
"329 15 OFFCURVE",
"375 71 CURVE",
"395 -10 LINE"
);
},
{
closed = 1;
nodes = (
"372 162 LINE SMOOTH",
"372 154 OFFCURVE",
"369 144 OFFCURVE",
"365 134 CURVE SMOOTH",
"334 68 OFFCURVE",
"279 35 OFFCURVE",
"201 35 CURVE SMOOTH",
"143 35 OFFCURVE",
"98 71 OFFCURVE",
"98 135 CURVE SMOOTH",
"98 219 OFFCURVE",
"190 262 OFFCURVE",
"372 262 CURVE"
);
}
);
};
layerId = "1781F524-7973-4932-8D2B-6055E077B411";
paths = (
{
closed = 1;
nodes = (
"238 -10 OFFCURVE",
"305 22 OFFCURVE",
"355 82 CURVE",
"357 82 LINE",
"353 43 OFFCURVE",
"353 16 OFFCURVE",
"355 0 CURVE",
"387 0 LINE",
"386 36 OFFCURVE",
"388 63 OFFCURVE",
"392 88 CURVE SMOOTH",
"436 337 LINE SMOOTH",
"454 442 OFFCURVE",
"396 510 OFFCURVE",
"282 510 CURVE SMOOTH",
"208 510 OFFCURVE",
"147 478 OFFCURVE",
"103 418 CURVE",
"125 391 LINE",
"162 443 OFFCURVE",
"221 475 OFFCURVE",
"279 475 CURVE SMOOTH",
"370 475 OFFCURVE",
"411 426 OFFCURVE",
"395 325 CURVE SMOOTH",
"390 294 LINE",
"259 294 LINE SMOOTH",
"123 294 OFFCURVE",
"31 228 OFFCURVE",
"31 119 CURVE SMOOTH",
"31 45 OFFCURVE",
"84 -10 OFFCURVE",
"171 -10 CURVE SMOOTH"
);
},
{
closed = 1;
nodes = (
"109 24 OFFCURVE",
"69 67 OFFCURVE",
"69 125 CURVE SMOOTH",
"69 211 OFFCURVE",
"142 259 OFFCURVE",
"250 259 CURVE SMOOTH",
"384 259 LINE",
"366 160 LINE SMOOTH",
"354 94 OFFCURVE",
"265 24 OFFCURVE",
"176 24 CURVE SMOOTH"
);
}
);
width = 502;
}
);
leftKerningGroup = a;
note = a;
rightKerningGroup = a;
unicode = 0061;
},
{
glyphname = b;
lastChange = "2018-06-18 12:36:18 +0000";
layers = (
{
anchors = (
{
name = bottom;
position = "{262, 0}";
},
{
name = top;
position = "{260, 742}";
}
);
background = {
paths = (
{
closed = 1;
nodes = (
"546 403 OFFCURVE",
"461 510 OFFCURVE",
"321 510 CURVE SMOOTH",
"238 510 OFFCURVE",
"174 475 OFFCURVE",
"132 404 CURVE",
"132 742 LINE",
"74 742 LINE",
"74 122 LINE SMOOTH",
"74 66 OFFCURVE",
"73 25 OFFCURVE",
"70 0 CURVE",
"123 0 LINE",
"124 25 OFFCURVE",
"126 54 OFFCURVE",
"126 88 CURVE",
"171 21 OFFCURVE",
"235 -13 OFFCURVE",
"313 -13 CURVE SMOOTH",
"455 -13 OFFCURVE",
"546 96 OFFCURVE",
"546 256 CURVE SMOOTH"
);
},
{
closed = 1;
nodes = (
"490 109 OFFCURVE",
"429 35 OFFCURVE",
"305 35 CURVE SMOOTH",
"207 35 OFFCURVE",
"132 106 OFFCURVE",
"132 200 CURVE SMOOTH",
"132 284 LINE SMOOTH",
"132 338 OFFCURVE",
"151 382 OFFCURVE",
"189 416 CURVE",
"223 448 OFFCURVE",
"264 465 OFFCURVE",
"311 465 CURVE SMOOTH",
"424 465 OFFCURVE",
"490 378 OFFCURVE",
"490 254 CURVE SMOOTH"
);
}
);
};
layerId = "0B1DFD06-3317-40CA-B510-4969A0718C16";
paths = (
{
closed = 1;
nodes = (
"404 -10 OFFCURVE",
"486 96 OFFCURVE",
"486 259 CURVE SMOOTH",
"486 412 OFFCURVE",
"404 510 OFFCURVE",
"275 510 CURVE SMOOTH",
"206 510 OFFCURVE",
"149 476 OFFCURVE",
"116 416 CURVE",
"114 416 LINE",
"114 742 LINE",
"76 742 LINE",
"76 120 LINE SMOOTH",
"76 65 OFFCURVE",
"75 26 OFFCURVE",
"73 0 CURVE",
"105 0 LINE",
"107 25 OFFCURVE",
"108 57 OFFCURVE",
"108 93 CURVE",
"110 93 LINE",
"136 33 OFFCURVE",
"205 -10 OFFCURVE",
"277 -10 CURVE SMOOTH"
);
},
{
closed = 1;
nodes = (
"178 24 OFFCURVE",
"114 92 OFFCURVE",
"114 200 CURVE SMOOTH",
"114 279 LINE SMOOTH",
"114 400 OFFCURVE",
"177 476 OFFCURVE",
"279 476 CURVE SMOOTH",
"382 476 OFFCURVE",
"448 390 OFFCURVE",
"448 257 CURVE SMOOTH",
"448 117 OFFCURVE",
"380 24 OFFCURVE",
"279 24 CURVE SMOOTH"
);
}
);
width = 530;
},
{
anchors = (
{
name = bottom;
position = "{292, 0}";
},
{
name = top;
position = "{306, 742}";
}
);
background = {
paths = (
{
closed = 1;
nodes = (
"542 403 OFFCURVE",
"457 510 OFFCURVE",
"317 510 CURVE SMOOTH",
"234 510 OFFCURVE",
"170 475 OFFCURVE",
"128 404 CURVE",
"128 742 LINE",
"70 742 LINE",
"70 122 LINE SMOOTH",
"70 66 OFFCURVE",
"69 25 OFFCURVE",
"66 0 CURVE",
"119 0 LINE",
"120 25 OFFCURVE",
"122 54 OFFCURVE",
"122 88 CURVE",
"167 21 OFFCURVE",
"231 -13 OFFCURVE",
"309 -13 CURVE SMOOTH",
"451 -13 OFFCURVE",
"542 96 OFFCURVE",
"542 256 CURVE SMOOTH"
);
},
{
closed = 1;
nodes = (
"486 109 OFFCURVE",
"425 35 OFFCURVE",
"301 35 CURVE SMOOTH",
"203 35 OFFCURVE",
"128 106 OFFCURVE",
"128 200 CURVE SMOOTH",
"128 284 LINE SMOOTH",
"128 338 OFFCURVE",
"147 382 OFFCURVE",
"185 416 CURVE",
"219 448 OFFCURVE",
"260 465 OFFCURVE",
"307 465 CURVE SMOOTH",
"420 465 OFFCURVE",
"486 378 OFFCURVE",
"486 254 CURVE SMOOTH"
);
}
);
};
layerId = "ECFE7DEB-F40D-44C7-B7CF-D3B40F3B51F8";
paths = (
{
closed = 1;
nodes = (
"459 -10 OFFCURVE",
"538 90 OFFCURVE",
"538 258 CURVE SMOOTH",
"538 416 OFFCURVE",
"462 510 OFFCURVE",
"334 510 CURVE SMOOTH",
"267 510 OFFCURVE",
"218 491 OFFCURVE",
"192 454 CURVE",
"190 454 LINE",
"190 742 LINE",
"48 742 LINE",
"48 135 LINE SMOOTH",
"48 73 OFFCURVE",
"47 18 OFFCURVE",
"45 0 CURVE",
"179 0 LINE",
"180 15 OFFCURVE",
"180 38 OFFCURVE",
"180 62 CURVE",
"182 62 LINE",
"212 19 OFFCURVE",
"270 -10 OFFCURVE",
"327 -10 CURVE SMOOTH"
);
},
{
closed = 1;
nodes = (
"233 98 OFFCURVE",
"190 138 OFFCURVE",
"190 199 CURVE SMOOTH",
"190 306 LINE SMOOTH",
"190 361 OFFCURVE",
"238 405 OFFCURVE",
"298 405 CURVE SMOOTH",
"363 405 OFFCURVE",
"397 353 OFFCURVE",
"397 256 CURVE SMOOTH",
"397 153 OFFCURVE",
"363 98 OFFCURVE",
"298 98 CURVE SMOOTH"
);
}
);
width = 563;
},
{
anchors = (
{
name = bottom;
position = "{275, 0}";
},
{
name = top;
position = "{279, 742}";
}
);
layerId = "E6340435-1C2D-4187-91B6-2B8E20EF3542";
paths = (
{
closed = 1;
nodes = (
"428 -10 OFFCURVE",
"508 93 OFFCURVE",
"508 259 CURVE SMOOTH",
"508 414 OFFCURVE",
"428 510 OFFCURVE",
"300 510 CURVE SMOOTH",
"233 510 OFFCURVE",
"182 484 OFFCURVE",
"149 433 CURVE",
"147 433 LINE",
"147 742 LINE",
"62 742 LINE",
"62 126 LINE SMOOTH",
"62 68 OFFCURVE",
"61 22 OFFCURVE",
"59 0 CURVE",
"137 0 LINE",
"139 28 OFFCURVE",
"140 55 OFFCURVE",
"139 79 CURVE",
"141 79 LINE",
"171 26 OFFCURVE",
"235 -10 OFFCURVE",
"298 -10 CURVE SMOOTH"
);
},
{
closed = 1;
nodes = (
"201 58 OFFCURVE",
"147 113 OFFCURVE",
"147 200 CURVE SMOOTH",
"147 291 LINE SMOOTH",
"147 383 OFFCURVE",
"203 445 OFFCURVE",
"286 445 CURVE SMOOTH",
"372 445 OFFCURVE",
"423 375 OFFCURVE",
"423 257 CURVE SMOOTH",
"423 133 OFFCURVE",
"371 58 OFFCURVE",
"286 58 CURVE SMOOTH"
);
}
);
width = 542;
},
{
anchors = (
{
name = bottom;
position = "{248, 0}";
},
{
name = top;
position = "{393, 742}";
}
);
background = {
paths = (
{
closed = 1;
nodes = (
"542 403 OFFCURVE",
"457 510 OFFCURVE",
"317 510 CURVE SMOOTH",
"234 510 OFFCURVE",
"170 475 OFFCURVE",
"128 404 CURVE",
"128 742 LINE",
"70 742 LINE",
"70 122 LINE SMOOTH",
"70 66 OFFCURVE",
"69 25 OFFCURVE",
"66 0 CURVE",
"119 0 LINE",
"120 25 OFFCURVE",
"122 54 OFFCURVE",
"122 88 CURVE",
"167 21 OFFCURVE",
"231 -13 OFFCURVE",
"309 -13 CURVE SMOOTH",
"451 -13 OFFCURVE",
"542 96 OFFCURVE",
"542 256 CURVE SMOOTH"
);
},
{
closed = 1;
nodes = (
"486 109 OFFCURVE",
"425 35 OFFCURVE",
"301 35 CURVE SMOOTH",
"203 35 OFFCURVE",
"128 106 OFFCURVE",
"128 200 CURVE SMOOTH",
"128 284 LINE SMOOTH",
"128 338 OFFCURVE",
"147 382 OFFCURVE",
"185 416 CURVE",
"219 448 OFFCURVE",
"260 465 OFFCURVE",
"307 465 CURVE SMOOTH",
"420 465 OFFCURVE",
"486 378 OFFCURVE",
"486 254 CURVE SMOOTH"
);
}
);
};
layerId = "CAD36325-8B27-45AE-AB38-7E116081C841";
paths = (
{
closed = 1;
nodes = (
"436 -10 OFFCURVE",
"546 135 OFFCURVE",
"546 330 CURVE SMOOTH",
"546 443 OFFCURVE",
"482 510 OFFCURVE",
"374 510 CURVE SMOOTH",
"311 510 OFFCURVE",
"265 487 OFFCURVE",
"228 454 CURVE",
"226 454 LINE",
"277 742 LINE",
"135 742 LINE",
"28 135 LINE SMOOTH",
"17 73 OFFCURVE",
"6 20 OFFCURVE",
"1 0 CURVE",
"135 0 LINE",
"140 21 OFFCURVE",
"143 41 OFFCURVE",
"147 62 CURVE",
"149 62 LINE",
"171 19 OFFCURVE",
"231 -10 OFFCURVE",
"287 -10 CURVE SMOOTH"
);
},
{
closed = 1;
nodes = (
"206 98 OFFCURVE",
"170 139 OFFCURVE",
"181 199 CURVE SMOOTH",
"200 306 LINE SMOOTH",
"210 361 OFFCURVE",
"266 405 OFFCURVE",
"325 405 CURVE SMOOTH",
"376 405 OFFCURVE",
"403 373 OFFCURVE",
"403 310 CURVE SMOOTH",
"403 190 OFFCURVE",
"346 98 OFFCURVE",
"271 98 CURVE SMOOTH"
);
}
);
width = 563;
},
{
anchors = (
{
name = bottom;
position = "{231, 0}";
},
{
name = top;
position = "{366, 742}";
}
);
layerId = "BC946E28-F4D1-4B1D-9CE5-1B4AE2F9B39A";
paths = (
{
closed = 1;
nodes = (
"405 -10 OFFCURVE",
"516 132 OFFCURVE",
"516 320 CURVE SMOOTH",
"516 436 OFFCURVE",
"447 510 OFFCURVE",
"340 510 CURVE SMOOTH",
"269 510 OFFCURVE",
"214 484 OFFCURVE",
"181 433 CURVE",
"179 433 LINE",
"234 742 LINE",
"149 742 LINE",
"40 126 LINE SMOOTH",
"32 77 OFFCURVE",
"21 25 OFFCURVE",
"15 0 CURVE",
"93 0 LINE",
"98 19 OFFCURVE",
"101 36 OFFCURVE",
"109 79 CURVE",
"111 79 LINE",
"131 27 OFFCURVE",
"193 -10 OFFCURVE",
"258 -10 CURVE SMOOTH"
);
},
{
closed = 1;
nodes = (
"167 58 OFFCURVE",
"123 113 OFFCURVE",
"138 200 CURVE SMOOTH",
"154 291 LINE SMOOTH",
"170 382 OFFCURVE",
"237 445 OFFCURVE",
"320 445 CURVE SMOOTH",
"390 445 OFFCURVE",
"430 398 OFFCURVE",
"430 315 CURVE SMOOTH",
"430 173 OFFCURVE",
"350 58 OFFCURVE",
"252 58 CURVE SMOOTH"
);
}
);
width = 542;
},
{
anchors = (
{
name = bottom;
position = "{218, 0}";
},
{
name = top;
position = "{347, 742}";
}
);
background = {
paths = (
{
closed = 1;
nodes = (
"546 403 OFFCURVE",
"461 510 OFFCURVE",
"321 510 CURVE SMOOTH",
"238 510 OFFCURVE",
"174 475 OFFCURVE",
"132 404 CURVE",
"132 742 LINE",
"74 742 LINE",
"74 122 LINE SMOOTH",
"74 66 OFFCURVE",
"73 25 OFFCURVE",
"70 0 CURVE",
"123 0 LINE",
"124 25 OFFCURVE",
"126 54 OFFCURVE",
"126 88 CURVE",
"171 21 OFFCURVE",
"235 -13 OFFCURVE",
"313 -13 CURVE SMOOTH",
"455 -13 OFFCURVE",
"546 96 OFFCURVE",
"546 256 CURVE SMOOTH"
);
},
{
closed = 1;
nodes = (
"490 109 OFFCURVE",
"429 35 OFFCURVE",
"305 35 CURVE SMOOTH",
"207 35 OFFCURVE",
"132 106 OFFCURVE",
"132 200 CURVE SMOOTH",
"132 284 LINE SMOOTH",
"132 338 OFFCURVE",
"151 382 OFFCURVE",
"189 416 CURVE",
"223 448 OFFCURVE",
"264 465 OFFCURVE",
"311 465 CURVE SMOOTH",
"424 465 OFFCURVE",
"490 378 OFFCURVE",
"490 254 CURVE SMOOTH"
);
}
);
};
layerId = "1781F524-7973-4932-8D2B-6055E077B411";
paths = (
{
closed = 1;
nodes = (
"390 -10 OFFCURVE",
"494 146 OFFCURVE",
"494 314 CURVE SMOOTH",
"494 442 OFFCURVE",
"426 510 OFFCURVE",
"322 510 CURVE SMOOTH",
"249 510 OFFCURVE",
"190 477 OFFCURVE",
"145 416 CURVE",
"143 416 LINE",
"201 742 LINE",
"163 742 LINE",
"53 120 LINE SMOOTH",
"36 24 OFFCURVE",
"37 36 OFFCURVE",
"29 0 CURVE",
"61 0 LINE",
"69 33 OFFCURVE",
"76 70 OFFCURVE",
"80 93 CURVE",
"82 93 LINE",
"98 36 OFFCURVE",
"158 -10 OFFCURVE",
"232 -10 CURVE SMOOTH"
);
},
{
closed = 1;
nodes = (
"148 24 OFFCURVE",
"86 93 OFFCURVE",
"105 200 CURVE SMOOTH",
"119 279 LINE SMOOTH",
"140 399 OFFCURVE",
"218 476 OFFCURVE",
"318 476 CURVE SMOOTH",
"404 476 OFFCURVE",
"455 419 OFFCURVE",
"455 312 CURVE SMOOTH",
"455 166 OFFCURVE",
"370 24 OFFCURVE",
"231 24 CURVE SMOOTH"
);
}
);
width = 530;
}
);
note = b;
rightKerningGroup = b;
unicode = 0062;
},
{
glyphname = c;
lastChange = "2018-06-18 12:36:37 +0000";
layers = (
{
anchors = (
{
name = bottom;
position = "{261, 0}";
},
{
name = top;
position = "{261, 500}";
}
);
background = {
paths = (
{
closed = 1;
nodes = (
"361 46 OFFCURVE",
"316 34 OFFCURVE",
"261 34 CURVE SMOOTH",
"142 34 OFFCURVE",
"56 115 OFFCURVE",
"56 248 CURVE SMOOTH",
"56 382 OFFCURVE",
"142 463 OFFCURVE",
"261 463 CURVE SMOOTH",
"316 463 OFFCURVE",
"361 451 OFFCURVE",
"398 428 CURVE",
"419 475 LINE",
"376 498 OFFCURVE",
"325 510 OFFCURVE",
"264 510 CURVE SMOOTH",
"100 510 OFFCURVE",
"0 407 OFFCURVE",
"0 248 CURVE SMOOTH",
"0 90 OFFCURVE",
"100 -13 OFFCURVE",
"264 -13 CURVE SMOOTH",
"325 -13 OFFCURVE",
"376 -1 OFFCURVE",
"419 22 CURVE",
"398 69 LINE"
);
}
);
};
layerId = "0B1DFD06-3317-40CA-B510-4969A0718C16";
paths = (
{
closed = 1;
nodes = (
"337 -10 OFFCURVE",
"396 21 OFFCURVE",
"434 79 CURVE",
"411 103 LINE",
"379 53 OFFCURVE",
"324 24 OFFCURVE",
"261 24 CURVE SMOOTH",
"149 24 OFFCURVE",
"82 109 OFFCURVE",
"82 250 CURVE SMOOTH",
"82 391 OFFCURVE",
"149 476 OFFCURVE",
"261 476 CURVE SMOOTH",
"323 476 OFFCURVE",
"379 447 OFFCURVE",
"411 397 CURVE",
"434 421 LINE",
"396 479 OFFCURVE",
"337 510 OFFCURVE",
"262 510 CURVE SMOOTH",
"126 510 OFFCURVE",
"44 413 OFFCURVE",
"44 250 CURVE SMOOTH",
"44 86 OFFCURVE",
"125 -10 OFFCURVE",
"262 -10 CURVE SMOOTH"
);
}
);
width = 456;
},
{
anchors = (
{
name = bottom;
position = "{286, 0}";
},
{
name = top;
position = "{286, 500}";
}
);
background = {
paths = (
{
closed = 1;
nodes = (
"365 46 OFFCURVE",
"320 34 OFFCURVE",
"265 34 CURVE SMOOTH",
"146 34 OFFCURVE",
"60 115 OFFCURVE",
"60 248 CURVE SMOOTH",
"60 382 OFFCURVE",
"146 463 OFFCURVE",
"265 463 CURVE SMOOTH",
"320 463 OFFCURVE",
"365 451 OFFCURVE",
"402 428 CURVE",
"423 475 LINE",
"380 498 OFFCURVE",
"329 510 OFFCURVE",
"268 510 CURVE SMOOTH",
"104 510 OFFCURVE",
"4 407 OFFCURVE",
"4 248 CURVE SMOOTH",
"4 90 OFFCURVE",
"104 -13 OFFCURVE",
"268 -13 CURVE SMOOTH",
"329 -13 OFFCURVE",
"380 -1 OFFCURVE",
"423 22 CURVE",
"402 69 LINE"
);
}
);
};
layerId = "ECFE7DEB-F40D-44C7-B7CF-D3B40F3B51F8";
paths = (
{
closed = 1;
nodes = (
"375 -10 OFFCURVE",
"449 27 OFFCURVE",
"485 92 CURVE",
"400 166 LINE",
"375 123 OFFCURVE",
"332 98 OFFCURVE",
"286 98 CURVE SMOOTH",
"211 98 OFFCURVE",
"166 155 OFFCURVE",
"166 250 CURVE SMOOTH",
"166 345 OFFCURVE",
"211 402 OFFCURVE",
"286 402 CURVE SMOOTH",
"332 402 OFFCURVE",
"375 377 OFFCURVE",
"400 334 CURVE",
"485 408 LINE",
"449 473 OFFCURVE",
"375 510 OFFCURVE",
"279 510 CURVE SMOOTH",
"121 510 OFFCURVE",
"25 412 OFFCURVE",
"25 250 CURVE SMOOTH",
"25 88 OFFCURVE",
"121 -10 OFFCURVE",
"279 -10 CURVE SMOOTH"
);
}
);
width = 498;
},
{
anchors = (
{
name = bottom;
position = "{271, 0}";
},
{
name = top;
position = "{271, 500}";
}
);
layerId = "E6340435-1C2D-4187-91B6-2B8E20EF3542";
paths = (
{
closed = 1;
nodes = (
"352 -10 OFFCURVE",
"418 23 OFFCURVE",
"456 85 CURVE",
"405 131 LINE",
"376 85 OFFCURVE",
"326 58 OFFCURVE",
"271 58 CURVE SMOOTH",
"176 58 OFFCURVE",
"119 130 OFFCURVE",
"119 250 CURVE SMOOTH",
"119 371 OFFCURVE",
"176 442 OFFCURVE",
"271 442 CURVE SMOOTH",
"326 442 OFFCURVE",
"376 415 OFFCURVE",
"405 369 CURVE",
"456 415 LINE",
"418 477 OFFCURVE",
"352 510 OFFCURVE",
"268 510 CURVE SMOOTH",
"120 510 OFFCURVE",
"34 414 OFFCURVE",
"34 250 CURVE SMOOTH",
"34 86 OFFCURVE",
"120 -10 OFFCURVE",
"268 -10 CURVE SMOOTH"
);
}
);
width = 473;
},
{
anchors = (
{
name = bottom;
position = "{242, 0}";
},
{
name = top;
position = "{330, 500}";
}
);
background = {
paths = (
{
closed = 1;
nodes = (
"365 46 OFFCURVE",
"320 34 OFFCURVE",
"265 34 CURVE SMOOTH",
"146 34 OFFCURVE",
"60 115 OFFCURVE",
"60 248 CURVE SMOOTH",
"60 382 OFFCURVE",
"146 463 OFFCURVE",
"265 463 CURVE SMOOTH",
"320 463 OFFCURVE",
"365 451 OFFCURVE",
"402 428 CURVE",
"423 475 LINE",
"380 498 OFFCURVE",
"329 510 OFFCURVE",
"268 510 CURVE SMOOTH",
"104 510 OFFCURVE",
"4 407 OFFCURVE",
"4 248 CURVE SMOOTH",
"4 90 OFFCURVE",
"104 -13 OFFCURVE",
"268 -13 CURVE SMOOTH",
"329 -13 OFFCURVE",
"380 -1 OFFCURVE",
"423 22 CURVE",
"402 69 LINE"
);
}
);
};
layerId = "CAD36325-8B27-45AE-AB38-7E116081C841";
paths = (
{
closed = 1;
nodes = (
"333 -10 OFFCURVE",
"409 26 OFFCURVE",
"457 92 CURVE",
"385 166 LINE",
"352 123 OFFCURVE",
"306 98 OFFCURVE",
"259 98 CURVE SMOOTH",
"197 98 OFFCURVE",
"162 137 OFFCURVE",
"162 206 CURVE SMOOTH",
"162 318 OFFCURVE",
"227 402 OFFCURVE",
"313 402 CURVE SMOOTH",
"359 402 OFFCURVE",
"397 376 OFFCURVE",
"415 334 CURVE",
"513 408 LINE",
"488 472 OFFCURVE",
"416 510 OFFCURVE",
"319 510 CURVE SMOOTH",
"141 510 OFFCURVE",
"19 381 OFFCURVE",
"19 194 CURVE SMOOTH",
"19 68 OFFCURVE",
"104 -10 OFFCURVE",
"239 -10 CURVE SMOOTH"
);
}
);
width = 498;
},
{
anchors = (
{
name = bottom;
position = "{227, 0}";
},
{
name = top;
position = "{316, 500}";
}
);
layerId = "BC946E28-F4D1-4B1D-9CE5-1B4AE2F9B39A";
paths = (
{
closed = 1;
nodes = (
"311 -10 OFFCURVE",
"377 22 OFFCURVE",
"427 85 CURVE",
"384 131 LINE",
"347 85 OFFCURVE",
"293 58 OFFCURVE",
"238 58 CURVE SMOOTH",
"159 58 OFFCURVE",
"114 108 OFFCURVE",
"114 195 CURVE SMOOTH",
"114 336 OFFCURVE",
"196 442 OFFCURVE",
"305 442 CURVE SMOOTH",
"360 442 OFFCURVE",
"406 414 OFFCURVE",
"426 369 CURVE",
"486 415 LINE",
"459 475 OFFCURVE",
"394 510 OFFCURVE",
"308 510 CURVE SMOOTH",
"141 510 OFFCURVE",
"28 379 OFFCURVE",
"28 187 CURVE SMOOTH",
"28 65 OFFCURVE",
"104 -10 OFFCURVE",
"229 -10 CURVE SMOOTH"
);
}
);
width = 473;
},
{
anchors = (
{
name = bottom;
position = "{217, 0}";
},
{
name = top;
position = "{305, 500}";
}
);
background = {
paths = (
{
closed = 1;
nodes = (
"361 46 OFFCURVE",
"316 34 OFFCURVE",
"261 34 CURVE SMOOTH",
"142 34 OFFCURVE",
"56 115 OFFCURVE",
"56 248 CURVE SMOOTH",
"56 382 OFFCURVE",
"142 463 OFFCURVE",
"261 463 CURVE SMOOTH",
"316 463 OFFCURVE",
"361 451 OFFCURVE",
"398 428 CURVE",
"419 475 LINE",
"376 498 OFFCURVE",
"325 510 OFFCURVE",
"264 510 CURVE SMOOTH",
"100 510 OFFCURVE",
"0 407 OFFCURVE",
"0 248 CURVE SMOOTH",
"0 90 OFFCURVE",
"100 -13 OFFCURVE",
"264 -13 CURVE SMOOTH",
"325 -13 OFFCURVE",
"376 -1 OFFCURVE",
"419 22 CURVE",
"398 69 LINE"
);
}
);
};
layerId = "1781F524-7973-4932-8D2B-6055E077B411";
paths = (
{
closed = 1;
nodes = (
"297 -10 OFFCURVE",
"355 21 OFFCURVE",
"404 79 CURVE",
"385 103 LINE",
"344 53 OFFCURVE",
"284 24 OFFCURVE",
"221 24 CURVE SMOOTH",
"128 24 OFFCURVE",
"76 83 OFFCURVE",
"76 185 CURVE SMOOTH",
"76 350 OFFCURVE",
"172 476 OFFCURVE",
"301 476 CURVE SMOOTH",
"362 476 OFFCURVE",
"414 447 OFFCURVE",
"437 397 CURVE",
"464 421 LINE",
"436 479 OFFCURVE",
"376 510 OFFCURVE",
"302 510 CURVE SMOOTH",
"146 510 OFFCURVE",
"37 369 OFFCURVE",
"37 177 CURVE SMOOTH",
"37 58 OFFCURVE",
"107 -10 OFFCURVE",
"222 -10 CURVE SMOOTH"
);
}
);
width = 456;
}
);
leftKerningGroup = c;
note = c;
rightKerningGroup = c;
unicode = 0063;
},
{
glyphname = d;
lastChange = "2018-06-18 12:37:15 +0000";
layers = (
{
anchors = (
{
name = bottom;
position = "{269, 0}";
},
{
name = center;
position = "{269, 250}";
},
{
name = top;
position = "{269, 742}";
},
{
name = topright;
position = "{513, 500}";
}
);
background = {
paths = (
{
closed = 1;
nodes = (
"508 0 LINE",
"506 25 OFFCURVE",
"504 66 OFFCURVE",
"504 122 CURVE SMOOTH",
"504 742 LINE",
"447 742 LINE",
"447 404 LINE",
"404 475 OFFCURVE",
"341 510 OFFCURVE",
"257 510 CURVE SMOOTH",
"117 510 OFFCURVE",
"32 403 OFFCURVE",
"32 256 CURVE SMOOTH",
"32 96 OFFCURVE",
"123 -13 OFFCURVE",
"266 -13 CURVE SMOOTH",
"344 -13 OFFCURVE",
"407 21 OFFCURVE",
"453 88 CURVE",
"453 54 OFFCURVE",
"454 25 OFFCURVE",
"456 0 CURVE"
);
},
{
closed = 1;
nodes = (
"447 200 LINE SMOOTH",
"447 106 OFFCURVE",
"372 35 OFFCURVE",
"273 35 CURVE SMOOTH",
"150 35 OFFCURVE",
"88 109 OFFCURVE",
"88 254 CURVE SMOOTH",
"88 378 OFFCURVE",
"154 465 OFFCURVE",
"267 465 CURVE SMOOTH",
"314 465 OFFCURVE",
"356 448 OFFCURVE",
"389 416 CURVE",
"428 382 OFFCURVE",
"447 338 OFFCURVE",
"447 284 CURVE SMOOTH"
);
}
);
};
layerId = "0B1DFD06-3317-40CA-B510-4969A0718C16";
paths = (
{
closed = 1;
nodes = (
"324 -10 OFFCURVE",
"389 30 OFFCURVE",
"420 93 CURVE",
"422 93 LINE",
"422 57 OFFCURVE",
"423 36 OFFCURVE",
"425 0 CURVE",
"457 0 LINE",
"455 26 OFFCURVE",
"454 66 OFFCURVE",
"454 120 CURVE SMOOTH",
"454 742 LINE",
"416 742 LINE",
"416 416 LINE",
"414 416 LINE",
"381 475 OFFCURVE",
"321 510 OFFCURVE",
"253 510 CURVE SMOOTH",
"123 510 OFFCURVE",
"44 415 OFFCURVE",
"44 259 CURVE SMOOTH",
"44 92 OFFCURVE",
"122 -10 OFFCURVE",
"249 -10 CURVE SMOOTH"
);
},
{
closed = 1;
nodes = (
"145 24 OFFCURVE",
"82 113 OFFCURVE",
"82 257 CURVE SMOOTH",
"82 393 OFFCURVE",
"146 476 OFFCURVE",
"251 476 CURVE SMOOTH",
"353 476 OFFCURVE",
"416 400 OFFCURVE",
"416 279 CURVE SMOOTH",
"416 200 LINE SMOOTH",
"416 98 OFFCURVE",
"346 24 OFFCURVE",
"247 24 CURVE SMOOTH"
);
}
);
width = 530;
},
{
anchors = (
{
name = bottom;
position = "{293, 0}";
},
{
name = center;
position = "{263, 250}";
},
{
name = top;
position = "{263, 742}";
},
{
name = topright;
position = "{522, 500}";
}
);
background = {
paths = (
{
closed = 1;
nodes = (
"490 0 LINE",
"488 25 OFFCURVE",
"486 66 OFFCURVE",
"486 122 CURVE SMOOTH",
"486 742 LINE",
"429 742 LINE",
"429 404 LINE",
"386 475 OFFCURVE",
"323 510 OFFCURVE",
"239 510 CURVE SMOOTH",
"99 510 OFFCURVE",
"14 403 OFFCURVE",
"14 256 CURVE SMOOTH",
"14 96 OFFCURVE",
"105 -13 OFFCURVE",
"248 -13 CURVE SMOOTH",
"326 -13 OFFCURVE",
"389 21 OFFCURVE",
"435 88 CURVE",
"435 54 OFFCURVE",
"436 25 OFFCURVE",
"438 0 CURVE"
);
},
{
closed = 1;
nodes = (
"429 200 LINE SMOOTH",
"429 106 OFFCURVE",
"354 35 OFFCURVE",
"255 35 CURVE SMOOTH",
"132 35 OFFCURVE",
"70 109 OFFCURVE",
"70 254 CURVE SMOOTH",
"70 378 OFFCURVE",
"136 465 OFFCURVE",
"249 465 CURVE SMOOTH",
"296 465 OFFCURVE",
"338 448 OFFCURVE",
"371 416 CURVE",
"410 382 OFFCURVE",
"429 338 OFFCURVE",
"429 284 CURVE SMOOTH"
);
}
);
};
layerId = "ECFE7DEB-F40D-44C7-B7CF-D3B40F3B51F8";
paths = (
{
closed = 1;
nodes = (
"293 -10 OFFCURVE",
"351 19 OFFCURVE",
"381 62 CURVE",
"383 62 LINE",
"383 38 OFFCURVE",
"383 15 OFFCURVE",
"384 0 CURVE",
"518 0 LINE",
"516 18 OFFCURVE",
"515 73 OFFCURVE",
"515 135 CURVE SMOOTH",
"515 742 LINE",
"373 742 LINE",
"373 454 LINE",
"371 454 LINE",
"338 493 OFFCURVE",
"297 510 OFFCURVE",
"239 510 CURVE SMOOTH",
"108 510 OFFCURVE",
"25 412 OFFCURVE",
"25 258 CURVE SMOOTH",
"25 90 OFFCURVE",
"104 -10 OFFCURVE",
"236 -10 CURVE SMOOTH"
);
},
{
closed = 1;
nodes = (
"200 98 OFFCURVE",
"166 153 OFFCURVE",
"166 256 CURVE SMOOTH",
"166 353 OFFCURVE",
"200 405 OFFCURVE",
"265 405 CURVE SMOOTH",
"326 405 OFFCURVE",
"373 361 OFFCURVE",
"373 306 CURVE SMOOTH",
"373 199 LINE SMOOTH",
"373 138 OFFCURVE",
"330 98 OFFCURVE",
"265 98 CURVE SMOOTH"
);
}
);
width = 563;
},
{
anchors = (
{
name = bottom;
position = "{275, 0}";
},
{
name = center;
position = "{265, 250}";
},
{
name = top;
position = "{265, 742}";
},
{
name = topright;
position = "{516, 500}";
}
);
layerId = "E6340435-1C2D-4187-91B6-2B8E20EF3542";
paths = (
{
closed = 1;
nodes = (
"309 -10 OFFCURVE",
"371 26 OFFCURVE",
"401 79 CURVE",
"403 79 LINE",
"403 53 OFFCURVE",
"403 24 OFFCURVE",
"405 0 CURVE",
"483 0 LINE",
"481 22 OFFCURVE",
"480 68 OFFCURVE",
"480 126 CURVE SMOOTH",
"480 742 LINE",
"396 742 LINE",
"396 433 LINE",
"394 433 LINE",
"357 484 OFFCURVE",
"307 510 OFFCURVE",
"246 510 CURVE SMOOTH",
"116 510 OFFCURVE",
"34 412 OFFCURVE",
"34 259 CURVE SMOOTH",
"34 93 OFFCURVE",
"114 -10 OFFCURVE",
"244 -10 CURVE SMOOTH"
);
},
{
closed = 1;
nodes = (
"171 58 OFFCURVE",
"119 133 OFFCURVE",
"119 257 CURVE SMOOTH",
"119 375 OFFCURVE",
"170 445 OFFCURVE",
"256 445 CURVE SMOOTH",
"340 445 OFFCURVE",
"395 384 OFFCURVE",
"395 291 CURVE SMOOTH",
"395 200 LINE SMOOTH",
"395 113 OFFCURVE",
"341 58 OFFCURVE",
"256 58 CURVE SMOOTH"
);
}
);
width = 542;
},
{
anchors = (
{
name = bottom;
position = "{249, 0}";
},
{
name = center;
position = "{263, 250}";
},
{
name = top;
position = "{350, 742}";
},
{
name = topright;
position = "{566, 500}";
}
);
background = {
paths = (
{
closed = 1;
nodes = (
"490 0 LINE",
"488 25 OFFCURVE",
"486 66 OFFCURVE",
"486 122 CURVE SMOOTH",
"486 742 LINE",
"429 742 LINE",
"429 404 LINE",
"386 475 OFFCURVE",
"323 510 OFFCURVE",
"239 510 CURVE SMOOTH",
"99 510 OFFCURVE",
"14 403 OFFCURVE",
"14 256 CURVE SMOOTH",
"14 96 OFFCURVE",
"105 -13 OFFCURVE",
"248 -13 CURVE SMOOTH",
"326 -13 OFFCURVE",
"389 21 OFFCURVE",
"435 88 CURVE",
"435 54 OFFCURVE",
"436 25 OFFCURVE",
"438 0 CURVE"
);
},
{
closed = 1;
nodes = (
"429 200 LINE SMOOTH",
"429 106 OFFCURVE",
"354 35 OFFCURVE",
"255 35 CURVE SMOOTH",
"132 35 OFFCURVE",
"70 109 OFFCURVE",
"70 254 CURVE SMOOTH",
"70 378 OFFCURVE",
"136 465 OFFCURVE",
"249 465 CURVE SMOOTH",
"296 465 OFFCURVE",
"338 448 OFFCURVE",
"371 416 CURVE",
"410 382 OFFCURVE",
"429 338 OFFCURVE",
"429 284 CURVE SMOOTH"
);
}
);
};
layerId = "CAD36325-8B27-45AE-AB38-7E116081C841";
paths = (
{
closed = 1;
nodes = (
"251 -10 OFFCURVE",
"308 17 OFFCURVE",
"348 62 CURVE",
"350 62 LINE",
"340 7 OFFCURVE",
"342 13 OFFCURVE",
"340 0 CURVE",
"474 0 LINE",
"475 18 OFFCURVE",
"485 73 OFFCURVE",
"495 135 CURVE SMOOTH",
"602 742 LINE",
"460 742 LINE",
"409 454 LINE",
"407 454 LINE",
"382 491 OFFCURVE",
"339 510 OFFCURVE",
"279 510 CURVE SMOOTH",
"127 510 OFFCURVE",
"19 376 OFFCURVE",
"19 186 CURVE SMOOTH",
"19 65 OFFCURVE",
"87 -10 OFFCURVE",
"196 -10 CURVE SMOOTH"
);
},
{
closed = 1;
nodes = (
"188 98 OFFCURVE",
"161 132 OFFCURVE",
"161 196 CURVE SMOOTH",
"161 317 OFFCURVE",
"216 405 OFFCURVE",
"292 405 CURVE SMOOTH",
"352 405 OFFCURVE",
"393 361 OFFCURVE",
"383 306 CURVE SMOOTH",
"364 199 LINE SMOOTH",
"353 138 OFFCURVE",
"303 98 OFFCURVE",
"238 98 CURVE SMOOTH"
);
}
);
width = 563;
},
{
anchors = (
{
name = bottom;
position = "{231, 0}";
},
{
name = center;
position = "{266, 250}";
},
{
name = top;
position = "{352, 742}";
},
{
name = topright;
position = "{561, 500}";
}
);
layerId = "BC946E28-F4D1-4B1D-9CE5-1B4AE2F9B39A";
paths = (
{
closed = 1;
nodes = (
"267 -10 OFFCURVE",
"331 24 OFFCURVE",
"371 79 CURVE",
"373 79 LINE",
"365 27 OFFCURVE",
"363 16 OFFCURVE",
"361 0 CURVE",
"439 0 LINE",
"441 21 OFFCURVE",
"447 55 OFFCURVE",
"459 126 CURVE SMOOTH",
"567 742 LINE",
"483 742 LINE",
"429 433 LINE",
"427 433 LINE",
"400 482 OFFCURVE",
"349 510 OFFCURVE",
"286 510 CURVE SMOOTH",
"136 510 OFFCURVE",
"29 377 OFFCURVE",
"29 189 CURVE SMOOTH",
"29 67 OFFCURVE",
"97 -10 OFFCURVE",
"205 -10 CURVE SMOOTH"
);
},
{
closed = 1;
nodes = (
"154 58 OFFCURVE",
"115 108 OFFCURVE",
"115 194 CURVE SMOOTH",
"115 337 OFFCURVE",
"191 445 OFFCURVE",
"291 445 CURVE SMOOTH",
"375 445 OFFCURVE",
"419 384 OFFCURVE",
"403 291 CURVE SMOOTH",
"387 200 LINE SMOOTH",
"372 114 OFFCURVE",
"308 58 OFFCURVE",
"223 58 CURVE SMOOTH"
);
}
);
width = 542;
},
{
anchors = (
{
name = bottom;
position = "{225, 0}";
},
{
name = center;
position = "{269, 250}";
},
{
name = top;
position = "{356, 742}";
},
{
name = topright;
position = "{557, 500}";
}
);
background = {
paths = (
{
closed = 1;
nodes = (
"508 0 LINE",
"506 25 OFFCURVE",
"504 66 OFFCURVE",
"504 122 CURVE SMOOTH",
"504 742 LINE",
"447 742 LINE",
"447 404 LINE",
"404 475 OFFCURVE",
"341 510 OFFCURVE",
"257 510 CURVE SMOOTH",
"117 510 OFFCURVE",
"32 403 OFFCURVE",
"32 256 CURVE SMOOTH",
"32 96 OFFCURVE",
"123 -13 OFFCURVE",
"266 -13 CURVE SMOOTH",
"344 -13 OFFCURVE",
"407 21 OFFCURVE",
"453 88 CURVE",
"453 54 OFFCURVE",
"454 25 OFFCURVE",
"456 0 CURVE"
);
},
{
closed = 1;
nodes = (
"447 200 LINE SMOOTH",
"447 106 OFFCURVE",
"372 35 OFFCURVE",
"273 35 CURVE SMOOTH",
"150 35 OFFCURVE",
"88 109 OFFCURVE",
"88 254 CURVE SMOOTH",
"88 378 OFFCURVE",
"154 465 OFFCURVE",
"267 465 CURVE SMOOTH",
"314 465 OFFCURVE",
"356 448 OFFCURVE",
"389 416 CURVE",
"428 382 OFFCURVE",
"447 338 OFFCURVE",
"447 284 CURVE SMOOTH"
);
}
);
};
layerId = "1781F524-7973-4932-8D2B-6055E077B411";
paths = (
{
closed = 1;
nodes = (
"284 -10 OFFCURVE",
"350 30 OFFCURVE",
"392 93 CURVE",
"394 93 LINE",
"388 57 OFFCURVE",
"386 40 OFFCURVE",
"381 0 CURVE",
"413 0 LINE",
"417 35 OFFCURVE",
"424 76 OFFCURVE",
"431 120 CURVE SMOOTH",
"541 742 LINE",
"503 742 LINE",
"445 416 LINE",
"443 416 LINE",
"421 473 OFFCURVE",
"363 510 OFFCURVE",
"293 510 CURVE SMOOTH",
"142 510 OFFCURVE",
"38 372 OFFCURVE",
"38 180 CURVE SMOOTH",
"38 61 OFFCURVE",
"98 -10 OFFCURVE",
"209 -10 CURVE SMOOTH"
);
},
{
closed = 1;
nodes = (
"124 24 OFFCURVE",
"76 84 OFFCURVE",
"76 185 CURVE SMOOTH",
"76 352 OFFCURVE",
"168 476 OFFCURVE",
"291 476 CURVE SMOOTH",
"393 476 OFFCURVE",
"442 400 OFFCURVE",
"421 279 CURVE SMOOTH",
"407 200 LINE SMOOTH",
"389 98 OFFCURVE",
"305 24 OFFCURVE",
"207 24 CURVE SMOOTH"
);
}
);
width = 530;
}
);
leftKerningGroup = d;
note = d;
unicode = 0064;
},
{
glyphname = e;
lastChange = "2018-06-18 12:56:26 +0000";
layers = (
{
anchors = (
{
name = bottom;
position = "{258, 0}";
},
{
name = ogonek;
position = "{395, 46}";
},
{
name = top;
position = "{259, 500}";
}
);
background = {
paths = (
{
closed = 1;
nodes = (
"476 71 LINE",
"419 49 OFFCURVE",
"360 37 OFFCURVE",
"301 37 CURVE SMOOTH",
"182 37 OFFCURVE",
"100 113 OFFCURVE",
"96 247 CURVE",
"504 247 LINE",
"501 422 OFFCURVE",
"429 510 OFFCURVE",
"290 510 CURVE SMOOTH",
"218 510 OFFCURVE",
"157 485 OFFCURVE",
"110 435 CURVE SMOOTH",
"63 385 OFFCURVE",
"40 319 OFFCURVE",
"40 237 CURVE SMOOTH",
"40 165 OFFCURVE",
"63 104 OFFCURVE",
"110 57 CURVE SMOOTH",
"157 10 OFFCURVE",
"219 -13 OFFCURVE",
"295 -13 CURVE SMOOTH",
"362 -13 OFFCURVE",
"423 -1 OFFCURVE",
"481 22 CURVE"
);
},
{
closed = 1;
nodes = (
"98 293 LINE",
"106 337 OFFCURVE",
"122 375 OFFCURVE",
"150 406 CURVE SMOOTH",
"184 445 OFFCURVE",
"228 465 OFFCURVE",
"282 465 CURVE SMOOTH",
"343 465 OFFCURVE",
"387 442 OFFCURVE",
"416 400 CURVE SMOOTH",
"438 369 OFFCURVE",
"448 332 OFFCURVE",
"450 293 CURVE"
);
}
);
};
layerId = "0B1DFD06-3317-40CA-B510-4969A0718C16";
paths = (
{
closed = 1;
nodes = (
"333 -10 OFFCURVE",
"390 20 OFFCURVE",
"430 77 CURVE",
"404 103 LINE",
"378 55 OFFCURVE",
"321 24 OFFCURVE",
"259 24 CURVE SMOOTH",
"147 24 OFFCURVE",
"80 109 OFFCURVE",
"80 249 CURVE SMOOTH",
"80 394 OFFCURVE",
"143 476 OFFCURVE",
"254 476 CURVE SMOOTH",
"351 476 OFFCURVE",
"415 397 OFFCURVE",
"415 277 CURVE SMOOTH",
"415 267 LINE",
"58 267 LINE",
"58 233 LINE",
"453 233 LINE",
"453 267 LINE SMOOTH",
"453 419 OFFCURVE",
"377 510 OFFCURVE",
"252 510 CURVE SMOOTH",
"121 510 OFFCURVE",
"42 412 OFFCURVE",
"42 249 CURVE SMOOTH",
"42 89 OFFCURVE",
"126 -10 OFFCURVE",
"260 -10 CURVE SMOOTH"
);
}
);
width = 495;
},
{
anchors = (
{
name = bottom;
position = "{282, 0}";
},
{
name = ogonek;
position = "{418, 58}";
},
{
name = top;
position = "{276, 500}";
}
);
background = {
paths = (
{
closed = 1;
nodes = (
"485 71 LINE",
"428 49 OFFCURVE",
"369 37 OFFCURVE",
"310 37 CURVE SMOOTH",
"191 37 OFFCURVE",
"109 113 OFFCURVE",
"105 247 CURVE",
"513 247 LINE",
"510 422 OFFCURVE",
"438 510 OFFCURVE",
"299 510 CURVE SMOOTH",
"227 510 OFFCURVE",
"166 485 OFFCURVE",
"119 435 CURVE SMOOTH",
"72 385 OFFCURVE",
"49 319 OFFCURVE",
"49 237 CURVE SMOOTH",
"49 165 OFFCURVE",
"72 104 OFFCURVE",
"119 57 CURVE SMOOTH",
"166 10 OFFCURVE",
"228 -13 OFFCURVE",
"304 -13 CURVE SMOOTH",
"371 -13 OFFCURVE",
"432 -1 OFFCURVE",
"490 22 CURVE"
);
},
{
closed = 1;
nodes = (
"107 293 LINE",
"115 337 OFFCURVE",
"131 375 OFFCURVE",
"159 406 CURVE SMOOTH",
"193 445 OFFCURVE",
"237 465 OFFCURVE",
"291 465 CURVE SMOOTH",
"352 465 OFFCURVE",
"396 442 OFFCURVE",
"425 400 CURVE SMOOTH",
"447 369 OFFCURVE",
"457 332 OFFCURVE",
"459 293 CURVE"
);
}
);
};
layerId = "ECFE7DEB-F40D-44C7-B7CF-D3B40F3B51F8";
paths = (
{
closed = 1;
nodes = (
"378 -10 OFFCURVE",
"468 34 OFFCURVE",
"506 99 CURVE",
"430 171 LINE",
"387 126 OFFCURVE",
"349 109 OFFCURVE",
"291 109 CURVE SMOOTH",
"209 109 OFFCURVE",
"171 154 OFFCURVE",
"171 251 CURVE SMOOTH",
"171 340 OFFCURVE",
"212 394 OFFCURVE",
"279 394 CURVE SMOOTH",
"342 394 OFFCURVE",
"380 358 OFFCURVE",
"380 299 CURVE SMOOTH",
"380 293 LINE",
"72 293 LINE",
"72 198 LINE",
"520 198 LINE",
"520 249 LINE SMOOTH",
"520 412 OFFCURVE",
"431 510 OFFCURVE",
"281 510 CURVE SMOOTH",
"125 510 OFFCURVE",
"30 410 OFFCURVE",
"30 248 CURVE SMOOTH",
"30 87 OFFCURVE",
"124 -10 OFFCURVE",
"282 -10 CURVE SMOOTH"
);
}
);
width = 550;
},
{
anchors = (
{
name = bottom;
position = "{268, 0}";
},
{
name = ogonek;
position = "{401, 49}";
},
{
name = top;
position = "{266, 500}";
}
);
layerId = "E6340435-1C2D-4187-91B6-2B8E20EF3542";
paths = (
{
closed = 1;
nodes = (
"352 -10 OFFCURVE",
"424 26 OFFCURVE",
"463 87 CURVE",
"415 133 LINE",
"380 86 OFFCURVE",
"331 62 OFFCURVE",
"272 62 CURVE SMOOTH",
"174 62 OFFCURVE",
"121 128 OFFCURVE",
"121 250 CURVE SMOOTH",
"121 372 OFFCURVE",
"172 441 OFFCURVE",
"263 441 CURVE SMOOTH",
"351 441 OFFCURVE",
"404 383 OFFCURVE",
"404 287 CURVE SMOOTH",
"404 280 LINE",
"80 280 LINE",
"80 217 LINE",
"482 217 LINE",
"482 250 LINE SMOOTH",
"482 414 OFFCURVE",
"402 510 OFFCURVE",
"267 510 CURVE SMOOTH",
"123 510 OFFCURVE",
"36 412 OFFCURVE",
"36 249 CURVE SMOOTH",
"36 85 OFFCURVE",
"121 -10 OFFCURVE",
"269 -10 CURVE SMOOTH"
);
}
);
width = 518;
},
{
anchors = (
{
name = bottom;
position = "{238, 0}";
},
{
name = ogonek;
position = "{384, 58}";
},
{
name = top;
position = "{320, 500}";
}
);
background = {
paths = (
{
closed = 1;
nodes = (
"485 71 LINE",
"428 49 OFFCURVE",
"369 37 OFFCURVE",
"310 37 CURVE SMOOTH",
"191 37 OFFCURVE",
"109 113 OFFCURVE",
"105 247 CURVE",
"513 247 LINE",
"510 422 OFFCURVE",
"438 510 OFFCURVE",
"299 510 CURVE SMOOTH",
"227 510 OFFCURVE",
"166 485 OFFCURVE",
"119 435 CURVE SMOOTH",
"72 385 OFFCURVE",
"49 319 OFFCURVE",
"49 237 CURVE SMOOTH",
"49 165 OFFCURVE",
"72 104 OFFCURVE",
"119 57 CURVE SMOOTH",
"166 10 OFFCURVE",
"228 -13 OFFCURVE",
"304 -13 CURVE SMOOTH",
"371 -13 OFFCURVE",
"432 -1 OFFCURVE",
"490 22 CURVE"
);
},
{
closed = 1;
nodes = (
"107 293 LINE",
"115 337 OFFCURVE",
"131 375 OFFCURVE",
"159 406 CURVE SMOOTH",
"193 445 OFFCURVE",
"237 465 OFFCURVE",
"291 465 CURVE SMOOTH",
"352 465 OFFCURVE",
"396 442 OFFCURVE",
"425 400 CURVE SMOOTH",
"447 369 OFFCURVE",
"457 332 OFFCURVE",
"459 293 CURVE"
);
}
);
};
layerId = "CAD36325-8B27-45AE-AB38-7E116081C841";
paths = (
{
closed = 1;
nodes = (
"336 -10 OFFCURVE",
"429 32 OFFCURVE",
"480 99 CURVE",
"416 171 LINE",
"365 126 OFFCURVE",
"324 109 OFFCURVE",
"266 109 CURVE SMOOTH",
"199 109 OFFCURVE",
"167 146 OFFCURVE",
"167 210 CURVE SMOOTH",
"167 327 OFFCURVE",
"227 394 OFFCURVE",
"305 394 CURVE SMOOTH",
"364 394 OFFCURVE",
"394 362 OFFCURVE",
"394 299 CURVE SMOOTH",
"394 293 LINE",
"80 293 LINE",
"63 198 LINE",
"511 198 LINE",
"520 243 LINE SMOOTH",
"552 403 OFFCURVE",
"473 510 OFFCURVE",
"321 510 CURVE SMOOTH",
"146 510 OFFCURVE",
"24 379 OFFCURVE",
"24 192 CURVE SMOOTH",
"24 67 OFFCURVE",
"108 -10 OFFCURVE",
"242 -10 CURVE SMOOTH"
);
}
);
width = 550;
},
{
anchors = (
{
name = bottom;
position = "{224, 0}";
},
{
name = ogonek;
position = "{365, 49}";
},
{
name = top;
position = "{310, 500}";
}
);
layerId = "BC946E28-F4D1-4B1D-9CE5-1B4AE2F9B39A";
paths = (
{
closed = 1;
nodes = (
"312 -10 OFFCURVE",
"383 24 OFFCURVE",
"434 87 CURVE",
"394 133 LINE",
"352 87 OFFCURVE",
"298 62 OFFCURVE",
"239 62 CURVE SMOOTH",
"158 62 OFFCURVE",
"115 107 OFFCURVE",
"115 192 CURVE SMOOTH",
"115 334 OFFCURVE",
"193 441 OFFCURVE",
"296 441 CURVE SMOOTH",
"383 441 OFFCURVE",
"424 385 OFFCURVE",
"410 287 CURVE SMOOTH",
"409 280 LINE",
"85 280 LINE",
"74 217 LINE",
"476 217 LINE",
"482 250 LINE SMOOTH",
"511 409 OFFCURVE",
"442 510 OFFCURVE",
"305 510 CURVE SMOOTH",
"141 510 OFFCURVE",
"29 380 OFFCURVE",
"29 189 CURVE SMOOTH",
"29 66 OFFCURVE",
"107 -10 OFFCURVE",
"231 -10 CURVE SMOOTH"
);
}
);
width = 518;
},
{
anchors = (
{
name = bottom;
position = "{214, 0}";
},
{
name = ogonek;
position = "{360, 46}";
},
{
name = top;
position = "{304, 500}";
}
);
background = {
paths = (
{
closed = 1;
nodes = (
"476 71 LINE",
"419 49 OFFCURVE",
"360 37 OFFCURVE",
"301 37 CURVE SMOOTH",
"182 37 OFFCURVE",
"100 113 OFFCURVE",
"96 247 CURVE",
"504 247 LINE",
"501 422 OFFCURVE",
"429 510 OFFCURVE",
"290 510 CURVE SMOOTH",
"218 510 OFFCURVE",
"157 485 OFFCURVE",
"110 435 CURVE SMOOTH",
"63 385 OFFCURVE",
"40 319 OFFCURVE",
"40 237 CURVE SMOOTH",
"40 165 OFFCURVE",
"63 104 OFFCURVE",
"110 57 CURVE SMOOTH",
"157 10 OFFCURVE",
"219 -13 OFFCURVE",
"295 -13 CURVE SMOOTH",
"362 -13 OFFCURVE",
"423 -1 OFFCURVE",
"481 22 CURVE"
);
},
{
closed = 1;
nodes = (
"98 293 LINE",
"106 337 OFFCURVE",
"122 375 OFFCURVE",
"150 406 CURVE SMOOTH",
"184 445 OFFCURVE",
"228 465 OFFCURVE",
"282 465 CURVE SMOOTH",
"343 465 OFFCURVE",
"387 442 OFFCURVE",
"416 400 CURVE SMOOTH",
"438 369 OFFCURVE",
"448 332 OFFCURVE",
"450 293 CURVE"
);
}
);
};
layerId = "1781F524-7973-4932-8D2B-6055E077B411";
paths = (
{
closed = 1;
nodes = (
"293 -10 OFFCURVE",
"350 20 OFFCURVE",
"400 77 CURVE",
"379 103 LINE",
"344 55 OFFCURVE",
"282 24 OFFCURVE",
"220 24 CURVE SMOOTH",
"126 24 OFFCURVE",
"74 84 OFFCURVE",
"74 185 CURVE SMOOTH",
"74 351 OFFCURVE",
"168 476 OFFCURVE",
"294 476 CURVE SMOOTH",
"391 476 OFFCURVE",
"445 396 OFFCURVE",
"421 277 CURVE SMOOTH",
"419 267 LINE",
"62 267 LINE",
"56 233 LINE",
"451 233 LINE",
"457 267 LINE SMOOTH",
"484 419 OFFCURVE",
"417 510 OFFCURVE",
"292 510 CURVE SMOOTH",
"143 510 OFFCURVE",
"36 366 OFFCURVE",
"36 180 CURVE SMOOTH",
"36 62 OFFCURVE",
"107 -10 OFFCURVE",
"221 -10 CURVE SMOOTH"
);
}
);
width = 495;
}
);
leftKerningGroup = e;
note = e;
rightKerningGroup = e;
unicode = 0065;
},
{
glyphname = f;
lastChange = "2018-06-18 12:56:35 +0000";
layers = (
{
anchors = (
{
name = bottom;
position = "{113, 0}";
},
{
name = top;
position = "{172, 717}";
}
);
background = {
paths = (
{
closed = 1;
nodes = (
"335 747 OFFCURVE",
"307 754 OFFCURVE",
"270 754 CURVE SMOOTH",
"151 754 OFFCURVE",
"93 676 OFFCURVE",
"93 519 CURVE SMOOTH",
"93 500 LINE",
"7 500 LINE",
"7 454 LINE",
"91 454 LINE",
"91 0 LINE",
"148 0 LINE",
"148 454 LINE",
"293 454 LINE",
"293 500 LINE",
"148 500 LINE",
"148 519 LINE SMOOTH",
"148 644 OFFCURVE",
"188 706 OFFCURVE",
"266 706 CURVE SMOOTH",
"293 706 OFFCURVE",
"316 700 OFFCURVE",
"338 689 CURVE",
"354 731 LINE"
);
}
);
};
layerId = "0B1DFD06-3317-40CA-B510-4969A0718C16";
paths = (
{
closed = 1;
nodes = (
"129 0 LINE",
"129 466 LINE",
"277 466 LINE",
"277 500 LINE",
"129 500 LINE",
"129 574 LINE SMOOTH",
"129 644 OFFCURVE",
"163 683 OFFCURVE",
"225 683 CURVE SMOOTH",
"255 683 OFFCURVE",
"276 678 OFFCURVE",
"294 666 CURVE",
"309 692 LINE",
"293 707 OFFCURVE",
"259 717 OFFCURVE",
"223 717 CURVE SMOOTH",
"146 717 OFFCURVE",
"91 663 OFFCURVE",
"91 572 CURVE SMOOTH",
"91 500 LINE",
"7 500 LINE",
"7 466 LINE",
"91 466 LINE",
"91 0 LINE"
);
}
);
width = 287;
},
{
anchors = (
{
name = bottom;
position = "{164, 0}";
},
{
name = top;
position = "{195, 717}";
}
);
background = {
paths = (
{
closed = 1;
nodes = (
"364 747 OFFCURVE",
"336 754 OFFCURVE",
"299 754 CURVE SMOOTH",
"180 754 OFFCURVE",
"122 676 OFFCURVE",
"122 519 CURVE SMOOTH",
"122 500 LINE",
"36 500 LINE",
"36 454 LINE",
"120 454 LINE",
"120 0 LINE",
"177 0 LINE",
"177 454 LINE",
"322 454 LINE",
"322 500 LINE",
"177 500 LINE",
"177 519 LINE SMOOTH",
"177 644 OFFCURVE",
"217 706 OFFCURVE",
"295 706 CURVE SMOOTH",
"322 706 OFFCURVE",
"345 700 OFFCURVE",
"367 689 CURVE",
"383 731 LINE"
);
}
);
};
layerId = "ECFE7DEB-F40D-44C7-B7CF-D3B40F3B51F8";
paths = (
{
closed = 1;
nodes = (
"235 0 LINE",
"235 405 LINE",
"375 405 LINE",
"375 500 LINE",
"235 500 LINE",
"235 546 LINE SMOOTH",
"235 586 OFFCURVE",
"256 611 OFFCURVE",
"291 611 CURVE SMOOTH",
"311 611 OFFCURVE",
"334 602 OFFCURVE",
"350 588 CURVE",
"399 671 LINE",
"370 700 OFFCURVE",
"322 717 OFFCURVE",
"270 717 CURVE SMOOTH",
"160 717 OFFCURVE",
"93 657 OFFCURVE",
"93 559 CURVE SMOOTH",
"93 500 LINE",
"12 500 LINE",
"12 405 LINE",
"93 405 LINE",
"93 0 LINE"
);
}
);
width = 392;
},
{
anchors = (
{
name = bottom;
position = "{135, 0}";
},
{
name = top;
position = "{182, 717}";
}
);
layerId = "E6340435-1C2D-4187-91B6-2B8E20EF3542";
paths = (
{
closed = 1;
nodes = (
"176 0 LINE",
"176 438 LINE",
"319 438 LINE",
"319 500 LINE",
"176 500 LINE",
"176 561 LINE SMOOTH",
"176 617 OFFCURVE",
"206 651 OFFCURVE",
"254 651 CURVE SMOOTH",
"278 651 OFFCURVE",
"301 643 OFFCURVE",
"317 629 CURVE",
"348 682 LINE",
"326 704 OFFCURVE",
"289 717 OFFCURVE",
"249 717 CURVE SMOOTH",
"151 717 OFFCURVE",
"91 658 OFFCURVE",
"91 563 CURVE SMOOTH",
"91 500 LINE",
"8 500 LINE",
"8 438 LINE",
"91 438 LINE",
"91 0 LINE"
);
}
);
width = 331;
},
{
anchors = (
{
name = bottom;
position = "{120, 0}";
},
{
name = top;
position = "{277, 717}";
}
);
background = {
paths = (
{
closed = 1;
nodes = (
"364 747 OFFCURVE",
"336 754 OFFCURVE",
"299 754 CURVE SMOOTH",
"180 754 OFFCURVE",
"122 676 OFFCURVE",
"122 519 CURVE SMOOTH",
"122 500 LINE",
"36 500 LINE",
"36 454 LINE",
"120 454 LINE",
"120 0 LINE",
"177 0 LINE",
"177 454 LINE",
"322 454 LINE",
"322 500 LINE",
"177 500 LINE",
"177 519 LINE SMOOTH",
"177 644 OFFCURVE",
"217 706 OFFCURVE",
"295 706 CURVE SMOOTH",
"322 706 OFFCURVE",
"345 700 OFFCURVE",
"367 689 CURVE",
"383 731 LINE"
);
}
);
};
layerId = "CAD36325-8B27-45AE-AB38-7E116081C841";
paths = (
{
closed = 1;
nodes = (
"191 0 LINE",
"262 405 LINE",
"402 405 LINE",
"419 500 LINE",
"279 500 LINE",
"287 546 LINE SMOOTH",
"294 586 OFFCURVE",
"320 611 OFFCURVE",
"354 611 CURVE SMOOTH",
"374 611 OFFCURVE",
"396 601 OFFCURVE",
"409 588 CURVE",
"473 671 LINE",
"450 699 OFFCURVE",
"400 717 OFFCURVE",
"346 717 CURVE SMOOTH",
"238 717 OFFCURVE",
"164 659 OFFCURVE",
"147 559 CURVE SMOOTH",
"137 500 LINE",
"56 500 LINE",
"39 405 LINE",
"120 405 LINE",
"49 0 LINE"
);
}
);
width = 392;
},
{
anchors = (
{
name = bottom;
position = "{91, 0}";
},
{
name = top;
position = "{264, 717}";
}
);
layerId = "BC946E28-F4D1-4B1D-9CE5-1B4AE2F9B39A";
paths = (
{
closed = 1;
nodes = (
"132 0 LINE",
"209 438 LINE",
"352 438 LINE",
"363 500 LINE",
"220 500 LINE",
"231 561 LINE SMOOTH",
"241 617 OFFCURVE",
"277 651 OFFCURVE",
"325 651 CURVE SMOOTH",
"348 651 OFFCURVE",
"370 643 OFFCURVE",
"384 629 CURVE",
"424 682 LINE",
"406 704 OFFCURVE",
"359 717 OFFCURVE",
"319 717 CURVE SMOOTH",
"221 717 OFFCURVE",
"163 658 OFFCURVE",
"146 563 CURVE SMOOTH",
"135 500 LINE",
"52 500 LINE",
"41 438 LINE",
"124 438 LINE",
"47 0 LINE"
);
}
);
width = 331;
},
{
anchors = (
{
name = bottom;
position = "{69, 0}";
},
{
name = top;
position = "{254, 717}";
}
);
background = {
paths = (
{
closed = 1;
nodes = (
"335 747 OFFCURVE",
"307 754 OFFCURVE",
"270 754 CURVE SMOOTH",
"151 754 OFFCURVE",
"93 676 OFFCURVE",
"93 519 CURVE SMOOTH",
"93 500 LINE",
"7 500 LINE",
"7 454 LINE",
"91 454 LINE",
"91 0 LINE",
"148 0 LINE",
"148 454 LINE",
"293 454 LINE",
"293 500 LINE",
"148 500 LINE",
"148 519 LINE SMOOTH",
"148 644 OFFCURVE",
"188 706 OFFCURVE",
"266 706 CURVE SMOOTH",
"293 706 OFFCURVE",
"316 700 OFFCURVE",
"338 689 CURVE",
"354 731 LINE"
);
}
);
};
layerId = "1781F524-7973-4932-8D2B-6055E077B411";
paths = (
{
closed = 1;
nodes = (
"85 0 LINE",
"167 466 LINE",
"315 466 LINE",
"321 500 LINE",
"173 500 LINE",
"186 574 LINE SMOOTH",
"198 644 OFFCURVE",
"239 683 OFFCURVE",
"301 683 CURVE SMOOTH",
"331 683 OFFCURVE",
"351 678 OFFCURVE",
"367 666 CURVE",
"387 692 LINE",
"374 706 OFFCURVE",
"338 717 OFFCURVE",
"299 717 CURVE SMOOTH",
"223 717 OFFCURVE",
"164 663 OFFCURVE",
"148 572 CURVE SMOOTH",
"135 500 LINE",
"51 500 LINE",
"45 466 LINE",
"129 466 LINE",
"47 0 LINE"
);
}
);
width = 287;
}
);
note = f;
unicode = 0066;
},
{
glyphname = g;
lastChange = "2018-06-18 12:56:52 +0000";
layers = (
{
anchors = (
{
name = bottom;
position = "{260, -218}";
},
{
name = top;
position = "{257, 500}";
}
);
background = {
paths = (
{
closed = 1;
nodes = (
"404 381 OFFCURVE",
"384 422 OFFCURVE",
"344 462 CURVE",
"416 454 LINE",
"416 501 LINE",
"221 501 LINE SMOOTH",
"131 501 OFFCURVE",
"53 431 OFFCURVE",
"53 325 CURVE SMOOTH",
"53 281 OFFCURVE",
"71 240 OFFCURVE",
"107 200 CURVE",
"97 171 OFFCURVE",
"93 147 OFFCURVE",
"93 129 CURVE SMOOTH",
"93 100 OFFCURVE",
"107 76 OFFCURVE",
"138 57 CURVE SMOOTH",
"156 46 OFFCURVE",
"188 32 OFFCURVE",
"235 18 CURVE SMOOTH",
"313 -7 OFFCURVE",
"351 -44 OFFCURVE",
"351 -91 CURVE SMOOTH",
"351 -144 OFFCURVE",
"298 -181 OFFCURVE",
"226 -181 CURVE SMOOTH",
"184 -181 OFFCURVE",
"143 -169 OFFCURVE",
"100 -144 CURVE",
"79 -191 LINE",
"122 -218 OFFCURVE",
"171 -231 OFFCURVE",
"222 -231 CURVE SMOOTH",
"340 -231 OFFCURVE",
"401 -171 OFFCURVE",
"401 -87 CURVE SMOOTH",
"401 -18 OFFCURVE",
"354 31 OFFCURVE",
"260 57 CURVE SMOOTH",
"181 79 OFFCURVE",
"141 104 OFFCURVE",
"141 129 CURVE SMOOTH",
"141 143 OFFCURVE",
"144 157 OFFCURVE",
"150 172 CURVE",
"172 162 OFFCURVE",
"197 156 OFFCURVE",
"228 156 CURVE SMOOTH",
"328 156 OFFCURVE",
"404 225 OFFCURVE",
"404 335 CURVE SMOOTH"
);
},
{
closed = 1;
nodes = (
"354 247 OFFCURVE",
"298 200 OFFCURVE",
"228 200 CURVE SMOOTH",
"197 200 OFFCURVE",
"169 210 OFFCURVE",
"144 232 CURVE SMOOTH",
"118 256 OFFCURVE",
"104 287 OFFCURVE",
"104 326 CURVE SMOOTH",
"104 397 OFFCURVE",
"150 457 OFFCURVE",
"228 457 CURVE SMOOTH",
"268 457 OFFCURVE",
"300 442 OFFCURVE",
"323 413 CURVE SMOOTH",
"344 388 OFFCURVE",
"354 360 OFFCURVE",
"354 328 CURVE SMOOTH"
);
}
);
};
layerId = "0B1DFD06-3317-40CA-B510-4969A0718C16";
paths = (
{
closed = 1;
nodes = (
"380 -218 OFFCURVE",
"454 -137 OFFCURVE",
"454 13 CURVE SMOOTH",
"454 500 LINE",
"423 500 LINE",
"413 418 LINE",
"411 418 LINE",
"379 476 OFFCURVE",
"321 510 OFFCURVE",
"254 510 CURVE SMOOTH",
"127 510 OFFCURVE",
"44 411 OFFCURVE",
"44 260 CURVE SMOOTH",
"44 91 OFFCURVE",
"122 -12 OFFCURVE",
"250 -12 CURVE SMOOTH",
"326 -12 OFFCURVE",
"388 23 OFFCURVE",
"421 83 CURVE",
"417 83 LINE",
"417 17 LINE SMOOTH",
"417 -121 OFFCURVE",
"362 -184 OFFCURVE",
"241 -184 CURVE SMOOTH",
"184 -184 OFFCURVE",
"145 -175 OFFCURVE",
"91 -148 CURVE",
"77 -181 LINE",
"129 -206 OFFCURVE",
"184 -218 OFFCURVE",
"242 -218 CURVE SMOOTH"
);
},
{
closed = 1;
nodes = (
"145 22 OFFCURVE",
"82 111 OFFCURVE",
"82 258 CURVE SMOOTH",
"82 391 OFFCURVE",
"148 476 OFFCURVE",
"250 476 CURVE SMOOTH",
"350 476 OFFCURVE",
"416 400 OFFCURVE",
"416 285 CURVE SMOOTH",
"416 196 LINE SMOOTH",
"416 91 OFFCURVE",
"350 22 OFFCURVE",
"249 22 CURVE SMOOTH"
);
}
);
width = 531;
},
{
anchors = (
{
name = bottom;
position = "{261, -238}";
},
{
name = top;
position = "{268, 500}";
}
);
background = {
paths = (
{
closed = 1;
nodes = (
"409 381 OFFCURVE",
"389 422 OFFCURVE",
"349 462 CURVE",
"421 454 LINE",
"421 501 LINE",
"226 501 LINE SMOOTH",
"136 501 OFFCURVE",
"58 431 OFFCURVE",
"58 325 CURVE SMOOTH",
"58 281 OFFCURVE",
"76 240 OFFCURVE",
"112 200 CURVE",
"102 171 OFFCURVE",
"98 147 OFFCURVE",
"98 129 CURVE SMOOTH",
"98 100 OFFCURVE",
"112 76 OFFCURVE",
"143 57 CURVE SMOOTH",
"161 46 OFFCURVE",
"193 32 OFFCURVE",
"240 18 CURVE SMOOTH",
"318 -7 OFFCURVE",
"356 -44 OFFCURVE",
"356 -91 CURVE SMOOTH",
"356 -144 OFFCURVE",
"303 -181 OFFCURVE",
"231 -181 CURVE SMOOTH",
"189 -181 OFFCURVE",
"148 -169 OFFCURVE",
"105 -144 CURVE",
"84 -191 LINE",
"127 -218 OFFCURVE",
"176 -231 OFFCURVE",
"227 -231 CURVE SMOOTH",
"345 -231 OFFCURVE",
"406 -171 OFFCURVE",
"406 -87 CURVE SMOOTH",
"406 -18 OFFCURVE",
"359 31 OFFCURVE",
"265 57 CURVE SMOOTH",
"186 79 OFFCURVE",
"146 104 OFFCURVE",
"146 129 CURVE SMOOTH",
"146 143 OFFCURVE",
"149 157 OFFCURVE",
"155 172 CURVE",
"177 162 OFFCURVE",
"202 156 OFFCURVE",
"233 156 CURVE SMOOTH",
"333 156 OFFCURVE",
"409 225 OFFCURVE",
"409 335 CURVE SMOOTH"
);
},
{
closed = 1;
nodes = (
"359 247 OFFCURVE",
"303 200 OFFCURVE",
"233 200 CURVE SMOOTH",
"202 200 OFFCURVE",
"174 210 OFFCURVE",
"149 232 CURVE SMOOTH",
"123 256 OFFCURVE",
"109 287 OFFCURVE",
"109 326 CURVE SMOOTH",
"109 397 OFFCURVE",
"155 457 OFFCURVE",
"233 457 CURVE SMOOTH",
"273 457 OFFCURVE",
"305 442 OFFCURVE",
"328 413 CURVE SMOOTH",
"349 388 OFFCURVE",
"359 360 OFFCURVE",
"359 328 CURVE SMOOTH"
);
}
);
};
layerId = "ECFE7DEB-F40D-44C7-B7CF-D3B40F3B51F8";
paths = (
{
closed = 1;
nodes = (
"428 -238 OFFCURVE",
"515 -150 OFFCURVE",
"515 21 CURVE SMOOTH",
"515 500 LINE",
"396 500 LINE",
"387 440 LINE",
"385 440 LINE",
"354 486 OFFCURVE",
"303 510 OFFCURVE",
"235 510 CURVE SMOOTH",
"101 510 OFFCURVE",
"25 418 OFFCURVE",
"25 256 CURVE SMOOTH",
"25 91 OFFCURVE",
"104 -1 OFFCURVE",
"246 -1 CURVE SMOOTH",
"341 -1 OFFCURVE",
"398 40 OFFCURVE",
"405 114 CURVE",
"378 114 LINE",
"378 40 LINE SMOOTH",
"378 -72 OFFCURVE",
"337 -127 OFFCURVE",
"252 -127 CURVE SMOOTH",
"205 -127 OFFCURVE",
"145 -111 OFFCURVE",
"99 -87 CURVE",
"52 -182 LINE",
"105 -218 OFFCURVE",
"178 -238 OFFCURVE",
"259 -238 CURVE SMOOTH"
);
},
{
closed = 1;
nodes = (
"202 107 OFFCURVE",
"166 156 OFFCURVE",
"166 253 CURVE SMOOTH",
"166 353 OFFCURVE",
"203 405 OFFCURVE",
"274 405 CURVE SMOOTH",
"339 405 OFFCURVE",
"373 362 OFFCURVE",
"373 280 CURVE SMOOTH",
"373 220 LINE SMOOTH",
"373 147 OFFCURVE",
"338 107 OFFCURVE",
"273 107 CURVE SMOOTH"
);
}
);
width = 559;
},
{
anchors = (
{
name = bottom;
position = "{260, -218}";
},
{
name = top;
position = "{255, 500}";
}
);
layerId = "E6340435-1C2D-4187-91B6-2B8E20EF3542";
paths = (
{
closed = 1;
nodes = (
"400 -228 OFFCURVE",
"480 -144 OFFCURVE",
"480 16 CURVE SMOOTH",
"480 500 LINE",
"410 500 LINE",
"400 428 LINE",
"398 428 LINE",
"367 481 OFFCURVE",
"313 510 OFFCURVE",
"244 510 CURVE SMOOTH",
"114 510 OFFCURVE",
"34 415 OFFCURVE",
"34 258 CURVE SMOOTH",
"34 94 OFFCURVE",
"115 -7 OFFCURVE",
"247 -7 CURVE SMOOTH",
"327 -7 OFFCURVE",
"390 33 OFFCURVE",
"410 97 CURVE",
"401 97 LINE",
"401 29 LINE SMOOTH",
"401 -95 OFFCURVE",
"349 -156 OFFCURVE",
"245 -156 CURVE SMOOTH",
"192 -156 OFFCURVE",
"143 -144 OFFCURVE",
"93 -120 CURVE",
"65 -182 LINE",
"116 -212 OFFCURVE",
"181 -228 OFFCURVE",
"248 -228 CURVE SMOOTH"
);
},
{
closed = 1;
nodes = (
"171 61 OFFCURVE",
"119 133 OFFCURVE",
"119 256 CURVE SMOOTH",
"119 374 OFFCURVE",
"172 445 OFFCURVE",
"259 445 CURVE SMOOTH",
"344 445 OFFCURVE",
"395 384 OFFCURVE",
"395 283 CURVE SMOOTH",
"395 207 LINE SMOOTH",
"395 115 OFFCURVE",
"344 61 OFFCURVE",
"259 61 CURVE SMOOTH"
);
}
);
width = 541;
},
{
anchors = (
{
name = bottom;
position = "{175, -238}";
},
{
name = top;
position = "{312, 500}";
}
);
background = {
paths = (
{
closed = 1;
nodes = (
"409 381 OFFCURVE",
"389 422 OFFCURVE",
"349 462 CURVE",
"421 454 LINE",
"421 501 LINE",
"226 501 LINE SMOOTH",
"136 501 OFFCURVE",
"58 431 OFFCURVE",
"58 325 CURVE SMOOTH",
"58 281 OFFCURVE",
"76 240 OFFCURVE",
"112 200 CURVE",
"102 171 OFFCURVE",
"98 147 OFFCURVE",
"98 129 CURVE SMOOTH",
"98 100 OFFCURVE",
"112 76 OFFCURVE",
"143 57 CURVE SMOOTH",
"161 46 OFFCURVE",
"193 32 OFFCURVE",
"240 18 CURVE SMOOTH",
"318 -7 OFFCURVE",
"356 -44 OFFCURVE",
"356 -91 CURVE SMOOTH",
"356 -144 OFFCURVE",
"303 -181 OFFCURVE",
"231 -181 CURVE SMOOTH",
"189 -181 OFFCURVE",
"148 -169 OFFCURVE",
"105 -144 CURVE",
"84 -191 LINE",
"127 -218 OFFCURVE",
"176 -231 OFFCURVE",
"227 -231 CURVE SMOOTH",
"345 -231 OFFCURVE",
"406 -171 OFFCURVE",
"406 -87 CURVE SMOOTH",
"406 -18 OFFCURVE",
"359 31 OFFCURVE",
"265 57 CURVE SMOOTH",
"186 79 OFFCURVE",
"146 104 OFFCURVE",
"146 129 CURVE SMOOTH",
"146 143 OFFCURVE",
"149 157 OFFCURVE",
"155 172 CURVE",
"177 162 OFFCURVE",
"202 156 OFFCURVE",
"233 156 CURVE SMOOTH",
"333 156 OFFCURVE",
"409 225 OFFCURVE",
"409 335 CURVE SMOOTH"
);
},
{
closed = 1;
nodes = (
"359 247 OFFCURVE",
"303 200 OFFCURVE",
"233 200 CURVE SMOOTH",
"202 200 OFFCURVE",
"174 210 OFFCURVE",
"149 232 CURVE SMOOTH",
"123 256 OFFCURVE",
"109 287 OFFCURVE",
"109 326 CURVE SMOOTH",
"109 397 OFFCURVE",
"155 457 OFFCURVE",
"233 457 CURVE SMOOTH",
"273 457 OFFCURVE",
"305 442 OFFCURVE",
"328 413 CURVE SMOOTH",
"349 388 OFFCURVE",
"359 360 OFFCURVE",
"359 328 CURVE SMOOTH"
);
}
);
};
layerId = "CAD36325-8B27-45AE-AB38-7E116081C841";
paths = (
{
closed = 1;
nodes = (
"346 -238 OFFCURVE",
"445 -152 OFFCURVE",
"475 21 CURVE SMOOTH",
"559 500 LINE",
"440 500 LINE",
"421 440 LINE",
"419 440 LINE",
"397 485 OFFCURVE",
"344 510 OFFCURVE",
"275 510 CURVE SMOOTH",
"123 510 OFFCURVE",
"19 380 OFFCURVE",
"19 188 CURVE SMOOTH",
"19 70 OFFCURVE",
"90 -1 OFFCURVE",
"208 -1 CURVE SMOOTH",
"301 -1 OFFCURVE",
"361 39 OFFCURVE",
"381 114 CURVE",
"354 114 LINE",
"341 40 LINE SMOOTH",
"321 -73 OFFCURVE",
"270 -127 OFFCURVE",
"186 -127 CURVE SMOOTH",
"139 -127 OFFCURVE",
"82 -111 OFFCURVE",
"40 -87 CURVE",
"-24 -182 LINE",
"22 -217 OFFCURVE",
"97 -238 OFFCURVE",
"179 -238 CURVE SMOOTH"
);
},
{
closed = 1;
nodes = (
"191 107 OFFCURVE",
"162 139 OFFCURVE",
"162 202 CURVE SMOOTH",
"162 320 OFFCURVE",
"214 405 OFFCURVE",
"296 405 CURVE SMOOTH",
"360 405 OFFCURVE",
"392 362 OFFCURVE",
"378 280 CURVE SMOOTH",
"368 220 LINE SMOOTH",
"356 148 OFFCURVE",
"313 107 OFFCURVE",
"248 107 CURVE SMOOTH"
);
}
);
width = 559;
},
{
anchors = (
{
name = bottom;
position = "{178, -218}";
},
{
name = top;
position = "{299, 500}";
}
);
layerId = "BC946E28-F4D1-4B1D-9CE5-1B4AE2F9B39A";
paths = (
{
closed = 1;
nodes = (
"319 -228 OFFCURVE",
"411 -145 OFFCURVE",
"439 16 CURVE SMOOTH",
"524 500 LINE",
"454 500 LINE",
"432 428 LINE",
"430 428 LINE",
"409 479 OFFCURVE",
"354 510 OFFCURVE",
"284 510 CURVE SMOOTH",
"135 510 OFFCURVE",
"29 374 OFFCURVE",
"29 184 CURVE SMOOTH",
"29 65 OFFCURVE",
"97 -7 OFFCURVE",
"208 -7 CURVE SMOOTH",
"286 -7 OFFCURVE",
"352 32 OFFCURVE",
"383 97 CURVE",
"374 97 LINE",
"362 29 LINE SMOOTH",
"340 -94 OFFCURVE",
"278 -156 OFFCURVE",
"174 -156 CURVE SMOOTH",
"122 -156 OFFCURVE",
"75 -144 OFFCURVE",
"28 -120 CURVE",
"-11 -182 LINE",
"34 -211 OFFCURVE",
"100 -228 OFFCURVE",
"169 -228 CURVE SMOOTH"
);
},
{
closed = 1;
nodes = (
"155 61 OFFCURVE",
"114 109 OFFCURVE",
"114 194 CURVE SMOOTH",
"114 337 OFFCURVE",
"192 445 OFFCURVE",
"294 445 CURVE SMOOTH",
"378 445 OFFCURVE",
"418 385 OFFCURVE",
"401 283 CURVE SMOOTH",
"388 207 LINE SMOOTH",
"372 116 OFFCURVE",
"312 61 OFFCURVE",
"226 61 CURVE SMOOTH"
);
}
);
width = 541;
},
{
anchors = (
{
name = bottom;
position = "{177, -218}";
},
{
name = top;
position = "{301, 500}";
}
);
background = {
paths = (
{
closed = 1;
nodes = (
"404 381 OFFCURVE",
"384 422 OFFCURVE",
"344 462 CURVE",
"416 454 LINE",
"416 501 LINE",
"221 501 LINE SMOOTH",
"131 501 OFFCURVE",
"53 431 OFFCURVE",
"53 325 CURVE SMOOTH",
"53 281 OFFCURVE",
"71 240 OFFCURVE",
"107 200 CURVE",
"97 171 OFFCURVE",
"93 147 OFFCURVE",
"93 129 CURVE SMOOTH",
"93 100 OFFCURVE",
"107 76 OFFCURVE",
"138 57 CURVE SMOOTH",
"156 46 OFFCURVE",
"188 32 OFFCURVE",
"235 18 CURVE SMOOTH",
"313 -7 OFFCURVE",
"351 -44 OFFCURVE",
"351 -91 CURVE SMOOTH",
"351 -144 OFFCURVE",
"298 -181 OFFCURVE",
"226 -181 CURVE SMOOTH",
"184 -181 OFFCURVE",
"143 -169 OFFCURVE",
"100 -144 CURVE",
"79 -191 LINE",
"122 -218 OFFCURVE",
"171 -231 OFFCURVE",
"222 -231 CURVE SMOOTH",
"340 -231 OFFCURVE",
"401 -171 OFFCURVE",
"401 -87 CURVE SMOOTH",
"401 -18 OFFCURVE",
"354 31 OFFCURVE",
"260 57 CURVE SMOOTH",
"181 79 OFFCURVE",
"141 104 OFFCURVE",
"141 129 CURVE SMOOTH",
"141 143 OFFCURVE",
"144 157 OFFCURVE",
"150 172 CURVE",
"172 162 OFFCURVE",
"197 156 OFFCURVE",
"228 156 CURVE SMOOTH",
"328 156 OFFCURVE",
"404 225 OFFCURVE",
"404 335 CURVE SMOOTH"
);
},
{
closed = 1;
nodes = (
"354 247 OFFCURVE",
"298 200 OFFCURVE",
"228 200 CURVE SMOOTH",
"197 200 OFFCURVE",
"169 210 OFFCURVE",
"144 232 CURVE SMOOTH",
"118 256 OFFCURVE",
"104 287 OFFCURVE",
"104 326 CURVE SMOOTH",
"104 397 OFFCURVE",
"150 457 OFFCURVE",
"228 457 CURVE SMOOTH",
"268 457 OFFCURVE",
"300 442 OFFCURVE",
"323 413 CURVE SMOOTH",
"344 388 OFFCURVE",
"354 360 OFFCURVE",
"354 328 CURVE SMOOTH"
);
}
);
};
layerId = "1781F524-7973-4932-8D2B-6055E077B411";
paths = (
{
closed = 1;
nodes = (
"305 -218 OFFCURVE",
"386 -135 OFFCURVE",
"412 13 CURVE SMOOTH",
"498 500 LINE",
"467 500 LINE",
"443 418 LINE",
"441 418 LINE",
"419 476 OFFCURVE",
"360 510 OFFCURVE",
"294 510 CURVE SMOOTH",
"144 510 OFFCURVE",
"38 368 OFFCURVE",
"38 180 CURVE SMOOTH",
"38 59 OFFCURVE",
"104 -12 OFFCURVE",
"210 -12 CURVE SMOOTH",
"285 -12 OFFCURVE",
"348 23 OFFCURVE",
"392 83 CURVE",
"388 83 LINE",
"376 17 LINE SMOOTH",
"352 -118 OFFCURVE",
"287 -184 OFFCURVE",
"164 -184 CURVE SMOOTH",
"108 -184 OFFCURVE",
"70 -175 OFFCURVE",
"21 -148 CURVE",
"1 -181 LINE",
"49 -206 OFFCURVE",
"107 -218 OFFCURVE",
"165 -218 CURVE SMOOTH"
);
},
{
closed = 1;
nodes = (
"124 22 OFFCURVE",
"76 82 OFFCURVE",
"76 184 CURVE SMOOTH",
"76 350 OFFCURVE",
"169 476 OFFCURVE",
"290 476 CURVE SMOOTH",
"389 476 OFFCURVE",
"443 400 OFFCURVE",
"422 285 CURVE SMOOTH",
"406 196 LINE SMOOTH",
"387 91 OFFCURVE",
"309 22 OFFCURVE",
"209 22 CURVE SMOOTH"
);
}
);
width = 531;
}
);
leftKerningGroup = d;
note = g;
unicode = 0067;
},
{
glyphname = h;
lastChange = "2018-06-18 12:57:31 +0000";
layers = (
{
anchors = (
{
name = bottom;
position = "{275, 0}";
},
{
name = center;
position = "{275, 252}";
},
{
name = top;
position = "{181, 742}";
}
);
background = {
paths = (
{
closed = 1;
nodes = (
"491 435 OFFCURVE",
"426 510 OFFCURVE",
"295 510 CURVE SMOOTH",
"223 510 OFFCURVE",
"167 476 OFFCURVE",
"128 410 CURVE",
"128 742 LINE",
"70 742 LINE",
"70 0 LINE",
"128 0 LINE",
"128 303 LINE SMOOTH",
"128 343 OFFCURVE",
"144 378 OFFCURVE",
"175 412 CURVE SMOOTH",
"207 445 OFFCURVE",
"244 463 OFFCURVE",
"284 463 CURVE SMOOTH",
"384 463 OFFCURVE",
"434 403 OFFCURVE",
"434 284 CURVE SMOOTH",
"434 0 LINE",
"491 0 LINE",
"491 284 LINE SMOOTH"
);
}
);
};
layerId = "0B1DFD06-3317-40CA-B510-4969A0718C16";
paths = (
{
closed = 1;
nodes = (
"114 0 LINE",
"114 274 LINE SMOOTH",
"114 387 OFFCURVE",
"195 476 OFFCURVE",
"299 476 CURVE SMOOTH",
"388 476 OFFCURVE",
"436 409 OFFCURVE",
"436 284 CURVE SMOOTH",
"436 0 LINE",
"474 0 LINE",
"474 283 LINE SMOOTH",
"474 434 OFFCURVE",
"414 510 OFFCURVE",
"294 510 CURVE SMOOTH",
"219 510 OFFCURVE",
"148 465 OFFCURVE",
"114 395 CURVE",
"114 742 LINE",
"76 742 LINE",
"76 0 LINE"
);
}
);
width = 550;
},
{
anchors = (
{
name = bottom;
position = "{284, 0}";
},
{
name = center;
position = "{284, 236}";
},
{
name = top;
position = "{227, 742}";
}
);
background = {
paths = (
{
closed = 1;
nodes = (
"485 435 OFFCURVE",
"420 510 OFFCURVE",
"289 510 CURVE SMOOTH",
"217 510 OFFCURVE",
"161 476 OFFCURVE",
"122 410 CURVE",
"122 742 LINE",
"64 742 LINE",
"64 0 LINE",
"122 0 LINE",
"122 303 LINE SMOOTH",
"122 343 OFFCURVE",
"138 378 OFFCURVE",
"169 412 CURVE SMOOTH",
"201 445 OFFCURVE",
"238 463 OFFCURVE",
"278 463 CURVE SMOOTH",
"378 463 OFFCURVE",
"428 403 OFFCURVE",
"428 284 CURVE SMOOTH",
"428 0 LINE",
"485 0 LINE",
"485 284 LINE SMOOTH"
);
}
);
};
layerId = "ECFE7DEB-F40D-44C7-B7CF-D3B40F3B51F8";
paths = (
{
closed = 1;
nodes = (
"186 0 LINE",
"186 272 LINE SMOOTH",
"186 355 OFFCURVE",
"228 405 OFFCURVE",
"296 405 CURVE SMOOTH",
"350 405 OFFCURVE",
"384 362 OFFCURVE",
"384 292 CURVE SMOOTH",
"384 0 LINE",
"526 0 LINE",
"526 305 LINE SMOOTH",
"526 433 OFFCURVE",
"447 510 OFFCURVE",
"337 510 CURVE SMOOTH",
"275 510 OFFCURVE",
"217 486 OFFCURVE",
"186 447 CURVE",
"186 742 LINE",
"44 742 LINE",
"44 0 LINE"
);
}
);
width = 570;
},
{
anchors = (
{
name = bottom;
position = "{279, 0}";
},
{
name = center;
position = "{279, 245}";
},
{
name = top;
position = "{203, 742}";
}
);
layerId = "E6340435-1C2D-4187-91B6-2B8E20EF3542";
paths = (
{
closed = 1;
nodes = (
"146 0 LINE",
"146 273 LINE SMOOTH",
"146 373 OFFCURVE",
"210 445 OFFCURVE",
"298 445 CURVE SMOOTH",
"372 445 OFFCURVE",
"412 389 OFFCURVE",
"412 287 CURVE SMOOTH",
"412 0 LINE",
"497 0 LINE",
"497 286 LINE SMOOTH",
"497 428 OFFCURVE",
"430 510 OFFCURVE",
"313 510 CURVE SMOOTH",
"240 510 OFFCURVE",
"176 476 OFFCURVE",
"146 422 CURVE",
"146 742 LINE",
"61 742 LINE",
"61 0 LINE"
);
}
);
width = 558;
},
{
anchors = (
{
name = bottom;
position = "{240, 0}";
},
{
name = center;
position = "{282, 236}";
},
{
name = top;
position = "{314, 742}";
}
);
background = {
paths = (
{
closed = 1;
nodes = (
"485 435 OFFCURVE",
"420 510 OFFCURVE",
"289 510 CURVE SMOOTH",
"217 510 OFFCURVE",
"161 476 OFFCURVE",
"122 410 CURVE",
"122 742 LINE",
"64 742 LINE",
"64 0 LINE",
"122 0 LINE",
"122 303 LINE SMOOTH",
"122 343 OFFCURVE",
"138 378 OFFCURVE",
"169 412 CURVE SMOOTH",
"201 445 OFFCURVE",
"238 463 OFFCURVE",
"278 463 CURVE SMOOTH",
"378 463 OFFCURVE",
"428 403 OFFCURVE",
"428 284 CURVE SMOOTH",
"428 0 LINE",
"485 0 LINE",
"485 284 LINE SMOOTH"
);
}
);
};
layerId = "CAD36325-8B27-45AE-AB38-7E116081C841";
paths = (
{
closed = 1;
nodes = (
"142 0 LINE",
"190 272 LINE SMOOTH",
"205 355 OFFCURVE",
"255 405 OFFCURVE",
"323 405 CURVE SMOOTH",
"377 405 OFFCURVE",
"403 362 OFFCURVE",
"391 292 CURVE SMOOTH",
"340 0 LINE",
"482 0 LINE",
"536 305 LINE SMOOTH",
"558 426 OFFCURVE",
"493 510 OFFCURVE",
"377 510 CURVE SMOOTH",
"313 510 OFFCURVE",
"256 486 OFFCURVE",
"221 447 CURVE",
"273 742 LINE",
"131 742 LINE",
"0 0 LINE"
);
}
);
width = 570;
},
{
anchors = (
{
name = bottom;
position = "{235, 0}";
},
{
name = center;
position = "{278, 245}";
},
{
name = top;
position = "{290, 742}";
}
);
layerId = "BC946E28-F4D1-4B1D-9CE5-1B4AE2F9B39A";
paths = (
{
closed = 1;
nodes = (
"102 0 LINE",
"150 273 LINE SMOOTH",
"168 373 OFFCURVE",
"244 445 OFFCURVE",
"332 445 CURVE SMOOTH",
"406 445 OFFCURVE",
"437 389 OFFCURVE",
"419 287 CURVE SMOOTH",
"368 0 LINE",
"453 0 LINE",
"503 286 LINE SMOOTH",
"528 426 OFFCURVE",
"471 510 OFFCURVE",
"353 510 CURVE SMOOTH",
"280 510 OFFCURVE",
"207 474 OFFCURVE",
"176 422 CURVE",
"233 742 LINE",
"148 742 LINE",
"17 0 LINE"
);
}
);
width = 558;
},
{
anchors = (
{
name = bottom;
position = "{231, 0}";
},
{
name = center;
position = "{275, 252}";
},
{
name = top;
position = "{268, 742}";
}
);
background = {
paths = (
{
closed = 1;
nodes = (
"491 435 OFFCURVE",
"426 510 OFFCURVE",
"295 510 CURVE SMOOTH",
"223 510 OFFCURVE",
"167 476 OFFCURVE",
"128 410 CURVE",
"128 742 LINE",
"70 742 LINE",
"70 0 LINE",
"128 0 LINE",
"128 303 LINE SMOOTH",
"128 343 OFFCURVE",
"144 378 OFFCURVE",
"175 412 CURVE SMOOTH",
"207 445 OFFCURVE",
"244 463 OFFCURVE",
"284 463 CURVE SMOOTH",
"384 463 OFFCURVE",
"434 403 OFFCURVE",
"434 284 CURVE SMOOTH",
"434 0 LINE",
"491 0 LINE",
"491 284 LINE SMOOTH"
);
}
);
};
layerId = "1781F524-7973-4932-8D2B-6055E077B411";
paths = (
{
closed = 1;
nodes = (
"70 0 LINE",
"118 274 LINE SMOOTH",
"138 387 OFFCURVE",
"235 476 OFFCURVE",
"339 476 CURVE SMOOTH",
"427 476 OFFCURVE",
"464 409 OFFCURVE",
"442 284 CURVE SMOOTH",
"392 0 LINE",
"430 0 LINE",
"480 283 LINE SMOOTH",
"507 434 OFFCURVE",
"453 510 OFFCURVE",
"334 510 CURVE SMOOTH",
"259 510 OFFCURVE",
"186 465 OFFCURVE",
"140 395 CURVE",
"201 742 LINE",
"163 742 LINE",
"32 0 LINE"
);
}
);
width = 550;
}
);
note = h;
unicode = 0068;
},
